<?xml version="1.0"?>
<!-- Created by MetaPost 1.803 on 2016.06.02:2102 -->
<svg version="1.1" xmlns="http://www.w3.org/2000/svg" xmlns:xlink="http://www.w3.org/1999/xlink" width="181.917297" height="176.247986" viewBox="0 0 181.917297 176.247986">
<!-- Original BoundingBox: -90.958649 -5.919281 90.958649 170.328705 -->
  <defs>
    <g transform="scale(0.009963,0.009963)" id="GLYPHcmr10_39">
      <path style="fill-rule: evenodd;" d="M206.000000 -589.000000C206.000000 -649.000000,182.000000 -694.000000,139.000000 -694.000000C104.000000 -694.000000,86.000000 -667.000000,86.000000 -641.000000C86.000000 -615.000000,103.000000 -588.000000,139.000000 -588.000000C159.000000 -588.000000,173.000000 -598.000000,179.000000 -604.000000C180.000000 -606.000000,181.000000 -607.000000,182.000000 -607.000000C184.000000 -607.000000,184.000000 -593.000000,184.000000 -589.000000C184.000000 -557.000000,177.000000 -485.000000,114.000000 -423.000000C102.000000 -411.000000,102.000000 -409.000000,102.000000 -406.000000C102.000000 -399.000000,107.000000 -395.000000,112.000000 -395.000000C123.000000 -395.000000,206.000000 -471.000000,206.000000 -589.000000"></path>
    </g>
    <g transform="scale(0.009963,0.009963)" id="GLYPHcmr10_97">
      <path style="fill-rule: evenodd;" d="M333.000000 -76.000000C337.000000 -36.000000,364.000000 6.000000,411.000000 6.000000C432.000000 6.000000,493.000000 -8.000000,493.000000 -89.000000L493.000000 -145.000000L468.000000 -145.000000L468.000000 -89.000000C468.000000 -31.000000,443.000000 -25.000000,432.000000 -25.000000C399.000000 -25.000000,395.000000 -70.000000,395.000000 -75.000000L395.000000 -275.000000C395.000000 -317.000000,395.000000 -356.000000,359.000000 -393.000000C320.000000 -432.000000,270.000000 -448.000000,222.000000 -448.000000C140.000000 -448.000000,71.000000 -401.000000,71.000000 -335.000000C71.000000 -305.000000,91.000000 -288.000000,117.000000 -288.000000C145.000000 -288.000000,163.000000 -308.000000,163.000000 -334.000000C163.000000 -346.000000,158.000000 -379.000000,112.000000 -380.000000C139.000000 -415.000000,188.000000 -426.000000,220.000000 -426.000000C269.000000 -426.000000,326.000000 -387.000000,326.000000 -298.000000L326.000000 -261.000000C275.000000 -258.000000,205.000000 -255.000000,142.000000 -225.000000C67.000000 -191.000000,42.000000 -139.000000,42.000000 -95.000000C42.000000 -14.000000,139.000000 11.000000,202.000000 11.000000C268.000000 11.000000,314.000000 -29.000000,333.000000 -76.000000M326.000000 -240.000000L326.000000 -140.000000C326.000000 -45.000000,254.000000 -11.000000,209.000000 -11.000000C160.000000 -11.000000,119.000000 -46.000000,119.000000 -96.000000C119.000000 -151.000000,161.000000 -234.000000,326.000000 -240.000000"></path>
    </g>
    <g transform="scale(0.009963,0.009963)" id="GLYPHcmr10_98">
      <path style="fill-rule: evenodd;" d="M172.000000 -377.000000L172.000000 -694.000000L28.000000 -683.000000L28.000000 -652.000000C98.000000 -652.000000,106.000000 -645.000000,106.000000 -596.000000L106.000000 -0.000000L131.000000 -0.000000C132.000000 -1.000000,140.000000 -15.000000,167.000000 -62.000000C182.000000 -39.000000,224.000000 11.000000,298.000000 11.000000C417.000000 11.000000,521.000000 -87.000000,521.000000 -216.000000C521.000000 -343.000000,423.000000 -442.000000,309.000000 -442.000000C231.000000 -442.000000,188.000000 -395.000000,172.000000 -377.000000M175.000000 -114.000000L175.000000 -320.000000C175.000000 -339.000000,175.000000 -340.000000,186.000000 -356.000000C225.000000 -412.000000,280.000000 -420.000000,304.000000 -420.000000C349.000000 -420.000000,385.000000 -394.000000,409.000000 -356.000000C435.000000 -315.000000,438.000000 -258.000000,438.000000 -217.000000C438.000000 -180.000000,436.000000 -120.000000,407.000000 -75.000000C386.000000 -44.000000,348.000000 -11.000000,294.000000 -11.000000C249.000000 -11.000000,213.000000 -35.000000,189.000000 -72.000000C175.000000 -93.000000,175.000000 -96.000000,175.000000 -114.000000"></path>
    </g>
    <g transform="scale(0.009963,0.009963)" id="GLYPHcmr10_99">
      <path style="fill-rule: evenodd;" d="M117.000000 -218.000000C117.000000 -381.000000,199.000000 -423.000000,252.000000 -423.000000C261.000000 -423.000000,324.000000 -422.000000,359.000000 -386.000000C318.000000 -383.000000,312.000000 -353.000000,312.000000 -340.000000C312.000000 -314.000000,330.000000 -294.000000,358.000000 -294.000000C384.000000 -294.000000,404.000000 -311.000000,404.000000 -341.000000C404.000000 -409.000000,328.000000 -448.000000,251.000000 -448.000000C126.000000 -448.000000,34.000000 -340.000000,34.000000 -216.000000C34.000000 -88.000000,133.000000 11.000000,249.000000 11.000000C383.000000 11.000000,415.000000 -109.000000,415.000000 -119.000000C415.000000 -129.000000,405.000000 -129.000000,402.000000 -129.000000C393.000000 -129.000000,391.000000 -125.000000,389.000000 -119.000000C360.000000 -26.000000,295.000000 -14.000000,258.000000 -14.000000C205.000000 -14.000000,117.000000 -57.000000,117.000000 -218.000000"></path>
    </g>
    <g transform="scale(0.009963,0.009963)" id="GLYPHcmr10_100">
      <path style="fill-rule: evenodd;" d="M380.000000 -55.000000L380.000000 11.000000L527.000000 -0.000000L527.000000 -31.000000C457.000000 -31.000000,449.000000 -38.000000,449.000000 -87.000000L449.000000 -694.000000L305.000000 -683.000000L305.000000 -652.000000C375.000000 -652.000000,383.000000 -645.000000,383.000000 -596.000000L383.000000 -380.000000C354.000000 -416.000000,311.000000 -442.000000,257.000000 -442.000000C139.000000 -442.000000,34.000000 -344.000000,34.000000 -215.000000C34.000000 -88.000000,132.000000 11.000000,246.000000 11.000000C310.000000 11.000000,355.000000 -23.000000,380.000000 -55.000000M380.000000 -323.000000L380.000000 -118.000000C380.000000 -100.000000,380.000000 -98.000000,369.000000 -81.000000C339.000000 -33.000000,294.000000 -11.000000,251.000000 -11.000000C206.000000 -11.000000,170.000000 -37.000000,146.000000 -75.000000C120.000000 -116.000000,117.000000 -173.000000,117.000000 -214.000000C117.000000 -251.000000,119.000000 -311.000000,148.000000 -356.000000C169.000000 -387.000000,207.000000 -420.000000,261.000000 -420.000000C296.000000 -420.000000,338.000000 -405.000000,369.000000 -360.000000C380.000000 -343.000000,380.000000 -341.000000,380.000000 -323.000000"></path>
    </g>
  </defs>
  <path d="M33.307098 170.000000L33.307098 56.614197L146.692902 56.614197L146.692902 170.000000Z" style="stroke:rgb(0.000000%,0.000000%,0.000000%); stroke-width: 0.500000;stroke-linecap: round;stroke-linejoin: round;stroke-miterlimit: 10.000000;fill: none;"></path>
  <path d="M33.307098 170.000000L4.960632 170.000000L4.960632 84.960632C12.364105 73.666687,22.013153 64.017670,33.307098 56.614197C67.733643 34.046783,112.266357 34.046783,146.692902 56.614197C157.986847 64.017670,167.635895 73.666687,175.039368 84.960632L175.039368 170.000000L146.692902 170.000000Z" style="stroke:rgb(0.000000%,0.000000%,0.000000%); stroke-width: 0.500000;stroke-linecap: round;stroke-linejoin: round;stroke-miterlimit: 10.000000;fill: none;"></path>
  <path d="M33.307098 56.614197C33.307098 25.303589,58.689392 -0.078705,90.000000 -0.078705C121.310608 -0.078705,146.692902 25.303589,146.692902 56.614197" style="stroke:rgb(0.000000%,0.000000%,0.000000%); stroke-width: 0.500000;stroke-linecap: round;stroke-linejoin: round;stroke-miterlimit: 10.000000;fill: none;"></path>
  <path d="M90.000000 170.000000L90.000000 155.826797" style="stroke:rgb(0.000000%,0.000000%,0.000000%); stroke-width: 2.000000;stroke-linecap: round;stroke-linejoin: round;stroke-miterlimit: 10.000000;fill: none;"></path>
  <path d="M91.530777 159.522324L90.000000 155.826797L88.469223 159.522324Z" style="stroke:rgb(0.000000%,0.000000%,0.000000%); stroke-width: 2.000000;fill: rgb(0.000000%,0.000000%,0.000000%);"></path>
  <path d="M90.000000 170.000000L104.173203 170.000000" style="stroke:rgb(0.000000%,0.000000%,0.000000%); stroke-width: 2.000000;stroke-linecap: round;stroke-linejoin: round;stroke-miterlimit: 10.000000;fill: none;"></path>
  <path d="M100.477676 171.530777L104.173203 170.000000L100.477676 168.469223Z" style="stroke:rgb(0.000000%,0.000000%,0.000000%); stroke-width: 2.000000;fill: rgb(0.000000%,0.000000%,0.000000%);"></path>
  <path d="M90.000000 170.000000L90.000000 113.307098" style="stroke:rgb(0.000000%,0.000000%,100.000000%); stroke-width: 0.500000;stroke-linecap: round;stroke-linejoin: round;stroke-miterlimit: 10.000000;fill: none;"></path>
  <path d="M91.530792 117.002670L90.000000 113.307098L88.469208 117.002670Z" style="stroke:rgb(0.000000%,0.000000%,100.000000%); stroke-width: 0.500000;fill: rgb(0.000000%,0.000000%,100.000000%);"></path>
  <path d="M38.976379 170.000000C38.976379 168.496353,38.378967 167.054459,37.315796 165.991302C36.252640 164.928131,34.810745 164.330719,33.307098 164.330719C31.803452 164.330719,30.361557 164.928131,29.298401 165.991302C28.235229 167.054459,27.637817 168.496353,27.637817 170.000000C27.637817 171.503647,28.235229 172.945541,29.298401 174.008698C30.361557 175.071869,31.803452 175.669281,33.307098 175.669281C34.810745 175.669281,36.252640 175.071869,37.315796 174.008698C38.378967 172.945541,38.976379 171.503647,38.976379 170.000000Z" style="fill: rgb(100.000000%,100.000000%,100.000000%);stroke: none;"></path>
  <path d="M38.976379 170.000000C38.976379 168.496353,38.378967 167.054459,37.315796 165.991302C36.252640 164.928131,34.810745 164.330719,33.307098 164.330719C31.803452 164.330719,30.361557 164.928131,29.298401 165.991302C28.235229 167.054459,27.637817 168.496353,27.637817 170.000000C27.637817 171.503647,28.235229 172.945541,29.298401 174.008698C30.361557 175.071869,31.803452 175.669281,33.307098 175.669281C34.810745 175.669281,36.252640 175.071869,37.315796 174.008698C38.378967 172.945541,38.976379 171.503647,38.976379 170.000000Z" style="stroke:rgb(0.000000%,0.000000%,0.000000%); stroke-width: 0.500000;stroke-linecap: round;stroke-linejoin: round;stroke-miterlimit: 10.000000;fill: none;"></path>
  <g transform="translate(30.816422 172.144745)" style="fill: rgb(0.000000%,0.000000%,0.000000%);">
    <use xlink:href="#GLYPHcmr10_97"></use>
  </g>
  <path d="M10.629913 170.000000C10.629913 168.496353,10.032501 167.054459,8.969330 165.991302C7.906174 164.928131,6.464279 164.330719,4.960632 164.330719C3.456985 164.330719,2.015091 164.928131,0.951935 165.991302C-0.111237 167.054459,-0.708649 168.496353,-0.708649 170.000000C-0.708649 171.503647,-0.111237 172.945541,0.951935 174.008698C2.015091 175.071869,3.456985 175.669281,4.960632 175.669281C6.464279 175.669281,7.906174 175.071869,8.969330 174.008698C10.032501 172.945541,10.629913 171.503647,10.629913 170.000000Z" style="fill: rgb(100.000000%,100.000000%,100.000000%);stroke: none;"></path>
  <path d="M10.629913 170.000000C10.629913 168.496353,10.032501 167.054459,8.969330 165.991302C7.906174 164.928131,6.464279 164.330719,4.960632 164.330719C3.456985 164.330719,2.015091 164.928131,0.951935 165.991302C-0.111237 167.054459,-0.708649 168.496353,-0.708649 170.000000C-0.708649 171.503647,-0.111237 172.945541,0.951935 174.008698C2.015091 175.071869,3.456985 175.669281,4.960632 175.669281C6.464279 175.669281,7.906174 175.071869,8.969330 174.008698C10.032501 172.945541,10.629913 171.503647,10.629913 170.000000Z" style="stroke:rgb(0.000000%,0.000000%,0.000000%); stroke-width: 0.500000;stroke-linecap: round;stroke-linejoin: round;stroke-miterlimit: 10.000000;fill: none;"></path>
  <g transform="translate(2.193222 173.459259)" style="fill: rgb(0.000000%,0.000000%,0.000000%);">
    <use xlink:href="#GLYPHcmr10_98"></use>
  </g>
  <path d="M10.629913 84.960632C10.629913 83.456985,10.032501 82.015091,8.969330 80.951935C7.906174 79.888763,6.464279 79.291351,4.960632 79.291351C3.456985 79.291351,2.015091 79.888763,0.951935 80.951935C-0.111237 82.015091,-0.708649 83.456985,-0.708649 84.960632C-0.708649 86.464279,-0.111237 87.906174,0.951935 88.969330C2.015091 90.032501,3.456985 90.629913,4.960632 90.629913C6.464279 90.629913,7.906174 90.032501,8.969330 88.969330C10.032501 87.906174,10.629913 86.464279,10.629913 84.960632Z" style="fill: rgb(100.000000%,100.000000%,100.000000%);stroke: none;"></path>
  <path d="M10.629913 84.960632C10.629913 83.456985,10.032501 82.015091,8.969330 80.951935C7.906174 79.888763,6.464279 79.291351,4.960632 79.291351C3.456985 79.291351,2.015091 79.888763,0.951935 80.951935C-0.111237 82.015091,-0.708649 83.456985,-0.708649 84.960632C-0.708649 86.464279,-0.111237 87.906174,0.951935 88.969330C2.015091 90.032501,3.456985 90.629913,4.960632 90.629913C6.464279 90.629913,7.906174 90.032501,8.969330 88.969330C10.032501 87.906174,10.629913 86.464279,10.629913 84.960632Z" style="stroke:rgb(0.000000%,0.000000%,0.000000%); stroke-width: 0.500000;stroke-linecap: round;stroke-linejoin: round;stroke-miterlimit: 10.000000;fill: none;"></path>
  <g transform="translate(2.746704 87.105377)" style="fill: rgb(0.000000%,0.000000%,0.000000%);">
    <use xlink:href="#GLYPHcmr10_99"></use>
  </g>
  <path d="M38.976379 56.614197C38.976379 55.110550,38.378967 53.668655,37.315796 52.605499C36.252640 51.542328,34.810745 50.944916,33.307098 50.944916C31.803452 50.944916,30.361557 51.542328,29.298401 52.605499C28.235229 53.668655,27.637817 55.110550,27.637817 56.614197C27.637817 58.117844,28.235229 59.559738,29.298401 60.622894C30.361557 61.686066,31.803452 62.283478,33.307098 62.283478C34.810745 62.283478,36.252640 61.686066,37.315796 60.622894C38.378967 59.559738,38.976379 58.117844,38.976379 56.614197Z" style="fill: rgb(100.000000%,100.000000%,100.000000%);stroke: none;"></path>
  <path d="M38.976379 56.614197C38.976379 55.110550,38.378967 53.668655,37.315796 52.605499C36.252640 51.542328,34.810745 50.944916,33.307098 50.944916C31.803452 50.944916,30.361557 51.542328,29.298401 52.605499C28.235229 53.668655,27.637817 55.110550,27.637817 56.614197C27.637817 58.117844,28.235229 59.559738,29.298401 60.622894C30.361557 61.686066,31.803452 62.283478,33.307098 62.283478C34.810745 62.283478,36.252640 61.686066,37.315796 60.622894C38.378967 59.559738,38.976379 58.117844,38.976379 56.614197Z" style="stroke:rgb(0.000000%,0.000000%,0.000000%); stroke-width: 0.500000;stroke-linecap: round;stroke-linejoin: round;stroke-miterlimit: 10.000000;fill: none;"></path>
  <g transform="translate(30.539688 60.073456)" style="fill: rgb(0.000000%,0.000000%,0.000000%);">
    <use xlink:href="#GLYPHcmr10_100"></use>
  </g>
  <path d="M152.362183 170.000000C152.362183 168.496353,151.764771 167.054459,150.701599 165.991302C149.638443 164.928131,148.196548 164.330719,146.692902 164.330719C145.189255 164.330719,143.747360 164.928131,142.684204 165.991302C141.621033 167.054459,141.023621 168.496353,141.023621 170.000000C141.023621 171.503647,141.621033 172.945541,142.684204 174.008698C143.747360 175.071869,145.189255 175.669281,146.692902 175.669281C148.196548 175.669281,149.638443 175.071869,150.701599 174.008698C151.764771 172.945541,152.362183 171.503647,152.362183 170.000000Z" style="fill: rgb(100.000000%,100.000000%,100.000000%);stroke: none;"></path>
  <path d="M152.362183 170.000000C152.362183 168.496353,151.764771 167.054459,150.701599 165.991302C149.638443 164.928131,148.196548 164.330719,146.692902 164.330719C145.189255 164.330719,143.747360 164.928131,142.684204 165.991302C141.621033 167.054459,141.023621 168.496353,141.023621 170.000000C141.023621 171.503647,141.621033 172.945541,142.684204 174.008698C143.747360 175.071869,145.189255 175.669281,146.692902 175.669281C148.196548 175.669281,149.638443 175.071869,150.701599 174.008698C151.764771 172.945541,152.362183 171.503647,152.362183 170.000000Z" style="stroke:rgb(0.000000%,0.000000%,0.000000%); stroke-width: 0.500000;stroke-linecap: round;stroke-linejoin: round;stroke-miterlimit: 10.000000;fill: none;"></path>
  <g transform="translate(142.818527 173.459259)" style="fill: rgb(0.000000%,0.000000%,0.000000%);">
    <use xlink:href="#GLYPHcmr10_97"></use>
    <use xlink:href="#GLYPHcmr10_39" x="5.000095"></use>
  </g>
  <path d="M180.708649 170.000000C180.708649 168.496353,180.111237 167.054459,179.048065 165.991302C177.984909 164.928131,176.543015 164.330719,175.039368 164.330719C173.535721 164.330719,172.093826 164.928131,171.030670 165.991302C169.967499 167.054459,169.370087 168.496353,169.370087 170.000000C169.370087 171.503647,169.967499 172.945541,171.030670 174.008698C172.093826 175.071869,173.535721 175.669281,175.039368 175.669281C176.543015 175.669281,177.984909 175.071869,179.048065 174.008698C180.111237 172.945541,180.708649 171.503647,180.708649 170.000000Z" style="fill: rgb(100.000000%,100.000000%,100.000000%);stroke: none;"></path>
  <path d="M180.708649 170.000000C180.708649 168.496353,180.111237 167.054459,179.048065 165.991302C177.984909 164.928131,176.543015 164.330719,175.039368 164.330719C173.535721 164.330719,172.093826 164.928131,171.030670 165.991302C169.967499 167.054459,169.370087 168.496353,169.370087 170.000000C169.370087 171.503647,169.967499 172.945541,171.030670 174.008698C172.093826 175.071869,173.535721 175.669281,175.039368 175.669281C176.543015 175.669281,177.984909 175.071869,179.048065 174.008698C180.111237 172.945541,180.708649 171.503647,180.708649 170.000000Z" style="stroke:rgb(0.000000%,0.000000%,0.000000%); stroke-width: 0.500000;stroke-linecap: round;stroke-linejoin: round;stroke-miterlimit: 10.000000;fill: none;"></path>
  <g transform="translate(170.888245 173.459259)" style="fill: rgb(0.000000%,0.000000%,0.000000%);">
    <use xlink:href="#GLYPHcmr10_98"></use>
    <use xlink:href="#GLYPHcmr10_39" x="5.555661"></use>
  </g>
  <path d="M180.708649 84.960632C180.708649 83.456985,180.111237 82.015091,179.048065 80.951935C177.984909 79.888763,176.543015 79.291351,175.039368 79.291351C173.535721 79.291351,172.093826 79.888763,171.030670 80.951935C169.967499 82.015091,169.370087 83.456985,169.370087 84.960632C169.370087 86.464279,169.967499 87.906174,171.030670 88.969330C172.093826 90.032501,173.535721 90.629913,175.039368 90.629913C176.543015 90.629913,177.984909 90.032501,179.048065 88.969330C180.111237 87.906174,180.708649 86.464279,180.708649 84.960632Z" style="fill: rgb(100.000000%,100.000000%,100.000000%);stroke: none;"></path>
  <path d="M180.708649 84.960632C180.708649 83.456985,180.111237 82.015091,179.048065 80.951935C177.984909 79.888763,176.543015 79.291351,175.039368 79.291351C173.535721 79.291351,172.093826 79.888763,171.030670 80.951935C169.967499 82.015091,169.370087 83.456985,169.370087 84.960632C169.370087 86.464279,169.967499 87.906174,171.030670 88.969330C172.093826 90.032501,173.535721 90.629913,175.039368 90.629913C176.543015 90.629913,177.984909 90.032501,179.048065 88.969330C180.111237 87.906174,180.708649 86.464279,180.708649 84.960632Z" style="stroke:rgb(0.000000%,0.000000%,0.000000%); stroke-width: 0.500000;stroke-linecap: round;stroke-linejoin: round;stroke-miterlimit: 10.000000;fill: none;"></path>
  <g transform="translate(171.441727 88.419891)" style="fill: rgb(0.000000%,0.000000%,0.000000%);">
    <use xlink:href="#GLYPHcmr10_99"></use>
    <use xlink:href="#GLYPHcmr10_39" x="4.444529"></use>
  </g>
  <path d="M152.362183 56.614197C152.362183 55.110550,151.764771 53.668655,150.701599 52.605499C149.638443 51.542328,148.196548 50.944916,146.692902 50.944916C145.189255 50.944916,143.747360 51.542328,142.684204 52.605499C141.621033 53.668655,141.023621 55.110550,141.023621 56.614197C141.023621 58.117844,141.621033 59.559738,142.684204 60.622894C143.747360 61.686066,145.189255 62.283478,146.692902 62.283478C148.196548 62.283478,149.638443 61.686066,150.701599 60.622894C151.764771 59.559738,152.362183 58.117844,152.362183 56.614197Z" style="fill: rgb(100.000000%,100.000000%,100.000000%);stroke: none;"></path>
  <path d="M152.362183 56.614197C152.362183 55.110550,151.764771 53.668655,150.701599 52.605499C149.638443 51.542328,148.196548 50.944916,146.692902 50.944916C145.189255 50.944916,143.747360 51.542328,142.684204 52.605499C141.621033 53.668655,141.023621 55.110550,141.023621 56.614197C141.023621 58.117844,141.621033 59.559738,142.684204 60.622894C143.747360 61.686066,145.189255 62.283478,146.692902 62.283478C148.196548 62.283478,149.638443 61.686066,150.701599 60.622894C151.764771 59.559738,152.362183 58.117844,152.362183 56.614197Z" style="stroke:rgb(0.000000%,0.000000%,0.000000%); stroke-width: 0.500000;stroke-linecap: round;stroke-linejoin: round;stroke-miterlimit: 10.000000;fill: none;"></path>
  <g transform="translate(142.541779 60.073456)" style="fill: rgb(0.000000%,0.000000%,0.000000%);">
    <use xlink:href="#GLYPHcmr10_100"></use>
    <use xlink:href="#GLYPHcmr10_39" x="5.555661"></use>
  </g>
</svg>
