<?xml version="1.0"?>
<!-- Created by MetaPost 1.803 on 2016.06.02:2102 -->
<svg version="1.1" xmlns="http://www.w3.org/2000/svg" xmlns:xlink="http://www.w3.org/1999/xlink" width="170.578003" height="68.531494" viewBox="0 0 170.578003 68.531494">
<!-- Original BoundingBox: -85.289001 -34.265747 85.289001 34.265747 -->
  <defs>
    <g transform="scale(0.009963,0.009963)" id="GLYPHcmr10_39">
      <path style="fill-rule: evenodd;" d="M206.000000 -589.000000C206.000000 -649.000000,182.000000 -694.000000,139.000000 -694.000000C104.000000 -694.000000,86.000000 -667.000000,86.000000 -641.000000C86.000000 -615.000000,103.000000 -588.000000,139.000000 -588.000000C159.000000 -588.000000,173.000000 -598.000000,179.000000 -604.000000C180.000000 -606.000000,181.000000 -607.000000,182.000000 -607.000000C184.000000 -607.000000,184.000000 -593.000000,184.000000 -589.000000C184.000000 -557.000000,177.000000 -485.000000,114.000000 -423.000000C102.000000 -411.000000,102.000000 -409.000000,102.000000 -406.000000C102.000000 -399.000000,107.000000 -395.000000,112.000000 -395.000000C123.000000 -395.000000,206.000000 -471.000000,206.000000 -589.000000"></path>
    </g>
    <g transform="scale(0.009963,0.009963)" id="GLYPHcmr10_97">
      <path style="fill-rule: evenodd;" d="M333.000000 -76.000000C337.000000 -36.000000,364.000000 6.000000,411.000000 6.000000C432.000000 6.000000,493.000000 -8.000000,493.000000 -89.000000L493.000000 -145.000000L468.000000 -145.000000L468.000000 -89.000000C468.000000 -31.000000,443.000000 -25.000000,432.000000 -25.000000C399.000000 -25.000000,395.000000 -70.000000,395.000000 -75.000000L395.000000 -275.000000C395.000000 -317.000000,395.000000 -356.000000,359.000000 -393.000000C320.000000 -432.000000,270.000000 -448.000000,222.000000 -448.000000C140.000000 -448.000000,71.000000 -401.000000,71.000000 -335.000000C71.000000 -305.000000,91.000000 -288.000000,117.000000 -288.000000C145.000000 -288.000000,163.000000 -308.000000,163.000000 -334.000000C163.000000 -346.000000,158.000000 -379.000000,112.000000 -380.000000C139.000000 -415.000000,188.000000 -426.000000,220.000000 -426.000000C269.000000 -426.000000,326.000000 -387.000000,326.000000 -298.000000L326.000000 -261.000000C275.000000 -258.000000,205.000000 -255.000000,142.000000 -225.000000C67.000000 -191.000000,42.000000 -139.000000,42.000000 -95.000000C42.000000 -14.000000,139.000000 11.000000,202.000000 11.000000C268.000000 11.000000,314.000000 -29.000000,333.000000 -76.000000M326.000000 -240.000000L326.000000 -140.000000C326.000000 -45.000000,254.000000 -11.000000,209.000000 -11.000000C160.000000 -11.000000,119.000000 -46.000000,119.000000 -96.000000C119.000000 -151.000000,161.000000 -234.000000,326.000000 -240.000000"></path>
    </g>
    <g transform="scale(0.009963,0.009963)" id="GLYPHcmr10_98">
      <path style="fill-rule: evenodd;" d="M172.000000 -377.000000L172.000000 -694.000000L28.000000 -683.000000L28.000000 -652.000000C98.000000 -652.000000,106.000000 -645.000000,106.000000 -596.000000L106.000000 -0.000000L131.000000 -0.000000C132.000000 -1.000000,140.000000 -15.000000,167.000000 -62.000000C182.000000 -39.000000,224.000000 11.000000,298.000000 11.000000C417.000000 11.000000,521.000000 -87.000000,521.000000 -216.000000C521.000000 -343.000000,423.000000 -442.000000,309.000000 -442.000000C231.000000 -442.000000,188.000000 -395.000000,172.000000 -377.000000M175.000000 -114.000000L175.000000 -320.000000C175.000000 -339.000000,175.000000 -340.000000,186.000000 -356.000000C225.000000 -412.000000,280.000000 -420.000000,304.000000 -420.000000C349.000000 -420.000000,385.000000 -394.000000,409.000000 -356.000000C435.000000 -315.000000,438.000000 -258.000000,438.000000 -217.000000C438.000000 -180.000000,436.000000 -120.000000,407.000000 -75.000000C386.000000 -44.000000,348.000000 -11.000000,294.000000 -11.000000C249.000000 -11.000000,213.000000 -35.000000,189.000000 -72.000000C175.000000 -93.000000,175.000000 -96.000000,175.000000 -114.000000"></path>
    </g>
    <g transform="scale(0.009963,0.009963)" id="GLYPHcmr10_99">
      <path style="fill-rule: evenodd;" d="M117.000000 -218.000000C117.000000 -381.000000,199.000000 -423.000000,252.000000 -423.000000C261.000000 -423.000000,324.000000 -422.000000,359.000000 -386.000000C318.000000 -383.000000,312.000000 -353.000000,312.000000 -340.000000C312.000000 -314.000000,330.000000 -294.000000,358.000000 -294.000000C384.000000 -294.000000,404.000000 -311.000000,404.000000 -341.000000C404.000000 -409.000000,328.000000 -448.000000,251.000000 -448.000000C126.000000 -448.000000,34.000000 -340.000000,34.000000 -216.000000C34.000000 -88.000000,133.000000 11.000000,249.000000 11.000000C383.000000 11.000000,415.000000 -109.000000,415.000000 -119.000000C415.000000 -129.000000,405.000000 -129.000000,402.000000 -129.000000C393.000000 -129.000000,391.000000 -125.000000,389.000000 -119.000000C360.000000 -26.000000,295.000000 -14.000000,258.000000 -14.000000C205.000000 -14.000000,117.000000 -57.000000,117.000000 -218.000000"></path>
    </g>
    <g transform="scale(0.009963,0.009963)" id="GLYPHcmr10_100">
      <path style="fill-rule: evenodd;" d="M380.000000 -55.000000L380.000000 11.000000L527.000000 -0.000000L527.000000 -31.000000C457.000000 -31.000000,449.000000 -38.000000,449.000000 -87.000000L449.000000 -694.000000L305.000000 -683.000000L305.000000 -652.000000C375.000000 -652.000000,383.000000 -645.000000,383.000000 -596.000000L383.000000 -380.000000C354.000000 -416.000000,311.000000 -442.000000,257.000000 -442.000000C139.000000 -442.000000,34.000000 -344.000000,34.000000 -215.000000C34.000000 -88.000000,132.000000 11.000000,246.000000 11.000000C310.000000 11.000000,355.000000 -23.000000,380.000000 -55.000000M380.000000 -323.000000L380.000000 -118.000000C380.000000 -100.000000,380.000000 -98.000000,369.000000 -81.000000C339.000000 -33.000000,294.000000 -11.000000,251.000000 -11.000000C206.000000 -11.000000,170.000000 -37.000000,146.000000 -75.000000C120.000000 -116.000000,117.000000 -173.000000,117.000000 -214.000000C117.000000 -251.000000,119.000000 -311.000000,148.000000 -356.000000C169.000000 -387.000000,207.000000 -420.000000,261.000000 -420.000000C296.000000 -420.000000,338.000000 -405.000000,369.000000 -360.000000C380.000000 -343.000000,380.000000 -341.000000,380.000000 -323.000000"></path>
    </g>
    <g transform="scale(0.009963,0.009963)" id="GLYPHcmr10_101">
      <path style="fill-rule: evenodd;" d="M112.000000 -252.000000C118.000000 -401.000000,202.000000 -426.000000,236.000000 -426.000000C339.000000 -426.000000,349.000000 -291.000000,349.000000 -252.000000M111.000000 -231.000000L390.000000 -231.000000C412.000000 -231.000000,415.000000 -231.000000,415.000000 -252.000000C415.000000 -351.000000,361.000000 -448.000000,236.000000 -448.000000C120.000000 -448.000000,28.000000 -345.000000,28.000000 -220.000000C28.000000 -86.000000,133.000000 11.000000,248.000000 11.000000C370.000000 11.000000,415.000000 -100.000000,415.000000 -119.000000C415.000000 -129.000000,407.000000 -131.000000,402.000000 -131.000000C393.000000 -131.000000,391.000000 -125.000000,389.000000 -117.000000C354.000000 -14.000000,264.000000 -14.000000,254.000000 -14.000000C204.000000 -14.000000,164.000000 -44.000000,141.000000 -81.000000C111.000000 -129.000000,111.000000 -195.000000,111.000000 -231.000000"></path>
    </g>
  </defs>
  <path d="M39.645508 5.653534L16.968689 5.653534L16.968689 62.346466L39.645508 62.346466" style="stroke:rgb(0.000000%,0.000000%,0.000000%); stroke-width: 0.500000;stroke-linecap: round;stroke-linejoin: round;stroke-miterlimit: 10.000000;fill: none;"></path>
  <path d="M130.354492 5.653534L153.031311 5.653534L153.031311 62.346466L130.354492 62.346466" style="stroke:rgb(0.000000%,0.000000%,0.000000%); stroke-width: 0.500000;stroke-linecap: round;stroke-linejoin: round;stroke-miterlimit: 10.000000;fill: none;"></path>
  <path d="M5.630280 34.000000L164.369720 34.000000" style="stroke:rgb(0.000000%,0.000000%,0.000000%); stroke-width: 0.500000;stroke-linecap: round;stroke-dasharray: 3.000000 3.000000 ;stroke-linejoin: round;stroke-miterlimit: 10.000000;fill: none;"></path>
  <path d="M85.000000 34.000000L85.000000 19.826797" style="stroke:rgb(0.000000%,0.000000%,0.000000%); stroke-width: 2.000000;stroke-linecap: round;stroke-linejoin: round;stroke-miterlimit: 10.000000;fill: none;"></path>
  <path d="M86.530777 23.522324L85.000000 19.826797L83.469223 23.522324Z" style="stroke:rgb(0.000000%,0.000000%,0.000000%); stroke-width: 2.000000;fill: rgb(0.000000%,0.000000%,0.000000%);"></path>
  <path d="M85.000000 34.000000L99.173203 34.000000" style="stroke:rgb(0.000000%,0.000000%,0.000000%); stroke-width: 2.000000;stroke-linecap: round;stroke-linejoin: round;stroke-miterlimit: 10.000000;fill: none;"></path>
  <path d="M95.477676 35.530777L99.173203 34.000000L95.477676 32.469223Z" style="stroke:rgb(0.000000%,0.000000%,0.000000%); stroke-width: 2.000000;fill: rgb(0.000000%,0.000000%,0.000000%);"></path>
  <path d="M85.000000 34.000000L85.000000 34.000000" style="stroke:rgb(0.000000%,0.000000%,100.000000%); stroke-width: 0.500000;stroke-linecap: round;stroke-linejoin: round;stroke-miterlimit: 10.000000;fill: none;"></path>
  <path d="M85.000000 34.000000Z" style="stroke:rgb(0.000000%,0.000000%,100.000000%); stroke-width: 0.500000;fill: rgb(0.000000%,0.000000%,100.000000%);"></path>
  <path d="M45.314789 5.653534C45.314789 4.149887,44.717377 2.707993,43.654205 1.644836C42.591049 0.581665,41.149155 -0.015747,39.645508 -0.015747C38.141861 -0.015747,36.699966 0.581665,35.636810 1.644836C34.573639 2.707993,33.976227 4.149887,33.976227 5.653534C33.976227 7.157181,34.573639 8.599075,35.636810 9.662231C36.699966 10.725403,38.141861 11.322815,39.645508 11.322815C41.149155 11.322815,42.591049 10.725403,43.654205 9.662231C44.717377 8.599075,45.314789 7.157181,45.314789 5.653534Z" style="fill: rgb(100.000000%,100.000000%,100.000000%);stroke: none;"></path>
  <path d="M45.314789 5.653534C45.314789 4.149887,44.717377 2.707993,43.654205 1.644836C42.591049 0.581665,41.149155 -0.015747,39.645508 -0.015747C38.141861 -0.015747,36.699966 0.581665,35.636810 1.644836C34.573639 2.707993,33.976227 4.149887,33.976227 5.653534C33.976227 7.157181,34.573639 8.599075,35.636810 9.662231C36.699966 10.725403,38.141861 11.322815,39.645508 11.322815C41.149155 11.322815,42.591049 10.725403,43.654205 9.662231C44.717377 8.599075,45.314789 7.157181,45.314789 5.653534Z" style="stroke:rgb(0.000000%,0.000000%,0.000000%); stroke-width: 0.500000;stroke-linecap: round;stroke-linejoin: round;stroke-miterlimit: 10.000000;fill: none;"></path>
  <g transform="translate(37.154831 7.798279)" style="fill: rgb(0.000000%,0.000000%,0.000000%);">
    <use xlink:href="#GLYPHcmr10_97"></use>
  </g>
  <path d="M22.637970 5.653534C22.637970 4.149887,22.040558 2.707993,20.977386 1.644836C19.914230 0.581665,18.472336 -0.015747,16.968689 -0.015747C15.465042 -0.015747,14.023148 0.581665,12.959991 1.644836C11.896820 2.707993,11.299408 4.149887,11.299408 5.653534C11.299408 7.157181,11.896820 8.599075,12.959991 9.662231C14.023148 10.725403,15.465042 11.322815,16.968689 11.322815C18.472336 11.322815,19.914230 10.725403,20.977386 9.662231C22.040558 8.599075,22.637970 7.157181,22.637970 5.653534Z" style="fill: rgb(100.000000%,100.000000%,100.000000%);stroke: none;"></path>
  <path d="M22.637970 5.653534C22.637970 4.149887,22.040558 2.707993,20.977386 1.644836C19.914230 0.581665,18.472336 -0.015747,16.968689 -0.015747C15.465042 -0.015747,14.023148 0.581665,12.959991 1.644836C11.896820 2.707993,11.299408 4.149887,11.299408 5.653534C11.299408 7.157181,11.896820 8.599075,12.959991 9.662231C14.023148 10.725403,15.465042 11.322815,16.968689 11.322815C18.472336 11.322815,19.914230 10.725403,20.977386 9.662231C22.040558 8.599075,22.637970 7.157181,22.637970 5.653534Z" style="stroke:rgb(0.000000%,0.000000%,0.000000%); stroke-width: 0.500000;stroke-linecap: round;stroke-linejoin: round;stroke-miterlimit: 10.000000;fill: none;"></path>
  <g transform="translate(14.201279 9.112793)" style="fill: rgb(0.000000%,0.000000%,0.000000%);">
    <use xlink:href="#GLYPHcmr10_98"></use>
  </g>
  <path d="M22.637970 62.346466C22.637970 60.842819,22.040558 59.400925,20.977386 58.337769C19.914230 57.274597,18.472336 56.677185,16.968689 56.677185C15.465042 56.677185,14.023148 57.274597,12.959991 58.337769C11.896820 59.400925,11.299408 60.842819,11.299408 62.346466C11.299408 63.850113,11.896820 65.292007,12.959991 66.355164C14.023148 67.418335,15.465042 68.015747,16.968689 68.015747C18.472336 68.015747,19.914230 67.418335,20.977386 66.355164C22.040558 65.292007,22.637970 63.850113,22.637970 62.346466Z" style="fill: rgb(100.000000%,100.000000%,100.000000%);stroke: none;"></path>
  <path d="M22.637970 62.346466C22.637970 60.842819,22.040558 59.400925,20.977386 58.337769C19.914230 57.274597,18.472336 56.677185,16.968689 56.677185C15.465042 56.677185,14.023148 57.274597,12.959991 58.337769C11.896820 59.400925,11.299408 60.842819,11.299408 62.346466C11.299408 63.850113,11.896820 65.292007,12.959991 66.355164C14.023148 67.418335,15.465042 68.015747,16.968689 68.015747C18.472336 68.015747,19.914230 67.418335,20.977386 66.355164C22.040558 65.292007,22.637970 63.850113,22.637970 62.346466Z" style="stroke:rgb(0.000000%,0.000000%,0.000000%); stroke-width: 0.500000;stroke-linecap: round;stroke-linejoin: round;stroke-miterlimit: 10.000000;fill: none;"></path>
  <g transform="translate(14.754761 64.491211)" style="fill: rgb(0.000000%,0.000000%,0.000000%);">
    <use xlink:href="#GLYPHcmr10_99"></use>
  </g>
  <path d="M45.314789 62.346466C45.314789 60.842819,44.717377 59.400925,43.654205 58.337769C42.591049 57.274597,41.149155 56.677185,39.645508 56.677185C38.141861 56.677185,36.699966 57.274597,35.636810 58.337769C34.573639 59.400925,33.976227 60.842819,33.976227 62.346466C33.976227 63.850113,34.573639 65.292007,35.636810 66.355164C36.699966 67.418335,38.141861 68.015747,39.645508 68.015747C41.149155 68.015747,42.591049 67.418335,43.654205 66.355164C44.717377 65.292007,45.314789 63.850113,45.314789 62.346466Z" style="fill: rgb(100.000000%,100.000000%,100.000000%);stroke: none;"></path>
  <path d="M45.314789 62.346466C45.314789 60.842819,44.717377 59.400925,43.654205 58.337769C42.591049 57.274597,41.149155 56.677185,39.645508 56.677185C38.141861 56.677185,36.699966 57.274597,35.636810 58.337769C34.573639 59.400925,33.976227 60.842819,33.976227 62.346466C33.976227 63.850113,34.573639 65.292007,35.636810 66.355164C36.699966 67.418335,38.141861 68.015747,39.645508 68.015747C41.149155 68.015747,42.591049 67.418335,43.654205 66.355164C44.717377 65.292007,45.314789 63.850113,45.314789 62.346466Z" style="stroke:rgb(0.000000%,0.000000%,0.000000%); stroke-width: 0.500000;stroke-linecap: round;stroke-linejoin: round;stroke-miterlimit: 10.000000;fill: none;"></path>
  <g transform="translate(36.878098 65.805725)" style="fill: rgb(0.000000%,0.000000%,0.000000%);">
    <use xlink:href="#GLYPHcmr10_100"></use>
  </g>
  <path d="M11.299561 34.000000C11.299561 32.496353,10.702148 31.054459,9.638977 29.991302C8.575821 28.928131,7.133926 28.330719,5.630280 28.330719C4.126633 28.330719,2.684738 28.928131,1.621582 29.991302C0.558411 31.054459,-0.039001 32.496353,-0.039001 34.000000C-0.039001 35.503647,0.558411 36.945541,1.621582 38.008698C2.684738 39.071869,4.126633 39.669281,5.630280 39.669281C7.133926 39.669281,8.575821 39.071869,9.638977 38.008698C10.702148 36.945541,11.299561 35.503647,11.299561 34.000000Z" style="fill: rgb(100.000000%,100.000000%,100.000000%);stroke: none;"></path>
  <path d="M11.299561 34.000000C11.299561 32.496353,10.702148 31.054459,9.638977 29.991302C8.575821 28.928131,7.133926 28.330719,5.630280 28.330719C4.126633 28.330719,2.684738 28.928131,1.621582 29.991302C0.558411 31.054459,-0.039001 32.496353,-0.039001 34.000000C-0.039001 35.503647,0.558411 36.945541,1.621582 38.008698C2.684738 39.071869,4.126633 39.669281,5.630280 39.669281C7.133926 39.669281,8.575821 39.071869,9.638977 38.008698C10.702148 36.945541,11.299561 35.503647,11.299561 34.000000Z" style="stroke:rgb(0.000000%,0.000000%,0.000000%); stroke-width: 0.500000;stroke-linecap: round;stroke-linejoin: round;stroke-miterlimit: 10.000000;fill: none;"></path>
  <g transform="translate(3.416351 36.144745)" style="fill: rgb(0.000000%,0.000000%,0.000000%);">
    <use xlink:href="#GLYPHcmr10_101"></use>
  </g>
  <path d="M136.023773 5.653534C136.023773 4.149887,135.426361 2.707993,134.363190 1.644836C133.300034 0.581665,131.858139 -0.015747,130.354492 -0.015747C128.850845 -0.015747,127.408951 0.581665,126.345795 1.644836C125.282623 2.707993,124.685211 4.149887,124.685211 5.653534C124.685211 7.157181,125.282623 8.599075,126.345795 9.662231C127.408951 10.725403,128.850845 11.322815,130.354492 11.322815C131.858139 11.322815,133.300034 10.725403,134.363190 9.662231C135.426361 8.599075,136.023773 7.157181,136.023773 5.653534Z" style="fill: rgb(100.000000%,100.000000%,100.000000%);stroke: none;"></path>
  <path d="M136.023773 5.653534C136.023773 4.149887,135.426361 2.707993,134.363190 1.644836C133.300034 0.581665,131.858139 -0.015747,130.354492 -0.015747C128.850845 -0.015747,127.408951 0.581665,126.345795 1.644836C125.282623 2.707993,124.685211 4.149887,124.685211 5.653534C124.685211 7.157181,125.282623 8.599075,126.345795 9.662231C127.408951 10.725403,128.850845 11.322815,130.354492 11.322815C131.858139 11.322815,133.300034 10.725403,134.363190 9.662231C135.426361 8.599075,136.023773 7.157181,136.023773 5.653534Z" style="stroke:rgb(0.000000%,0.000000%,0.000000%); stroke-width: 0.500000;stroke-linecap: round;stroke-linejoin: round;stroke-miterlimit: 10.000000;fill: none;"></path>
  <g transform="translate(126.480118 9.112793)" style="fill: rgb(0.000000%,0.000000%,0.000000%);">
    <use xlink:href="#GLYPHcmr10_97"></use>
    <use xlink:href="#GLYPHcmr10_39" x="5.000095"></use>
  </g>
  <path d="M158.700592 5.653534C158.700592 4.149887,158.103180 2.707993,157.040009 1.644836C155.976852 0.581665,154.534958 -0.015747,153.031311 -0.015747C151.527664 -0.015747,150.085770 0.581665,149.022614 1.644836C147.959442 2.707993,147.362030 4.149887,147.362030 5.653534C147.362030 7.157181,147.959442 8.599075,149.022614 9.662231C150.085770 10.725403,151.527664 11.322815,153.031311 11.322815C154.534958 11.322815,155.976852 10.725403,157.040009 9.662231C158.103180 8.599075,158.700592 7.157181,158.700592 5.653534Z" style="fill: rgb(100.000000%,100.000000%,100.000000%);stroke: none;"></path>
  <path d="M158.700592 5.653534C158.700592 4.149887,158.103180 2.707993,157.040009 1.644836C155.976852 0.581665,154.534958 -0.015747,153.031311 -0.015747C151.527664 -0.015747,150.085770 0.581665,149.022614 1.644836C147.959442 2.707993,147.362030 4.149887,147.362030 5.653534C147.362030 7.157181,147.959442 8.599075,149.022614 9.662231C150.085770 10.725403,151.527664 11.322815,153.031311 11.322815C154.534958 11.322815,155.976852 10.725403,157.040009 9.662231C158.103180 8.599075,158.700592 7.157181,158.700592 5.653534Z" style="stroke:rgb(0.000000%,0.000000%,0.000000%); stroke-width: 0.500000;stroke-linecap: round;stroke-linejoin: round;stroke-miterlimit: 10.000000;fill: none;"></path>
  <g transform="translate(148.880188 9.112793)" style="fill: rgb(0.000000%,0.000000%,0.000000%);">
    <use xlink:href="#GLYPHcmr10_98"></use>
    <use xlink:href="#GLYPHcmr10_39" x="5.555661"></use>
  </g>
  <path d="M158.700592 62.346466C158.700592 60.842819,158.103180 59.400925,157.040009 58.337769C155.976852 57.274597,154.534958 56.677185,153.031311 56.677185C151.527664 56.677185,150.085770 57.274597,149.022614 58.337769C147.959442 59.400925,147.362030 60.842819,147.362030 62.346466C147.362030 63.850113,147.959442 65.292007,149.022614 66.355164C150.085770 67.418335,151.527664 68.015747,153.031311 68.015747C154.534958 68.015747,155.976852 67.418335,157.040009 66.355164C158.103180 65.292007,158.700592 63.850113,158.700592 62.346466Z" style="fill: rgb(100.000000%,100.000000%,100.000000%);stroke: none;"></path>
  <path d="M158.700592 62.346466C158.700592 60.842819,158.103180 59.400925,157.040009 58.337769C155.976852 57.274597,154.534958 56.677185,153.031311 56.677185C151.527664 56.677185,150.085770 57.274597,149.022614 58.337769C147.959442 59.400925,147.362030 60.842819,147.362030 62.346466C147.362030 63.850113,147.959442 65.292007,149.022614 66.355164C150.085770 67.418335,151.527664 68.015747,153.031311 68.015747C154.534958 68.015747,155.976852 67.418335,157.040009 66.355164C158.103180 65.292007,158.700592 63.850113,158.700592 62.346466Z" style="stroke:rgb(0.000000%,0.000000%,0.000000%); stroke-width: 0.500000;stroke-linecap: round;stroke-linejoin: round;stroke-miterlimit: 10.000000;fill: none;"></path>
  <g transform="translate(149.433670 65.805725)" style="fill: rgb(0.000000%,0.000000%,0.000000%);">
    <use xlink:href="#GLYPHcmr10_99"></use>
    <use xlink:href="#GLYPHcmr10_39" x="4.444529"></use>
  </g>
  <path d="M136.023773 62.346466C136.023773 60.842819,135.426361 59.400925,134.363190 58.337769C133.300034 57.274597,131.858139 56.677185,130.354492 56.677185C128.850845 56.677185,127.408951 57.274597,126.345795 58.337769C125.282623 59.400925,124.685211 60.842819,124.685211 62.346466C124.685211 63.850113,125.282623 65.292007,126.345795 66.355164C127.408951 67.418335,128.850845 68.015747,130.354492 68.015747C131.858139 68.015747,133.300034 67.418335,134.363190 66.355164C135.426361 65.292007,136.023773 63.850113,136.023773 62.346466Z" style="fill: rgb(100.000000%,100.000000%,100.000000%);stroke: none;"></path>
  <path d="M136.023773 62.346466C136.023773 60.842819,135.426361 59.400925,134.363190 58.337769C133.300034 57.274597,131.858139 56.677185,130.354492 56.677185C128.850845 56.677185,127.408951 57.274597,126.345795 58.337769C125.282623 59.400925,124.685211 60.842819,124.685211 62.346466C124.685211 63.850113,125.282623 65.292007,126.345795 66.355164C127.408951 67.418335,128.850845 68.015747,130.354492 68.015747C131.858139 68.015747,133.300034 67.418335,134.363190 66.355164C135.426361 65.292007,136.023773 63.850113,136.023773 62.346466Z" style="stroke:rgb(0.000000%,0.000000%,0.000000%); stroke-width: 0.500000;stroke-linecap: round;stroke-linejoin: round;stroke-miterlimit: 10.000000;fill: none;"></path>
  <g transform="translate(126.203369 65.805725)" style="fill: rgb(0.000000%,0.000000%,0.000000%);">
    <use xlink:href="#GLYPHcmr10_100"></use>
    <use xlink:href="#GLYPHcmr10_39" x="5.555661"></use>
  </g>
  <path d="M170.039001 34.000000C170.039001 32.496353,169.441589 31.054459,168.378418 29.991302C167.315262 28.928131,165.873367 28.330719,164.369720 28.330719C162.866074 28.330719,161.424179 28.928131,160.361023 29.991302C159.297852 31.054459,158.700439 32.496353,158.700439 34.000000C158.700439 35.503647,159.297852 36.945541,160.361023 38.008698C161.424179 39.071869,162.866074 39.669281,164.369720 39.669281C165.873367 39.669281,167.315262 39.071869,168.378418 38.008698C169.441589 36.945541,170.039001 35.503647,170.039001 34.000000Z" style="fill: rgb(100.000000%,100.000000%,100.000000%);stroke: none;"></path>
  <path d="M170.039001 34.000000C170.039001 32.496353,169.441589 31.054459,168.378418 29.991302C167.315262 28.928131,165.873367 28.330719,164.369720 28.330719C162.866074 28.330719,161.424179 28.928131,160.361023 29.991302C159.297852 31.054459,158.700439 32.496353,158.700439 34.000000C158.700439 35.503647,159.297852 36.945541,160.361023 38.008698C161.424179 39.071869,162.866074 39.669281,164.369720 39.669281C165.873367 39.669281,167.315262 39.071869,168.378418 38.008698C169.441589 36.945541,170.039001 35.503647,170.039001 34.000000Z" style="stroke:rgb(0.000000%,0.000000%,0.000000%); stroke-width: 0.500000;stroke-linecap: round;stroke-linejoin: round;stroke-miterlimit: 10.000000;fill: none;"></path>
  <g transform="translate(160.772079 37.459259)" style="fill: rgb(0.000000%,0.000000%,0.000000%);">
    <use xlink:href="#GLYPHcmr10_101"></use>
    <use xlink:href="#GLYPHcmr10_39" x="4.444529"></use>
  </g>
</svg>
