<?xml version="1.0"?>
<!-- Created by MetaPost 1.803 on 2016.06.02:2102 -->
<svg version="1.1" xmlns="http://www.w3.org/2000/svg" xmlns:xlink="http://www.w3.org/1999/xlink" width="443.180847" height="168.533142" viewBox="0 0 443.180847 168.533142">
<!-- Original BoundingBox: -221.590424 -62.612213 221.590424 105.920929 -->
  <defs>
    <g transform="scale(0.009963,0.009963)" id="GLYPHcmr10_39">
      <path style="fill-rule: evenodd;" d="M206.000000 -589.000000C206.000000 -649.000000,182.000000 -694.000000,139.000000 -694.000000C104.000000 -694.000000,86.000000 -667.000000,86.000000 -641.000000C86.000000 -615.000000,103.000000 -588.000000,139.000000 -588.000000C159.000000 -588.000000,173.000000 -598.000000,179.000000 -604.000000C180.000000 -606.000000,181.000000 -607.000000,182.000000 -607.000000C184.000000 -607.000000,184.000000 -593.000000,184.000000 -589.000000C184.000000 -557.000000,177.000000 -485.000000,114.000000 -423.000000C102.000000 -411.000000,102.000000 -409.000000,102.000000 -406.000000C102.000000 -399.000000,107.000000 -395.000000,112.000000 -395.000000C123.000000 -395.000000,206.000000 -471.000000,206.000000 -589.000000"></path>
    </g>
    <g transform="scale(0.009963,0.009963)" id="GLYPHcmr10_97">
      <path style="fill-rule: evenodd;" d="M333.000000 -76.000000C337.000000 -36.000000,364.000000 6.000000,411.000000 6.000000C432.000000 6.000000,493.000000 -8.000000,493.000000 -89.000000L493.000000 -145.000000L468.000000 -145.000000L468.000000 -89.000000C468.000000 -31.000000,443.000000 -25.000000,432.000000 -25.000000C399.000000 -25.000000,395.000000 -70.000000,395.000000 -75.000000L395.000000 -275.000000C395.000000 -317.000000,395.000000 -356.000000,359.000000 -393.000000C320.000000 -432.000000,270.000000 -448.000000,222.000000 -448.000000C140.000000 -448.000000,71.000000 -401.000000,71.000000 -335.000000C71.000000 -305.000000,91.000000 -288.000000,117.000000 -288.000000C145.000000 -288.000000,163.000000 -308.000000,163.000000 -334.000000C163.000000 -346.000000,158.000000 -379.000000,112.000000 -380.000000C139.000000 -415.000000,188.000000 -426.000000,220.000000 -426.000000C269.000000 -426.000000,326.000000 -387.000000,326.000000 -298.000000L326.000000 -261.000000C275.000000 -258.000000,205.000000 -255.000000,142.000000 -225.000000C67.000000 -191.000000,42.000000 -139.000000,42.000000 -95.000000C42.000000 -14.000000,139.000000 11.000000,202.000000 11.000000C268.000000 11.000000,314.000000 -29.000000,333.000000 -76.000000M326.000000 -240.000000L326.000000 -140.000000C326.000000 -45.000000,254.000000 -11.000000,209.000000 -11.000000C160.000000 -11.000000,119.000000 -46.000000,119.000000 -96.000000C119.000000 -151.000000,161.000000 -234.000000,326.000000 -240.000000"></path>
    </g>
    <g transform="scale(0.009963,0.009963)" id="GLYPHcmr10_98">
      <path style="fill-rule: evenodd;" d="M172.000000 -377.000000L172.000000 -694.000000L28.000000 -683.000000L28.000000 -652.000000C98.000000 -652.000000,106.000000 -645.000000,106.000000 -596.000000L106.000000 -0.000000L131.000000 -0.000000C132.000000 -1.000000,140.000000 -15.000000,167.000000 -62.000000C182.000000 -39.000000,224.000000 11.000000,298.000000 11.000000C417.000000 11.000000,521.000000 -87.000000,521.000000 -216.000000C521.000000 -343.000000,423.000000 -442.000000,309.000000 -442.000000C231.000000 -442.000000,188.000000 -395.000000,172.000000 -377.000000M175.000000 -114.000000L175.000000 -320.000000C175.000000 -339.000000,175.000000 -340.000000,186.000000 -356.000000C225.000000 -412.000000,280.000000 -420.000000,304.000000 -420.000000C349.000000 -420.000000,385.000000 -394.000000,409.000000 -356.000000C435.000000 -315.000000,438.000000 -258.000000,438.000000 -217.000000C438.000000 -180.000000,436.000000 -120.000000,407.000000 -75.000000C386.000000 -44.000000,348.000000 -11.000000,294.000000 -11.000000C249.000000 -11.000000,213.000000 -35.000000,189.000000 -72.000000C175.000000 -93.000000,175.000000 -96.000000,175.000000 -114.000000"></path>
    </g>
    <g transform="scale(0.009963,0.009963)" id="GLYPHcmr10_99">
      <path style="fill-rule: evenodd;" d="M117.000000 -218.000000C117.000000 -381.000000,199.000000 -423.000000,252.000000 -423.000000C261.000000 -423.000000,324.000000 -422.000000,359.000000 -386.000000C318.000000 -383.000000,312.000000 -353.000000,312.000000 -340.000000C312.000000 -314.000000,330.000000 -294.000000,358.000000 -294.000000C384.000000 -294.000000,404.000000 -311.000000,404.000000 -341.000000C404.000000 -409.000000,328.000000 -448.000000,251.000000 -448.000000C126.000000 -448.000000,34.000000 -340.000000,34.000000 -216.000000C34.000000 -88.000000,133.000000 11.000000,249.000000 11.000000C383.000000 11.000000,415.000000 -109.000000,415.000000 -119.000000C415.000000 -129.000000,405.000000 -129.000000,402.000000 -129.000000C393.000000 -129.000000,391.000000 -125.000000,389.000000 -119.000000C360.000000 -26.000000,295.000000 -14.000000,258.000000 -14.000000C205.000000 -14.000000,117.000000 -57.000000,117.000000 -218.000000"></path>
    </g>
    <g transform="scale(0.009963,0.009963)" id="GLYPHcmr10_100">
      <path style="fill-rule: evenodd;" d="M380.000000 -55.000000L380.000000 11.000000L527.000000 -0.000000L527.000000 -31.000000C457.000000 -31.000000,449.000000 -38.000000,449.000000 -87.000000L449.000000 -694.000000L305.000000 -683.000000L305.000000 -652.000000C375.000000 -652.000000,383.000000 -645.000000,383.000000 -596.000000L383.000000 -380.000000C354.000000 -416.000000,311.000000 -442.000000,257.000000 -442.000000C139.000000 -442.000000,34.000000 -344.000000,34.000000 -215.000000C34.000000 -88.000000,132.000000 11.000000,246.000000 11.000000C310.000000 11.000000,355.000000 -23.000000,380.000000 -55.000000M380.000000 -323.000000L380.000000 -118.000000C380.000000 -100.000000,380.000000 -98.000000,369.000000 -81.000000C339.000000 -33.000000,294.000000 -11.000000,251.000000 -11.000000C206.000000 -11.000000,170.000000 -37.000000,146.000000 -75.000000C120.000000 -116.000000,117.000000 -173.000000,117.000000 -214.000000C117.000000 -251.000000,119.000000 -311.000000,148.000000 -356.000000C169.000000 -387.000000,207.000000 -420.000000,261.000000 -420.000000C296.000000 -420.000000,338.000000 -405.000000,369.000000 -360.000000C380.000000 -343.000000,380.000000 -341.000000,380.000000 -323.000000"></path>
    </g>
    <g transform="scale(0.009963,0.009963)" id="GLYPHcmr10_101">
      <path style="fill-rule: evenodd;" d="M112.000000 -252.000000C118.000000 -401.000000,202.000000 -426.000000,236.000000 -426.000000C339.000000 -426.000000,349.000000 -291.000000,349.000000 -252.000000M111.000000 -231.000000L390.000000 -231.000000C412.000000 -231.000000,415.000000 -231.000000,415.000000 -252.000000C415.000000 -351.000000,361.000000 -448.000000,236.000000 -448.000000C120.000000 -448.000000,28.000000 -345.000000,28.000000 -220.000000C28.000000 -86.000000,133.000000 11.000000,248.000000 11.000000C370.000000 11.000000,415.000000 -100.000000,415.000000 -119.000000C415.000000 -129.000000,407.000000 -131.000000,402.000000 -131.000000C393.000000 -131.000000,391.000000 -125.000000,389.000000 -117.000000C354.000000 -14.000000,264.000000 -14.000000,254.000000 -14.000000C204.000000 -14.000000,164.000000 -44.000000,141.000000 -81.000000C111.000000 -129.000000,111.000000 -195.000000,111.000000 -231.000000"></path>
    </g>
    <g transform="scale(0.009963,0.009963)" id="GLYPHcmr10_111">
      <path style="fill-rule: evenodd;" d="M471.000000 -214.000000C471.000000 -342.000000,371.000000 -448.000000,250.000000 -448.000000C125.000000 -448.000000,28.000000 -339.000000,28.000000 -214.000000C28.000000 -85.000000,132.000000 11.000000,249.000000 11.000000C370.000000 11.000000,471.000000 -87.000000,471.000000 -214.000000M250.000000 -14.000000C207.000000 -14.000000,163.000000 -35.000000,136.000000 -81.000000C111.000000 -125.000000,111.000000 -186.000000,111.000000 -222.000000C111.000000 -261.000000,111.000000 -315.000000,135.000000 -359.000000C162.000000 -405.000000,209.000000 -426.000000,249.000000 -426.000000C293.000000 -426.000000,336.000000 -404.000000,362.000000 -361.000000C388.000000 -318.000000,388.000000 -260.000000,388.000000 -222.000000C388.000000 -186.000000,388.000000 -132.000000,366.000000 -88.000000C344.000000 -43.000000,300.000000 -14.000000,250.000000 -14.000000"></path>
    </g>
  </defs>
  <path d="M221.000000 139.016113L173.043030 104.173096L187.676819 59.134216L254.323181 59.134216L268.956970 104.173096Z" style="stroke:rgb(0.000000%,0.000000%,0.000000%); stroke-width: 0.500000;stroke-linecap: round;stroke-linejoin: round;stroke-miterlimit: 10.000000;fill: none;"></path>
  <path d="M167.082214 122.519287L5.328857 4.998352L180.359924 81.653625" style="stroke:rgb(0.000000%,0.000000%,0.000000%); stroke-width: 0.500000;stroke-linecap: round;stroke-linejoin: round;stroke-miterlimit: 10.000000;fill: none;"></path>
  <path d="M274.917786 122.519287L436.671143 4.998352L261.640076 81.653625" style="stroke:rgb(0.000000%,0.000000%,0.000000%); stroke-width: 0.500000;stroke-linecap: round;stroke-linejoin: round;stroke-miterlimit: 10.000000;fill: none;"></path>
  <path d="M221.000000 161.692932L167.082214 122.519287L173.043030 104.173096" style="stroke:rgb(0.000000%,0.000000%,0.000000%); stroke-width: 0.500000;stroke-linecap: round;stroke-linejoin: round;stroke-miterlimit: 10.000000;fill: none;"></path>
  <path d="M221.000000 161.692932L274.917786 122.519287L268.956970 104.173096" style="stroke:rgb(0.000000%,0.000000%,0.000000%); stroke-width: 0.500000;stroke-linecap: round;stroke-linejoin: round;stroke-miterlimit: 10.000000;fill: none;"></path>
  <path d="M221.000000 161.692932L221.000000 139.016113" style="stroke:rgb(0.000000%,0.000000%,0.000000%); stroke-width: 0.500000;stroke-linecap: round;stroke-linejoin: round;stroke-miterlimit: 10.000000;fill: none;"></path>
  <path d="M221.000000 105.000000L221.000000 90.826797" style="stroke:rgb(0.000000%,0.000000%,0.000000%); stroke-width: 2.000000;stroke-linecap: round;stroke-linejoin: round;stroke-miterlimit: 10.000000;fill: none;"></path>
  <path d="M222.530777 94.522324L221.000000 90.826797L219.469223 94.522324Z" style="stroke:rgb(0.000000%,0.000000%,0.000000%); stroke-width: 2.000000;fill: rgb(0.000000%,0.000000%,0.000000%);"></path>
  <path d="M221.000000 105.000000L235.173203 105.000000" style="stroke:rgb(0.000000%,0.000000%,0.000000%); stroke-width: 2.000000;stroke-linecap: round;stroke-linejoin: round;stroke-miterlimit: 10.000000;fill: none;"></path>
  <path d="M231.477676 106.530777L235.173203 105.000000L231.477676 103.469223Z" style="stroke:rgb(0.000000%,0.000000%,0.000000%); stroke-width: 2.000000;fill: rgb(0.000000%,0.000000%,0.000000%);"></path>
  <path d="M221.000000 105.000000L221.000000 105.000000" style="stroke:rgb(0.000000%,0.000000%,100.000000%); stroke-width: 0.500000;stroke-linecap: round;stroke-linejoin: round;stroke-miterlimit: 10.000000;fill: none;"></path>
  <path d="M221.000000 105.000000Z" style="stroke:rgb(0.000000%,0.000000%,100.000000%); stroke-width: 0.500000;fill: rgb(0.000000%,0.000000%,100.000000%);"></path>
  <path d="M172.751495 122.519287C172.751495 121.015640,172.154083 119.573746,171.090912 118.510590C170.027756 117.447418,168.585861 116.850006,167.082214 116.850006C165.578568 116.850006,164.136673 117.447418,163.073517 118.510590C162.010345 119.573746,161.412933 121.015640,161.412933 122.519287C161.412933 124.022934,162.010345 125.464828,163.073517 126.527985C164.136673 127.591156,165.578568 128.188568,167.082214 128.188568C168.585861 128.188568,170.027756 127.591156,171.090912 126.527985C172.154083 125.464828,172.751495 124.022934,172.751495 122.519287Z" style="fill: rgb(100.000000%,100.000000%,100.000000%);stroke: none;"></path>
  <path d="M172.751495 122.519287C172.751495 121.015640,172.154083 119.573746,171.090912 118.510590C170.027756 117.447418,168.585861 116.850006,167.082214 116.850006C165.578568 116.850006,164.136673 117.447418,163.073517 118.510590C162.010345 119.573746,161.412933 121.015640,161.412933 122.519287C161.412933 124.022934,162.010345 125.464828,163.073517 126.527985C164.136673 127.591156,165.578568 128.188568,167.082214 128.188568C168.585861 128.188568,170.027756 127.591156,171.090912 126.527985C172.154083 125.464828,172.751495 124.022934,172.751495 122.519287Z" style="stroke:rgb(0.000000%,0.000000%,0.000000%); stroke-width: 0.500000;stroke-linecap: round;stroke-linejoin: round;stroke-miterlimit: 10.000000;fill: none;"></path>
  <g transform="translate(164.591537 124.664032)" style="fill: rgb(0.000000%,0.000000%,0.000000%);">
    <use xlink:href="#GLYPHcmr10_97"></use>
  </g>
  <path d="M178.712311 104.173096C178.712311 102.669449,178.114899 101.227554,177.051727 100.164398C175.988571 99.101227,174.546677 98.503815,173.043030 98.503815C171.539383 98.503815,170.097488 99.101227,169.034332 100.164398C167.971161 101.227554,167.373749 102.669449,167.373749 104.173096C167.373749 105.676743,167.971161 107.118637,169.034332 108.181793C170.097488 109.244965,171.539383 109.842377,173.043030 109.842377C174.546677 109.842377,175.988571 109.244965,177.051727 108.181793C178.114899 107.118637,178.712311 105.676743,178.712311 104.173096Z" style="fill: rgb(100.000000%,100.000000%,100.000000%);stroke: none;"></path>
  <path d="M178.712311 104.173096C178.712311 102.669449,178.114899 101.227554,177.051727 100.164398C175.988571 99.101227,174.546677 98.503815,173.043030 98.503815C171.539383 98.503815,170.097488 99.101227,169.034332 100.164398C167.971161 101.227554,167.373749 102.669449,167.373749 104.173096C167.373749 105.676743,167.971161 107.118637,169.034332 108.181793C170.097488 109.244965,171.539383 109.842377,173.043030 109.842377C174.546677 109.842377,175.988571 109.244965,177.051727 108.181793C178.114899 107.118637,178.712311 105.676743,178.712311 104.173096Z" style="stroke:rgb(0.000000%,0.000000%,0.000000%); stroke-width: 0.500000;stroke-linecap: round;stroke-linejoin: round;stroke-miterlimit: 10.000000;fill: none;"></path>
  <g transform="translate(170.275620 107.632355)" style="fill: rgb(0.000000%,0.000000%,0.000000%);">
    <use xlink:href="#GLYPHcmr10_98"></use>
  </g>
  <path d="M193.346100 59.134216C193.346100 57.630569,192.748688 56.188675,191.685516 55.125519C190.622360 54.062347,189.180466 53.464935,187.676819 53.464935C186.173172 53.464935,184.731277 54.062347,183.668121 55.125519C182.604950 56.188675,182.007538 57.630569,182.007538 59.134216C182.007538 60.637863,182.604950 62.079758,183.668121 63.142914C184.731277 64.206085,186.173172 64.803497,187.676819 64.803497C189.180466 64.803497,190.622360 64.206085,191.685516 63.142914C192.748688 62.079758,193.346100 60.637863,193.346100 59.134216Z" style="fill: rgb(100.000000%,100.000000%,100.000000%);stroke: none;"></path>
  <path d="M193.346100 59.134216C193.346100 57.630569,192.748688 56.188675,191.685516 55.125519C190.622360 54.062347,189.180466 53.464935,187.676819 53.464935C186.173172 53.464935,184.731277 54.062347,183.668121 55.125519C182.604950 56.188675,182.007538 57.630569,182.007538 59.134216C182.007538 60.637863,182.604950 62.079758,183.668121 63.142914C184.731277 64.206085,186.173172 64.803497,187.676819 64.803497C189.180466 64.803497,190.622360 64.206085,191.685516 63.142914C192.748688 62.079758,193.346100 60.637863,193.346100 59.134216Z" style="stroke:rgb(0.000000%,0.000000%,0.000000%); stroke-width: 0.500000;stroke-linecap: round;stroke-linejoin: round;stroke-miterlimit: 10.000000;fill: none;"></path>
  <g transform="translate(185.462891 61.278961)" style="fill: rgb(0.000000%,0.000000%,0.000000%);">
    <use xlink:href="#GLYPHcmr10_99"></use>
  </g>
  <path d="M10.998138 4.998352C10.998138 3.494705,10.400726 2.052811,9.337555 0.989655C8.274399 -0.073517,6.832504 -0.670929,5.328857 -0.670929C3.825211 -0.670929,2.383316 -0.073517,1.320160 0.989655C0.256989 2.052811,-0.340424 3.494705,-0.340424 4.998352C-0.340424 6.501999,0.256989 7.943893,1.320160 9.007050C2.383316 10.070221,3.825211 10.667633,5.328857 10.667633C6.832504 10.667633,8.274399 10.070221,9.337555 9.007050C10.400726 7.943893,10.998138 6.501999,10.998138 4.998352Z" style="fill: rgb(100.000000%,100.000000%,100.000000%);stroke: none;"></path>
  <path d="M10.998138 4.998352C10.998138 3.494705,10.400726 2.052811,9.337555 0.989655C8.274399 -0.073517,6.832504 -0.670929,5.328857 -0.670929C3.825211 -0.670929,2.383316 -0.073517,1.320160 0.989655C0.256989 2.052811,-0.340424 3.494705,-0.340424 4.998352C-0.340424 6.501999,0.256989 7.943893,1.320160 9.007050C2.383316 10.070221,3.825211 10.667633,5.328857 10.667633C6.832504 10.667633,8.274399 10.070221,9.337555 9.007050C10.400726 7.943893,10.998138 6.501999,10.998138 4.998352Z" style="stroke:rgb(0.000000%,0.000000%,0.000000%); stroke-width: 0.500000;stroke-linecap: round;stroke-linejoin: round;stroke-miterlimit: 10.000000;fill: none;"></path>
  <g transform="translate(2.561447 8.457611)" style="fill: rgb(0.000000%,0.000000%,0.000000%);">
    <use xlink:href="#GLYPHcmr10_100"></use>
  </g>
  <path d="M186.029205 81.653625C186.029205 80.149979,185.431793 78.708084,184.368622 77.644928C183.305466 76.581757,181.863571 75.984344,180.359924 75.984344C178.856277 75.984344,177.414383 76.581757,176.351227 77.644928C175.288055 78.708084,174.690643 80.149979,174.690643 81.653625C174.690643 83.157272,175.288055 84.599167,176.351227 85.662323C177.414383 86.725494,178.856277 87.322906,180.359924 87.322906C181.863571 87.322906,183.305466 86.725494,184.368622 85.662323C185.431793 84.599167,186.029205 83.157272,186.029205 81.653625Z" style="fill: rgb(100.000000%,100.000000%,100.000000%);stroke: none;"></path>
  <path d="M186.029205 81.653625C186.029205 80.149979,185.431793 78.708084,184.368622 77.644928C183.305466 76.581757,181.863571 75.984344,180.359924 75.984344C178.856277 75.984344,177.414383 76.581757,176.351227 77.644928C175.288055 78.708084,174.690643 80.149979,174.690643 81.653625C174.690643 83.157272,175.288055 84.599167,176.351227 85.662323C177.414383 86.725494,178.856277 87.322906,180.359924 87.322906C181.863571 87.322906,183.305466 86.725494,184.368622 85.662323C185.431793 84.599167,186.029205 83.157272,186.029205 81.653625Z" style="stroke:rgb(0.000000%,0.000000%,0.000000%); stroke-width: 0.500000;stroke-linecap: round;stroke-linejoin: round;stroke-miterlimit: 10.000000;fill: none;"></path>
  <g transform="translate(178.145996 83.798370)" style="fill: rgb(0.000000%,0.000000%,0.000000%);">
    <use xlink:href="#GLYPHcmr10_101"></use>
  </g>
  <path d="M226.669281 161.692932C226.669281 160.189285,226.071869 158.747391,225.008698 157.684235C223.945541 156.621063,222.503647 156.023651,221.000000 156.023651C219.496353 156.023651,218.054459 156.621063,216.991302 157.684235C215.928131 158.747391,215.330719 160.189285,215.330719 161.692932C215.330719 163.196579,215.928131 164.638474,216.991302 165.701630C218.054459 166.764801,219.496353 167.362213,221.000000 167.362213C222.503647 167.362213,223.945541 166.764801,225.008698 165.701630C226.071869 164.638474,226.669281 163.196579,226.669281 161.692932Z" style="fill: rgb(100.000000%,100.000000%,100.000000%);stroke: none;"></path>
  <path d="M226.669281 161.692932C226.669281 160.189285,226.071869 158.747391,225.008698 157.684235C223.945541 156.621063,222.503647 156.023651,221.000000 156.023651C219.496353 156.023651,218.054459 156.621063,216.991302 157.684235C215.928131 158.747391,215.330719 160.189285,215.330719 161.692932C215.330719 163.196579,215.928131 164.638474,216.991302 165.701630C218.054459 166.764801,219.496353 167.362213,221.000000 167.362213C222.503647 167.362213,223.945541 166.764801,225.008698 165.701630C226.071869 164.638474,226.669281 163.196579,226.669281 161.692932Z" style="stroke:rgb(0.000000%,0.000000%,0.000000%); stroke-width: 0.500000;stroke-linecap: round;stroke-linejoin: round;stroke-miterlimit: 10.000000;fill: none;"></path>
  <g transform="translate(218.509323 163.837677)" style="fill: rgb(0.000000%,0.000000%,0.000000%);">
    <use xlink:href="#GLYPHcmr10_111"></use>
  </g>
  <path d="M280.587067 122.519287C280.587067 121.015640,279.989655 119.573746,278.926483 118.510590C277.863327 117.447418,276.421432 116.850006,274.917786 116.850006C273.414139 116.850006,271.972244 117.447418,270.909088 118.510590C269.845917 119.573746,269.248505 121.015640,269.248505 122.519287C269.248505 124.022934,269.845917 125.464828,270.909088 126.527985C271.972244 127.591156,273.414139 128.188568,274.917786 128.188568C276.421432 128.188568,277.863327 127.591156,278.926483 126.527985C279.989655 125.464828,280.587067 124.022934,280.587067 122.519287Z" style="fill: rgb(100.000000%,100.000000%,100.000000%);stroke: none;"></path>
  <path d="M280.587067 122.519287C280.587067 121.015640,279.989655 119.573746,278.926483 118.510590C277.863327 117.447418,276.421432 116.850006,274.917786 116.850006C273.414139 116.850006,271.972244 117.447418,270.909088 118.510590C269.845917 119.573746,269.248505 121.015640,269.248505 122.519287C269.248505 124.022934,269.845917 125.464828,270.909088 126.527985C271.972244 127.591156,273.414139 128.188568,274.917786 128.188568C276.421432 128.188568,277.863327 127.591156,278.926483 126.527985C279.989655 125.464828,280.587067 124.022934,280.587067 122.519287Z" style="stroke:rgb(0.000000%,0.000000%,0.000000%); stroke-width: 0.500000;stroke-linecap: round;stroke-linejoin: round;stroke-miterlimit: 10.000000;fill: none;"></path>
  <g transform="translate(271.043411 125.978546)" style="fill: rgb(0.000000%,0.000000%,0.000000%);">
    <use xlink:href="#GLYPHcmr10_97"></use>
    <use xlink:href="#GLYPHcmr10_39" x="5.000095"></use>
  </g>
  <path d="M274.626251 104.173096C274.626251 102.669449,274.028839 101.227554,272.965668 100.164398C271.902512 99.101227,270.460617 98.503815,268.956970 98.503815C267.453323 98.503815,266.011429 99.101227,264.948273 100.164398C263.885101 101.227554,263.287689 102.669449,263.287689 104.173096C263.287689 105.676743,263.885101 107.118637,264.948273 108.181793C266.011429 109.244965,267.453323 109.842377,268.956970 109.842377C270.460617 109.842377,271.902512 109.244965,272.965668 108.181793C274.028839 107.118637,274.626251 105.676743,274.626251 104.173096Z" style="fill: rgb(100.000000%,100.000000%,100.000000%);stroke: none;"></path>
  <path d="M274.626251 104.173096C274.626251 102.669449,274.028839 101.227554,272.965668 100.164398C271.902512 99.101227,270.460617 98.503815,268.956970 98.503815C267.453323 98.503815,266.011429 99.101227,264.948273 100.164398C263.885101 101.227554,263.287689 102.669449,263.287689 104.173096C263.287689 105.676743,263.885101 107.118637,264.948273 108.181793C266.011429 109.244965,267.453323 109.842377,268.956970 109.842377C270.460617 109.842377,271.902512 109.244965,272.965668 108.181793C274.028839 107.118637,274.626251 105.676743,274.626251 104.173096Z" style="stroke:rgb(0.000000%,0.000000%,0.000000%); stroke-width: 0.500000;stroke-linecap: round;stroke-linejoin: round;stroke-miterlimit: 10.000000;fill: none;"></path>
  <g transform="translate(264.805847 107.632355)" style="fill: rgb(0.000000%,0.000000%,0.000000%);">
    <use xlink:href="#GLYPHcmr10_98"></use>
    <use xlink:href="#GLYPHcmr10_39" x="5.555661"></use>
  </g>
  <path d="M259.992462 59.134216C259.992462 57.630569,259.395050 56.188675,258.331879 55.125519C257.268723 54.062347,255.826828 53.464935,254.323181 53.464935C252.819534 53.464935,251.377640 54.062347,250.314484 55.125519C249.251312 56.188675,248.653900 57.630569,248.653900 59.134216C248.653900 60.637863,249.251312 62.079758,250.314484 63.142914C251.377640 64.206085,252.819534 64.803497,254.323181 64.803497C255.826828 64.803497,257.268723 64.206085,258.331879 63.142914C259.395050 62.079758,259.992462 60.637863,259.992462 59.134216Z" style="fill: rgb(100.000000%,100.000000%,100.000000%);stroke: none;"></path>
  <path d="M259.992462 59.134216C259.992462 57.630569,259.395050 56.188675,258.331879 55.125519C257.268723 54.062347,255.826828 53.464935,254.323181 53.464935C252.819534 53.464935,251.377640 54.062347,250.314484 55.125519C249.251312 56.188675,248.653900 57.630569,248.653900 59.134216C248.653900 60.637863,249.251312 62.079758,250.314484 63.142914C251.377640 64.206085,252.819534 64.803497,254.323181 64.803497C255.826828 64.803497,257.268723 64.206085,258.331879 63.142914C259.395050 62.079758,259.992462 60.637863,259.992462 59.134216Z" style="stroke:rgb(0.000000%,0.000000%,0.000000%); stroke-width: 0.500000;stroke-linecap: round;stroke-linejoin: round;stroke-miterlimit: 10.000000;fill: none;"></path>
  <g transform="translate(250.725540 62.593475)" style="fill: rgb(0.000000%,0.000000%,0.000000%);">
    <use xlink:href="#GLYPHcmr10_99"></use>
    <use xlink:href="#GLYPHcmr10_39" x="4.444529"></use>
  </g>
  <path d="M442.340424 4.998352C442.340424 3.494705,441.743011 2.052811,440.679840 0.989655C439.616684 -0.073517,438.174789 -0.670929,436.671143 -0.670929C435.167496 -0.670929,433.725601 -0.073517,432.662445 0.989655C431.599274 2.052811,431.001862 3.494705,431.001862 4.998352C431.001862 6.501999,431.599274 7.943893,432.662445 9.007050C433.725601 10.070221,435.167496 10.667633,436.671143 10.667633C438.174789 10.667633,439.616684 10.070221,440.679840 9.007050C441.743011 7.943893,442.340424 6.501999,442.340424 4.998352Z" style="fill: rgb(100.000000%,100.000000%,100.000000%);stroke: none;"></path>
  <path d="M442.340424 4.998352C442.340424 3.494705,441.743011 2.052811,440.679840 0.989655C439.616684 -0.073517,438.174789 -0.670929,436.671143 -0.670929C435.167496 -0.670929,433.725601 -0.073517,432.662445 0.989655C431.599274 2.052811,431.001862 3.494705,431.001862 4.998352C431.001862 6.501999,431.599274 7.943893,432.662445 9.007050C433.725601 10.070221,435.167496 10.667633,436.671143 10.667633C438.174789 10.667633,439.616684 10.070221,440.679840 9.007050C441.743011 7.943893,442.340424 6.501999,442.340424 4.998352Z" style="stroke:rgb(0.000000%,0.000000%,0.000000%); stroke-width: 0.500000;stroke-linecap: round;stroke-linejoin: round;stroke-miterlimit: 10.000000;fill: none;"></path>
  <g transform="translate(432.520020 8.457611)" style="fill: rgb(0.000000%,0.000000%,0.000000%);">
    <use xlink:href="#GLYPHcmr10_100"></use>
    <use xlink:href="#GLYPHcmr10_39" x="5.555661"></use>
  </g>
  <path d="M267.309357 81.653625C267.309357 80.149979,266.711945 78.708084,265.648773 77.644928C264.585617 76.581757,263.143723 75.984344,261.640076 75.984344C260.136429 75.984344,258.694534 76.581757,257.631378 77.644928C256.568207 78.708084,255.970795 80.149979,255.970795 81.653625C255.970795 83.157272,256.568207 84.599167,257.631378 85.662323C258.694534 86.725494,260.136429 87.322906,261.640076 87.322906C263.143723 87.322906,264.585617 86.725494,265.648773 85.662323C266.711945 84.599167,267.309357 83.157272,267.309357 81.653625Z" style="fill: rgb(100.000000%,100.000000%,100.000000%);stroke: none;"></path>
  <path d="M267.309357 81.653625C267.309357 80.149979,266.711945 78.708084,265.648773 77.644928C264.585617 76.581757,263.143723 75.984344,261.640076 75.984344C260.136429 75.984344,258.694534 76.581757,257.631378 77.644928C256.568207 78.708084,255.970795 80.149979,255.970795 81.653625C255.970795 83.157272,256.568207 84.599167,257.631378 85.662323C258.694534 86.725494,260.136429 87.322906,261.640076 87.322906C263.143723 87.322906,264.585617 86.725494,265.648773 85.662323C266.711945 84.599167,267.309357 83.157272,267.309357 81.653625Z" style="stroke:rgb(0.000000%,0.000000%,0.000000%); stroke-width: 0.500000;stroke-linecap: round;stroke-linejoin: round;stroke-miterlimit: 10.000000;fill: none;"></path>
  <g transform="translate(258.042435 85.112885)" style="fill: rgb(0.000000%,0.000000%,0.000000%);">
    <use xlink:href="#GLYPHcmr10_101"></use>
    <use xlink:href="#GLYPHcmr10_39" x="4.444529"></use>
  </g>
  <path d="M226.669281 139.016113C226.669281 137.512466,226.071869 136.070572,225.008698 135.007416C223.945541 133.944244,222.503647 133.346832,221.000000 133.346832C219.496353 133.346832,218.054459 133.944244,216.991302 135.007416C215.928131 136.070572,215.330719 137.512466,215.330719 139.016113C215.330719 140.519760,215.928131 141.961655,216.991302 143.024811C218.054459 144.087982,219.496353 144.685394,221.000000 144.685394C222.503647 144.685394,223.945541 144.087982,225.008698 143.024811C226.071869 141.961655,226.669281 140.519760,226.669281 139.016113Z" style="fill: rgb(100.000000%,100.000000%,100.000000%);stroke: none;"></path>
  <path d="M226.669281 139.016113C226.669281 137.512466,226.071869 136.070572,225.008698 135.007416C223.945541 133.944244,222.503647 133.346832,221.000000 133.346832C219.496353 133.346832,218.054459 133.944244,216.991302 135.007416C215.928131 136.070572,215.330719 137.512466,215.330719 139.016113C215.330719 140.519760,215.928131 141.961655,216.991302 143.024811C218.054459 144.087982,219.496353 144.685394,221.000000 144.685394C222.503647 144.685394,223.945541 144.087982,225.008698 143.024811C226.071869 141.961655,226.669281 140.519760,226.669281 139.016113Z" style="stroke:rgb(0.000000%,0.000000%,0.000000%); stroke-width: 0.500000;stroke-linecap: round;stroke-linejoin: round;stroke-miterlimit: 10.000000;fill: none;"></path>
  <g transform="translate(217.125626 142.475372)" style="fill: rgb(0.000000%,0.000000%,0.000000%);">
    <use xlink:href="#GLYPHcmr10_111"></use>
    <use xlink:href="#GLYPHcmr10_39" x="5.000095"></use>
  </g>
</svg>
