<?xml version="1.0"?>
<!-- Created by MetaPost 1.803 on 2016.06.02:2102 -->
<svg version="1.1" xmlns="http://www.w3.org/2000/svg" xmlns:xlink="http://www.w3.org/1999/xlink" width="292.911942" height="302.380432" viewBox="0 0 292.911942 302.380432">
<!-- Original BoundingBox: -277.738739 -257.083221 15.173203 45.297211 -->
  <defs>
    <g transform="scale(0.009963,0.009963)" id="GLYPHcmr10_97">
      <path style="fill-rule: evenodd;" d="M333.000000 -76.000000C337.000000 -36.000000,364.000000 6.000000,411.000000 6.000000C432.000000 6.000000,493.000000 -8.000000,493.000000 -89.000000L493.000000 -145.000000L468.000000 -145.000000L468.000000 -89.000000C468.000000 -31.000000,443.000000 -25.000000,432.000000 -25.000000C399.000000 -25.000000,395.000000 -70.000000,395.000000 -75.000000L395.000000 -275.000000C395.000000 -317.000000,395.000000 -356.000000,359.000000 -393.000000C320.000000 -432.000000,270.000000 -448.000000,222.000000 -448.000000C140.000000 -448.000000,71.000000 -401.000000,71.000000 -335.000000C71.000000 -305.000000,91.000000 -288.000000,117.000000 -288.000000C145.000000 -288.000000,163.000000 -308.000000,163.000000 -334.000000C163.000000 -346.000000,158.000000 -379.000000,112.000000 -380.000000C139.000000 -415.000000,188.000000 -426.000000,220.000000 -426.000000C269.000000 -426.000000,326.000000 -387.000000,326.000000 -298.000000L326.000000 -261.000000C275.000000 -258.000000,205.000000 -255.000000,142.000000 -225.000000C67.000000 -191.000000,42.000000 -139.000000,42.000000 -95.000000C42.000000 -14.000000,139.000000 11.000000,202.000000 11.000000C268.000000 11.000000,314.000000 -29.000000,333.000000 -76.000000M326.000000 -240.000000L326.000000 -140.000000C326.000000 -45.000000,254.000000 -11.000000,209.000000 -11.000000C160.000000 -11.000000,119.000000 -46.000000,119.000000 -96.000000C119.000000 -151.000000,161.000000 -234.000000,326.000000 -240.000000"></path>
    </g>
    <g transform="scale(0.009963,0.009963)" id="GLYPHcmr10_98">
      <path style="fill-rule: evenodd;" d="M172.000000 -377.000000L172.000000 -694.000000L28.000000 -683.000000L28.000000 -652.000000C98.000000 -652.000000,106.000000 -645.000000,106.000000 -596.000000L106.000000 -0.000000L131.000000 -0.000000C132.000000 -1.000000,140.000000 -15.000000,167.000000 -62.000000C182.000000 -39.000000,224.000000 11.000000,298.000000 11.000000C417.000000 11.000000,521.000000 -87.000000,521.000000 -216.000000C521.000000 -343.000000,423.000000 -442.000000,309.000000 -442.000000C231.000000 -442.000000,188.000000 -395.000000,172.000000 -377.000000M175.000000 -114.000000L175.000000 -320.000000C175.000000 -339.000000,175.000000 -340.000000,186.000000 -356.000000C225.000000 -412.000000,280.000000 -420.000000,304.000000 -420.000000C349.000000 -420.000000,385.000000 -394.000000,409.000000 -356.000000C435.000000 -315.000000,438.000000 -258.000000,438.000000 -217.000000C438.000000 -180.000000,436.000000 -120.000000,407.000000 -75.000000C386.000000 -44.000000,348.000000 -11.000000,294.000000 -11.000000C249.000000 -11.000000,213.000000 -35.000000,189.000000 -72.000000C175.000000 -93.000000,175.000000 -96.000000,175.000000 -114.000000"></path>
    </g>
    <g transform="scale(0.009963,0.009963)" id="GLYPHcmr10_99">
      <path style="fill-rule: evenodd;" d="M117.000000 -218.000000C117.000000 -381.000000,199.000000 -423.000000,252.000000 -423.000000C261.000000 -423.000000,324.000000 -422.000000,359.000000 -386.000000C318.000000 -383.000000,312.000000 -353.000000,312.000000 -340.000000C312.000000 -314.000000,330.000000 -294.000000,358.000000 -294.000000C384.000000 -294.000000,404.000000 -311.000000,404.000000 -341.000000C404.000000 -409.000000,328.000000 -448.000000,251.000000 -448.000000C126.000000 -448.000000,34.000000 -340.000000,34.000000 -216.000000C34.000000 -88.000000,133.000000 11.000000,249.000000 11.000000C383.000000 11.000000,415.000000 -109.000000,415.000000 -119.000000C415.000000 -129.000000,405.000000 -129.000000,402.000000 -129.000000C393.000000 -129.000000,391.000000 -125.000000,389.000000 -119.000000C360.000000 -26.000000,295.000000 -14.000000,258.000000 -14.000000C205.000000 -14.000000,117.000000 -57.000000,117.000000 -218.000000"></path>
    </g>
    <g transform="scale(0.009963,0.009963)" id="GLYPHcmr10_100">
      <path style="fill-rule: evenodd;" d="M380.000000 -55.000000L380.000000 11.000000L527.000000 -0.000000L527.000000 -31.000000C457.000000 -31.000000,449.000000 -38.000000,449.000000 -87.000000L449.000000 -694.000000L305.000000 -683.000000L305.000000 -652.000000C375.000000 -652.000000,383.000000 -645.000000,383.000000 -596.000000L383.000000 -380.000000C354.000000 -416.000000,311.000000 -442.000000,257.000000 -442.000000C139.000000 -442.000000,34.000000 -344.000000,34.000000 -215.000000C34.000000 -88.000000,132.000000 11.000000,246.000000 11.000000C310.000000 11.000000,355.000000 -23.000000,380.000000 -55.000000M380.000000 -323.000000L380.000000 -118.000000C380.000000 -100.000000,380.000000 -98.000000,369.000000 -81.000000C339.000000 -33.000000,294.000000 -11.000000,251.000000 -11.000000C206.000000 -11.000000,170.000000 -37.000000,146.000000 -75.000000C120.000000 -116.000000,117.000000 -173.000000,117.000000 -214.000000C117.000000 -251.000000,119.000000 -311.000000,148.000000 -356.000000C169.000000 -387.000000,207.000000 -420.000000,261.000000 -420.000000C296.000000 -420.000000,338.000000 -405.000000,369.000000 -360.000000C380.000000 -343.000000,380.000000 -341.000000,380.000000 -323.000000"></path>
    </g>
    <g transform="scale(0.009963,0.009963)" id="GLYPHcmr10_101">
      <path style="fill-rule: evenodd;" d="M112.000000 -252.000000C118.000000 -401.000000,202.000000 -426.000000,236.000000 -426.000000C339.000000 -426.000000,349.000000 -291.000000,349.000000 -252.000000M111.000000 -231.000000L390.000000 -231.000000C412.000000 -231.000000,415.000000 -231.000000,415.000000 -252.000000C415.000000 -351.000000,361.000000 -448.000000,236.000000 -448.000000C120.000000 -448.000000,28.000000 -345.000000,28.000000 -220.000000C28.000000 -86.000000,133.000000 11.000000,248.000000 11.000000C370.000000 11.000000,415.000000 -100.000000,415.000000 -119.000000C415.000000 -129.000000,407.000000 -131.000000,402.000000 -131.000000C393.000000 -131.000000,391.000000 -125.000000,389.000000 -117.000000C354.000000 -14.000000,264.000000 -14.000000,254.000000 -14.000000C204.000000 -14.000000,164.000000 -44.000000,141.000000 -81.000000C111.000000 -129.000000,111.000000 -195.000000,111.000000 -231.000000"></path>
    </g>
    <g transform="scale(0.009963,0.009963)" id="GLYPHcmr10_102">
      <path style="fill-rule: evenodd;" d="M175.000000 -431.000000L175.000000 -547.000000C175.000000 -635.000000,223.000000 -683.000000,267.000000 -683.000000C270.000000 -683.000000,285.000000 -683.000000,300.000000 -676.000000C288.000000 -672.000000,270.000000 -659.000000,270.000000 -634.000000C270.000000 -611.000000,286.000000 -591.000000,313.000000 -591.000000C342.000000 -591.000000,357.000000 -611.000000,357.000000 -635.000000C357.000000 -672.000000,320.000000 -705.000000,267.000000 -705.000000C197.000000 -705.000000,112.000000 -652.000000,112.000000 -546.000000L112.000000 -431.000000L33.000000 -431.000000L33.000000 -400.000000L112.000000 -400.000000L112.000000 -76.000000C112.000000 -31.000000,101.000000 -31.000000,34.000000 -31.000000L34.000000 -0.000000L148.000000 -0.000000L73.000000 -1.000000L120.000000 -3.000000L148.000000 -3.000000L188.000000 -3.000000L235.000000 -3.000000L275.000000 -0.000000L275.000000 -31.000000L254.000000 -31.000000C180.000000 -31.000000,178.000000 -42.000000,178.000000 -78.000000L178.000000 -400.000000L292.000000 -400.000000L292.000000 -431.000000"></path>
    </g>
    <g transform="scale(0.009963,0.009963)" id="GLYPHcmr10_103">
      <path style="fill-rule: evenodd;" d="M222.000000 -172.000000C135.000000 -172.000000,135.000000 -272.000000,135.000000 -295.000000C135.000000 -322.000000,136.000000 -354.000000,151.000000 -379.000000C159.000000 -391.000000,182.000000 -419.000000,222.000000 -419.000000C309.000000 -419.000000,309.000000 -319.000000,309.000000 -296.000000C309.000000 -269.000000,308.000000 -237.000000,293.000000 -212.000000C285.000000 -200.000000,262.000000 -172.000000,222.000000 -172.000000M106.000000 -133.000000C106.000000 -137.000000,106.000000 -160.000000,123.000000 -180.000000C162.000000 -152.000000,203.000000 -149.000000,222.000000 -149.000000C315.000000 -149.000000,384.000000 -218.000000,384.000000 -295.000000C384.000000 -332.000000,368.000000 -369.000000,343.000000 -392.000000C379.000000 -426.000000,415.000000 -431.000000,433.000000 -431.000000C435.000000 -431.000000,440.000000 -431.000000,443.000000 -430.000000C432.000000 -426.000000,427.000000 -415.000000,427.000000 -403.000000C427.000000 -386.000000,440.000000 -374.000000,456.000000 -374.000000C466.000000 -374.000000,485.000000 -381.000000,485.000000 -404.000000C485.000000 -421.000000,473.000000 -453.000000,434.000000 -453.000000C414.000000 -453.000000,370.000000 -447.000000,328.000000 -406.000000C286.000000 -439.000000,244.000000 -442.000000,222.000000 -442.000000C129.000000 -442.000000,60.000000 -373.000000,60.000000 -296.000000C60.000000 -252.000000,82.000000 -214.000000,107.000000 -193.000000C94.000000 -178.000000,76.000000 -145.000000,76.000000 -110.000000C76.000000 -79.000000,89.000000 -41.000000,120.000000 -21.000000C60.000000 -4.000000,28.000000 39.000000,28.000000 79.000000C28.000000 151.000000,127.000000 206.000000,249.000000 206.000000C367.000000 206.000000,471.000000 155.000000,471.000000 77.000000C471.000000 42.000000,457.000000 -9.000000,406.000000 -37.000000C353.000000 -65.000000,295.000000 -65.000000,234.000000 -65.000000C209.000000 -65.000000,166.000000 -65.000000,159.000000 -66.000000C127.000000 -70.000000,106.000000 -101.000000,106.000000 -133.000000M250.000000 183.000000C149.000000 183.000000,80.000000 132.000000,80.000000 79.000000C80.000000 33.000000,118.000000 -4.000000,162.000000 -7.000000L221.000000 -7.000000C307.000000 -7.000000,419.000000 -7.000000,419.000000 79.000000C419.000000 133.000000,348.000000 183.000000,250.000000 183.000000"></path>
    </g>
  </defs>
  <path d="M221.169556 35.155701L53.673950 5.622070L5.180542 23.160034L71.209656 269.583862L221.954651 296.163940L246.364075 248.294800L273.170288 70.413330Z" style="stroke:rgb(0.000000%,0.000000%,0.000000%); stroke-width: 0.500000;stroke-linecap: round;stroke-linejoin: round;stroke-miterlimit: 10.000000;fill: none;"></path>
  <path d="M219.249268 39.892334L64.635132 12.629150L23.307556 27.575867L84.319275 255.277283L219.103455 279.043884L244.047607 230.125305L267.758423 72.782715Z" style="stroke:rgb(0.000000%,0.000000%,0.000000%); stroke-width: 0.500000;stroke-linecap: round;stroke-linejoin: round;stroke-miterlimit: 10.000000;fill: none;"></path>
  <path d="M277.000000 45.000000L277.000000 30.826797" style="stroke:rgb(0.000000%,0.000000%,0.000000%); stroke-width: 2.000000;stroke-linecap: round;stroke-linejoin: round;stroke-miterlimit: 10.000000;fill: none;"></path>
  <path d="M278.530777 34.522324L277.000000 30.826797L275.469223 34.522324Z" style="stroke:rgb(0.000000%,0.000000%,0.000000%); stroke-width: 2.000000;fill: rgb(0.000000%,0.000000%,0.000000%);"></path>
  <path d="M277.000000 45.000000L291.173203 45.000000" style="stroke:rgb(0.000000%,0.000000%,0.000000%); stroke-width: 2.000000;stroke-linecap: round;stroke-linejoin: round;stroke-miterlimit: 10.000000;fill: none;"></path>
  <path d="M287.477676 46.530777L291.173203 45.000000L287.477676 43.469223Z" style="stroke:rgb(0.000000%,0.000000%,0.000000%); stroke-width: 2.000000;fill: rgb(0.000000%,0.000000%,0.000000%);"></path>
  <path d="M277.000000 45.000000L135.267700 186.732300" style="stroke:rgb(0.000000%,0.000000%,100.000000%); stroke-width: 0.500000;stroke-linecap: round;stroke-linejoin: round;stroke-miterlimit: 10.000000;fill: none;"></path>
  <path d="M136.798569 183.036362L135.267700 186.732300L138.963638 185.201431Z" style="stroke:rgb(0.000000%,0.000000%,100.000000%); stroke-width: 0.500000;fill: rgb(0.000000%,0.000000%,100.000000%);"></path>
  <path d="M226.838837 35.155701C226.838837 33.652054,226.241425 32.210159,225.178253 31.147003C224.115097 30.083832,222.673203 29.486420,221.169556 29.486420C219.665909 29.486420,218.224014 30.083832,217.160858 31.147003C216.097687 32.210159,215.500275 33.652054,215.500275 35.155701C215.500275 36.659348,216.097687 38.101242,217.160858 39.164398C218.224014 40.227570,219.665909 40.824982,221.169556 40.824982C222.673203 40.824982,224.115097 40.227570,225.178253 39.164398C226.241425 38.101242,226.838837 36.659348,226.838837 35.155701Z" style="fill: rgb(100.000000%,100.000000%,100.000000%);stroke: none;"></path>
  <path d="M226.838837 35.155701C226.838837 33.652054,226.241425 32.210159,225.178253 31.147003C224.115097 30.083832,222.673203 29.486420,221.169556 29.486420C219.665909 29.486420,218.224014 30.083832,217.160858 31.147003C216.097687 32.210159,215.500275 33.652054,215.500275 35.155701C215.500275 36.659348,216.097687 38.101242,217.160858 39.164398C218.224014 40.227570,219.665909 40.824982,221.169556 40.824982C222.673203 40.824982,224.115097 40.227570,225.178253 39.164398C226.241425 38.101242,226.838837 36.659348,226.838837 35.155701Z" style="stroke:rgb(0.000000%,0.000000%,0.000000%); stroke-width: 0.500000;stroke-linecap: round;stroke-linejoin: round;stroke-miterlimit: 10.000000;fill: none;"></path>
  <g transform="translate(218.678879 37.300446)" style="fill: rgb(0.000000%,0.000000%,0.000000%);">
    <use xlink:href="#GLYPHcmr10_97"></use>
  </g>
  <path d="M59.343231 5.622070C59.343231 4.118423,58.745819 2.676529,57.682648 1.613373C56.619492 0.550201,55.177597 -0.047211,53.673950 -0.047211C52.170303 -0.047211,50.728409 0.550201,49.665253 1.613373C48.602081 2.676529,48.004669 4.118423,48.004669 5.622070C48.004669 7.125717,48.602081 8.567612,49.665253 9.630768C50.728409 10.693939,52.170303 11.291351,53.673950 11.291351C55.177597 11.291351,56.619492 10.693939,57.682648 9.630768C58.745819 8.567612,59.343231 7.125717,59.343231 5.622070Z" style="fill: rgb(100.000000%,100.000000%,100.000000%);stroke: none;"></path>
  <path d="M59.343231 5.622070C59.343231 4.118423,58.745819 2.676529,57.682648 1.613373C56.619492 0.550201,55.177597 -0.047211,53.673950 -0.047211C52.170303 -0.047211,50.728409 0.550201,49.665253 1.613373C48.602081 2.676529,48.004669 4.118423,48.004669 5.622070C48.004669 7.125717,48.602081 8.567612,49.665253 9.630768C50.728409 10.693939,52.170303 11.291351,53.673950 11.291351C55.177597 11.291351,56.619492 10.693939,57.682648 9.630768C58.745819 8.567612,59.343231 7.125717,59.343231 5.622070Z" style="stroke:rgb(0.000000%,0.000000%,0.000000%); stroke-width: 0.500000;stroke-linecap: round;stroke-linejoin: round;stroke-miterlimit: 10.000000;fill: none;"></path>
  <g transform="translate(50.906540 9.081329)" style="fill: rgb(0.000000%,0.000000%,0.000000%);">
    <use xlink:href="#GLYPHcmr10_98"></use>
  </g>
  <path d="M10.849823 23.160034C10.849823 21.656387,10.252411 20.214493,9.189240 19.151337C8.126083 18.088165,6.684189 17.490753,5.180542 17.490753C3.676895 17.490753,2.235001 18.088165,1.171844 19.151337C0.108673 20.214493,-0.488739 21.656387,-0.488739 23.160034C-0.488739 24.663681,0.108673 26.105576,1.171844 27.168732C2.235001 28.231903,3.676895 28.829315,5.180542 28.829315C6.684189 28.829315,8.126083 28.231903,9.189240 27.168732C10.252411 26.105576,10.849823 24.663681,10.849823 23.160034Z" style="fill: rgb(100.000000%,100.000000%,100.000000%);stroke: none;"></path>
  <path d="M10.849823 23.160034C10.849823 21.656387,10.252411 20.214493,9.189240 19.151337C8.126083 18.088165,6.684189 17.490753,5.180542 17.490753C3.676895 17.490753,2.235001 18.088165,1.171844 19.151337C0.108673 20.214493,-0.488739 21.656387,-0.488739 23.160034C-0.488739 24.663681,0.108673 26.105576,1.171844 27.168732C2.235001 28.231903,3.676895 28.829315,5.180542 28.829315C6.684189 28.829315,8.126083 28.231903,9.189240 27.168732C10.252411 26.105576,10.849823 24.663681,10.849823 23.160034Z" style="stroke:rgb(0.000000%,0.000000%,0.000000%); stroke-width: 0.500000;stroke-linecap: round;stroke-linejoin: round;stroke-miterlimit: 10.000000;fill: none;"></path>
  <g transform="translate(2.966614 25.304779)" style="fill: rgb(0.000000%,0.000000%,0.000000%);">
    <use xlink:href="#GLYPHcmr10_99"></use>
  </g>
  <path d="M76.878937 269.583862C76.878937 268.080215,76.281525 266.638321,75.218353 265.575165C74.155197 264.511993,72.713303 263.914581,71.209656 263.914581C69.706009 263.914581,68.264114 264.511993,67.200958 265.575165C66.137787 266.638321,65.540375 268.080215,65.540375 269.583862C65.540375 271.087509,66.137787 272.529404,67.200958 273.592560C68.264114 274.655731,69.706009 275.253143,71.209656 275.253143C72.713303 275.253143,74.155197 274.655731,75.218353 273.592560C76.281525 272.529404,76.878937 271.087509,76.878937 269.583862Z" style="fill: rgb(100.000000%,100.000000%,100.000000%);stroke: none;"></path>
  <path d="M76.878937 269.583862C76.878937 268.080215,76.281525 266.638321,75.218353 265.575165C74.155197 264.511993,72.713303 263.914581,71.209656 263.914581C69.706009 263.914581,68.264114 264.511993,67.200958 265.575165C66.137787 266.638321,65.540375 268.080215,65.540375 269.583862C65.540375 271.087509,66.137787 272.529404,67.200958 273.592560C68.264114 274.655731,69.706009 275.253143,71.209656 275.253143C72.713303 275.253143,74.155197 274.655731,75.218353 273.592560C76.281525 272.529404,76.878937 271.087509,76.878937 269.583862Z" style="stroke:rgb(0.000000%,0.000000%,0.000000%); stroke-width: 0.500000;stroke-linecap: round;stroke-linejoin: round;stroke-miterlimit: 10.000000;fill: none;"></path>
  <g transform="translate(68.442245 273.043121)" style="fill: rgb(0.000000%,0.000000%,0.000000%);">
    <use xlink:href="#GLYPHcmr10_100"></use>
  </g>
  <path d="M227.623932 296.163940C227.623932 294.660294,227.026520 293.218399,225.963348 292.155243C224.900192 291.092072,223.458298 290.494659,221.954651 290.494659C220.451004 290.494659,219.009109 291.092072,217.945953 292.155243C216.882782 293.218399,216.285370 294.660294,216.285370 296.163940C216.285370 297.667587,216.882782 299.109482,217.945953 300.172638C219.009109 301.235809,220.451004 301.833221,221.954651 301.833221C223.458298 301.833221,224.900192 301.235809,225.963348 300.172638C227.026520 299.109482,227.623932 297.667587,227.623932 296.163940Z" style="fill: rgb(100.000000%,100.000000%,100.000000%);stroke: none;"></path>
  <path d="M227.623932 296.163940C227.623932 294.660294,227.026520 293.218399,225.963348 292.155243C224.900192 291.092072,223.458298 290.494659,221.954651 290.494659C220.451004 290.494659,219.009109 291.092072,217.945953 292.155243C216.882782 293.218399,216.285370 294.660294,216.285370 296.163940C216.285370 297.667587,216.882782 299.109482,217.945953 300.172638C219.009109 301.235809,220.451004 301.833221,221.954651 301.833221C223.458298 301.833221,224.900192 301.235809,225.963348 300.172638C227.026520 299.109482,227.623932 297.667587,227.623932 296.163940Z" style="stroke:rgb(0.000000%,0.000000%,0.000000%); stroke-width: 0.500000;stroke-linecap: round;stroke-linejoin: round;stroke-miterlimit: 10.000000;fill: none;"></path>
  <g transform="translate(219.740723 298.308685)" style="fill: rgb(0.000000%,0.000000%,0.000000%);">
    <use xlink:href="#GLYPHcmr10_101"></use>
  </g>
  <path d="M252.033356 248.294800C252.033356 246.791153,251.435944 245.349258,250.372772 244.286102C249.309616 243.222931,247.867722 242.625519,246.364075 242.625519C244.860428 242.625519,243.418533 243.222931,242.355377 244.286102C241.292206 245.349258,240.694794 246.791153,240.694794 248.294800C240.694794 249.798447,241.292206 251.240341,242.355377 252.303497C243.418533 253.366669,244.860428 253.964081,246.364075 253.964081C247.867722 253.964081,249.309616 253.366669,250.372772 252.303497C251.435944 251.240341,252.033356 249.798447,252.033356 248.294800Z" style="fill: rgb(100.000000%,100.000000%,100.000000%);stroke: none;"></path>
  <path d="M252.033356 248.294800C252.033356 246.791153,251.435944 245.349258,250.372772 244.286102C249.309616 243.222931,247.867722 242.625519,246.364075 242.625519C244.860428 242.625519,243.418533 243.222931,242.355377 244.286102C241.292206 245.349258,240.694794 246.791153,240.694794 248.294800C240.694794 249.798447,241.292206 251.240341,242.355377 252.303497C243.418533 253.366669,244.860428 253.964081,246.364075 253.964081C247.867722 253.964081,249.309616 253.366669,250.372772 252.303497C251.435944 251.240341,252.033356 249.798447,252.033356 248.294800Z" style="stroke:rgb(0.000000%,0.000000%,0.000000%); stroke-width: 0.500000;stroke-linecap: round;stroke-linejoin: round;stroke-miterlimit: 10.000000;fill: none;"></path>
  <g transform="translate(244.841995 251.754059)" style="fill: rgb(0.000000%,0.000000%,0.000000%);">
    <use xlink:href="#GLYPHcmr10_102"></use>
  </g>
  <path d="M278.839569 70.413330C278.839569 68.909683,278.242157 67.467789,277.178986 66.404633C276.115829 65.341461,274.673935 64.744049,273.170288 64.744049C271.666641 64.744049,270.224747 65.341461,269.161591 66.404633C268.098419 67.467789,267.501007 68.909683,267.501007 70.413330C267.501007 71.916977,268.098419 73.358871,269.161591 74.422028C270.224747 75.485199,271.666641 76.082611,273.170288 76.082611C274.673935 76.082611,276.115829 75.485199,277.178986 74.422028C278.242157 73.358871,278.839569 71.916977,278.839569 70.413330Z" style="fill: rgb(100.000000%,100.000000%,100.000000%);stroke: none;"></path>
  <path d="M278.839569 70.413330C278.839569 68.909683,278.242157 67.467789,277.178986 66.404633C276.115829 65.341461,274.673935 64.744049,273.170288 64.744049C271.666641 64.744049,270.224747 65.341461,269.161591 66.404633C268.098419 67.467789,267.501007 68.909683,267.501007 70.413330C267.501007 71.916977,268.098419 73.358871,269.161591 74.422028C270.224747 75.485199,271.666641 76.082611,273.170288 76.082611C274.673935 76.082611,276.115829 75.485199,277.178986 74.422028C278.242157 73.358871,278.839569 71.916977,278.839569 70.413330Z" style="stroke:rgb(0.000000%,0.000000%,0.000000%); stroke-width: 0.500000;stroke-linecap: round;stroke-linejoin: round;stroke-miterlimit: 10.000000;fill: none;"></path>
  <g transform="translate(270.679611 71.589478)" style="fill: rgb(0.000000%,0.000000%,0.000000%);">
    <use xlink:href="#GLYPHcmr10_103"></use>
  </g>
</svg>
