<?xml version="1.0"?>
<!-- Created by MetaPost 1.803 on 2016.06.02:2102 -->
<svg version="1.1" xmlns="http://www.w3.org/2000/svg" xmlns:xlink="http://www.w3.org/1999/xlink" width="398.181671" height="676.790604" viewBox="0 0 398.181671 676.790604">
<!-- Original BoundingBox: -199.090836 -368.075668 199.090836 308.714935 -->
  <path d="M170.653549 95.401611L170.653549 38.708710L227.346451 38.708710L227.346451 95.401611Z" style="stroke:rgb(0.000000%,0.000000%,0.000000%); stroke-width: 0.500000;stroke-linecap: round;stroke-linejoin: round;stroke-miterlimit: 10.000000;fill: none;"></path>
  <path d="M170.653549 95.401611L156.480316 95.401611L156.480316 52.881927C160.182053 47.234955,165.006577 42.410446,170.653549 38.708710C187.866821 27.425003,210.133179 27.425003,227.346451 38.708710C232.993423 42.410446,237.817947 47.234955,241.519684 52.881927L241.519684 95.401611L227.346451 95.401611Z" style="stroke:rgb(0.000000%,0.000000%,0.000000%); stroke-width: 0.500000;stroke-linecap: round;stroke-linejoin: round;stroke-miterlimit: 10.000000;fill: none;"></path>
  <path d="M170.653549 38.708710C170.653549 23.053406,183.344696 10.362259,199.000000 10.362259C214.655304 10.362259,227.346451 23.053406,227.346451 38.708710" style="stroke:rgb(0.000000%,0.000000%,0.000000%); stroke-width: 0.500000;stroke-linecap: round;stroke-linejoin: round;stroke-miterlimit: 10.000000;fill: none;"></path>
  <path d="M113.960648 95.401611L113.960648 137.921295L113.960648 180.440964L284.039352 180.440964L284.039352 137.921295L284.039352 95.401611Z" style="stroke:rgb(0.000000%,0.000000%,0.000000%); stroke-width: 0.500000;stroke-linecap: round;stroke-linejoin: round;stroke-miterlimit: 10.000000;fill: none;"></path>
  <path d="M130.968262 180.440964L139.472717 208.787415L258.527283 208.787415L267.031738 180.440964" style="stroke:rgb(0.000000%,0.000000%,0.000000%); stroke-width: 0.500000;stroke-linecap: round;stroke-linejoin: round;stroke-miterlimit: 10.000000;fill: none;"></path>
  <path d="M147.975876 208.787415L143.724945 237.133865L254.275055 237.133865L250.024124 208.787415" style="stroke:rgb(0.000000%,0.000000%,0.000000%); stroke-width: 0.500000;stroke-linecap: round;stroke-linejoin: round;stroke-miterlimit: 10.000000;fill: none;"></path>
  <path d="M199.000000 33.039505L187.010757 24.328751L190.669205 13.069031L207.330795 13.069031L210.989243 24.328751Z" style="stroke:rgb(0.000000%,0.000000%,0.000000%); stroke-width: 0.500000;stroke-linecap: round;stroke-linejoin: round;stroke-miterlimit: 10.000000;fill: none;"></path>
  <path d="M185.520554 28.915298L145.082214 -0.464935L188.839981 18.698883" style="stroke:rgb(0.000000%,0.000000%,0.000000%); stroke-width: 0.500000;stroke-linecap: round;stroke-linejoin: round;stroke-miterlimit: 10.000000;fill: none;"></path>
  <path d="M212.479446 28.915298L252.917786 -0.464935L209.160019 18.698883" style="stroke:rgb(0.000000%,0.000000%,0.000000%); stroke-width: 0.500000;stroke-linecap: round;stroke-linejoin: round;stroke-miterlimit: 10.000000;fill: none;"></path>
  <path d="M199.000000 38.708710L185.520554 28.915298L187.010757 24.328751" style="stroke:rgb(0.000000%,0.000000%,0.000000%); stroke-width: 0.500000;stroke-linecap: round;stroke-linejoin: round;stroke-miterlimit: 10.000000;fill: none;"></path>
  <path d="M199.000000 38.708710L212.479446 28.915298L210.989243 24.328751" style="stroke:rgb(0.000000%,0.000000%,0.000000%); stroke-width: 0.500000;stroke-linecap: round;stroke-linejoin: round;stroke-miterlimit: 10.000000;fill: none;"></path>
  <path d="M199.000000 38.708710L199.000000 33.039505" style="stroke:rgb(0.000000%,0.000000%,0.000000%); stroke-width: 0.500000;stroke-linecap: round;stroke-linejoin: round;stroke-miterlimit: 10.000000;fill: none;"></path>
  <path d="M199.000000 237.133850L130.968262 237.133850L113.960648 293.826752L179.157562 307.999985L218.842438 307.999985L284.039352 293.826752L267.031738 237.133850Z" style="stroke:rgb(0.000000%,0.000000%,0.000000%); stroke-width: 0.500000;stroke-linecap: round;stroke-linejoin: round;stroke-miterlimit: 10.000000;fill: none;"></path>
  <path d="M100.003036 92.940536L58.129135 85.557129L46.005783 89.941620L62.513062 151.547577L100.199310 158.192596L106.301666 146.225311L113.003220 101.754944Z" style="stroke:rgb(0.000000%,0.000000%,0.000000%); stroke-width: 0.500000;stroke-linecap: round;stroke-linejoin: round;stroke-miterlimit: 10.000000;fill: none;"></path>
  <path d="M99.522964 94.124695L60.869431 87.308899L50.537537 91.045578L65.790466 147.970932L99.486511 153.912582L105.722549 141.682938L111.650253 102.347290Z" style="stroke:rgb(0.000000%,0.000000%,0.000000%); stroke-width: 0.500000;stroke-linecap: round;stroke-linejoin: round;stroke-miterlimit: 10.000000;fill: none;"></path>
  <path d="M297.996964 92.940536L339.870865 85.557129L351.994217 89.941620L335.486938 151.547577L297.800690 158.192596L291.698334 146.225311L284.996780 101.754944Z" style="stroke:rgb(0.000000%,0.000000%,0.000000%); stroke-width: 0.500000;stroke-linecap: round;stroke-linejoin: round;stroke-miterlimit: 10.000000;fill: none;"></path>
  <path d="M298.477036 94.124695L337.130569 87.308899L347.462463 91.045578L332.209534 147.970932L298.513489 153.912582L292.277451 141.682938L286.349747 102.347290Z" style="stroke:rgb(0.000000%,0.000000%,0.000000%); stroke-width: 0.500000;stroke-linecap: round;stroke-linejoin: round;stroke-miterlimit: 10.000000;fill: none;"></path>
  <path d="M44.459137 160.807037L24.770264 272.469635L30.353394 273.454086L38.228821 228.789734L82.893860 236.665283L75.018433 281.329636L80.601562 282.314087L100.290436 170.651489Z" style="stroke:rgb(0.000000%,0.000000%,0.000000%); stroke-width: 0.500000;stroke-linecap: round;stroke-linejoin: round;stroke-miterlimit: 10.000000;fill: none;"></path>
  <path d="M353.540863 160.807037L373.229736 272.469635L367.646606 273.454086L359.771179 228.789734L315.106140 236.665283L322.981567 281.329636L317.398438 282.314087L297.709564 170.651489Z" style="stroke:rgb(0.000000%,0.000000%,0.000000%); stroke-width: 0.500000;stroke-linecap: round;stroke-linejoin: round;stroke-miterlimit: 10.000000;fill: none;"></path>
  <path d="M0.159164 412.047882L19.848038 300.385284L25.431168 301.369736L17.555740 346.034088L62.220779 353.909637L70.096207 309.245285L75.679337 310.229736L55.990463 421.892334Z" style="stroke:rgb(0.000000%,0.000000%,0.000000%); stroke-width: 0.500000;stroke-linecap: round;stroke-linejoin: round;stroke-miterlimit: 10.000000;fill: none;"></path>
  <path d="M397.840836 412.047882L378.151962 300.385284L372.568832 301.369736L380.444260 346.034088L335.779221 353.909637L327.903793 309.245285L322.320663 310.229736L342.009537 421.892334Z" style="stroke:rgb(0.000000%,0.000000%,0.000000%); stroke-width: 0.500000;stroke-linecap: round;stroke-linejoin: round;stroke-miterlimit: 10.000000;fill: none;"></path>
  <path d="M30.353302 273.454071L19.187210 271.485214L14.264999 299.400864L25.431091 301.369720" style="stroke:rgb(0.000000%,0.000000%,0.000000%); stroke-width: 0.500000;stroke-linecap: round;stroke-linejoin: round;stroke-miterlimit: 10.000000;fill: none;"></path>
  <path d="M75.018494 281.329651L86.184586 283.298508L81.262375 311.214157L70.096283 309.245300" style="stroke:rgb(0.000000%,0.000000%,0.000000%); stroke-width: 0.500000;stroke-linecap: round;stroke-linejoin: round;stroke-miterlimit: 10.000000;fill: none;"></path>
  <path d="M367.646698 273.454071L378.812790 271.485214L383.735001 299.400864L372.568909 301.369720" style="stroke:rgb(0.000000%,0.000000%,0.000000%); stroke-width: 0.500000;stroke-linecap: round;stroke-linejoin: round;stroke-miterlimit: 10.000000;fill: none;"></path>
  <path d="M322.981506 281.329651L311.815414 283.298508L316.737625 311.214157L327.903717 309.245300" style="stroke:rgb(0.000000%,0.000000%,0.000000%); stroke-width: 0.500000;stroke-linecap: round;stroke-linejoin: round;stroke-miterlimit: 10.000000;fill: none;"></path>
  <path d="M114.391449 303.077774L89.780350 442.656021L95.363480 443.640472L105.207764 387.810028L149.872803 395.685577L140.028519 451.516022L145.611649 452.500473L170.222748 312.922226Z" style="stroke:rgb(0.000000%,0.000000%,0.000000%); stroke-width: 0.500000;stroke-linecap: round;stroke-linejoin: round;stroke-miterlimit: 10.000000;fill: none;"></path>
  <path d="M283.608551 303.077774L308.219650 442.656021L302.636520 443.640472L292.792236 387.810028L248.127197 395.685577L257.971481 451.516022L252.388351 452.500473L227.777252 312.922226Z" style="stroke:rgb(0.000000%,0.000000%,0.000000%); stroke-width: 0.500000;stroke-linecap: round;stroke-linejoin: round;stroke-miterlimit: 10.000000;fill: none;"></path>
  <path d="M50.402588 665.981216L84.858124 470.571671L90.441254 471.556122L76.659241 549.718750L121.324280 557.594299L135.106293 479.431671L140.689423 480.416122L106.233887 675.825668Z" style="stroke:rgb(0.000000%,0.000000%,0.000000%); stroke-width: 0.500000;stroke-linecap: round;stroke-linejoin: round;stroke-miterlimit: 10.000000;fill: none;"></path>
  <path d="M347.597412 665.981216L313.141876 470.571671L307.558746 471.556122L321.340759 549.718750L276.675720 557.594299L262.893707 479.431671L257.310577 480.416122L291.766113 675.825668Z" style="stroke:rgb(0.000000%,0.000000%,0.000000%); stroke-width: 0.500000;stroke-linecap: round;stroke-linejoin: round;stroke-miterlimit: 10.000000;fill: none;"></path>
  <path d="M95.363403 443.640457L84.197311 441.671600L79.275101 469.587250L90.441193 471.556107" style="stroke:rgb(0.000000%,0.000000%,0.000000%); stroke-width: 0.500000;stroke-linecap: round;stroke-linejoin: round;stroke-miterlimit: 10.000000;fill: none;"></path>
  <path d="M140.028595 451.516037L151.194687 453.484894L146.272476 481.400543L135.106384 479.431686" style="stroke:rgb(0.000000%,0.000000%,0.000000%); stroke-width: 0.500000;stroke-linecap: round;stroke-linejoin: round;stroke-miterlimit: 10.000000;fill: none;"></path>
  <path d="M302.636597 443.640457L313.802689 441.671600L318.724899 469.587250L307.558807 471.556107" style="stroke:rgb(0.000000%,0.000000%,0.000000%); stroke-width: 0.500000;stroke-linecap: round;stroke-linejoin: round;stroke-miterlimit: 10.000000;fill: none;"></path>
  <path d="M257.971405 451.516037L246.805313 453.484894L251.727524 481.400543L262.893616 479.431686" style="stroke:rgb(0.000000%,0.000000%,0.000000%); stroke-width: 0.500000;stroke-linecap: round;stroke-linejoin: round;stroke-miterlimit: 10.000000;fill: none;"></path>
</svg>
