<?xml version="1.0"?>
<!-- Created by MetaPost 1.803 on 2016.06.02:2102 -->
<svg version="1.1" xmlns="http://www.w3.org/2000/svg" xmlns:xlink="http://www.w3.org/1999/xlink" width="125.224365" height="247.864090" viewBox="0 0 125.224365 247.864090">
<!-- Original BoundingBox: -62.612183 -232.690887 62.612183 15.173203 -->
  <defs>
    <g transform="scale(0.009963,0.009963)" id="GLYPHcmr10_39">
      <path style="fill-rule: evenodd;" d="M206.000000 -589.000000C206.000000 -649.000000,182.000000 -694.000000,139.000000 -694.000000C104.000000 -694.000000,86.000000 -667.000000,86.000000 -641.000000C86.000000 -615.000000,103.000000 -588.000000,139.000000 -588.000000C159.000000 -588.000000,173.000000 -598.000000,179.000000 -604.000000C180.000000 -606.000000,181.000000 -607.000000,182.000000 -607.000000C184.000000 -607.000000,184.000000 -593.000000,184.000000 -589.000000C184.000000 -557.000000,177.000000 -485.000000,114.000000 -423.000000C102.000000 -411.000000,102.000000 -409.000000,102.000000 -406.000000C102.000000 -399.000000,107.000000 -395.000000,112.000000 -395.000000C123.000000 -395.000000,206.000000 -471.000000,206.000000 -589.000000"></path>
    </g>
    <g transform="scale(0.009963,0.009963)" id="GLYPHcmr10_97">
      <path style="fill-rule: evenodd;" d="M333.000000 -76.000000C337.000000 -36.000000,364.000000 6.000000,411.000000 6.000000C432.000000 6.000000,493.000000 -8.000000,493.000000 -89.000000L493.000000 -145.000000L468.000000 -145.000000L468.000000 -89.000000C468.000000 -31.000000,443.000000 -25.000000,432.000000 -25.000000C399.000000 -25.000000,395.000000 -70.000000,395.000000 -75.000000L395.000000 -275.000000C395.000000 -317.000000,395.000000 -356.000000,359.000000 -393.000000C320.000000 -432.000000,270.000000 -448.000000,222.000000 -448.000000C140.000000 -448.000000,71.000000 -401.000000,71.000000 -335.000000C71.000000 -305.000000,91.000000 -288.000000,117.000000 -288.000000C145.000000 -288.000000,163.000000 -308.000000,163.000000 -334.000000C163.000000 -346.000000,158.000000 -379.000000,112.000000 -380.000000C139.000000 -415.000000,188.000000 -426.000000,220.000000 -426.000000C269.000000 -426.000000,326.000000 -387.000000,326.000000 -298.000000L326.000000 -261.000000C275.000000 -258.000000,205.000000 -255.000000,142.000000 -225.000000C67.000000 -191.000000,42.000000 -139.000000,42.000000 -95.000000C42.000000 -14.000000,139.000000 11.000000,202.000000 11.000000C268.000000 11.000000,314.000000 -29.000000,333.000000 -76.000000M326.000000 -240.000000L326.000000 -140.000000C326.000000 -45.000000,254.000000 -11.000000,209.000000 -11.000000C160.000000 -11.000000,119.000000 -46.000000,119.000000 -96.000000C119.000000 -151.000000,161.000000 -234.000000,326.000000 -240.000000"></path>
    </g>
    <g transform="scale(0.009963,0.009963)" id="GLYPHcmr10_98">
      <path style="fill-rule: evenodd;" d="M172.000000 -377.000000L172.000000 -694.000000L28.000000 -683.000000L28.000000 -652.000000C98.000000 -652.000000,106.000000 -645.000000,106.000000 -596.000000L106.000000 -0.000000L131.000000 -0.000000C132.000000 -1.000000,140.000000 -15.000000,167.000000 -62.000000C182.000000 -39.000000,224.000000 11.000000,298.000000 11.000000C417.000000 11.000000,521.000000 -87.000000,521.000000 -216.000000C521.000000 -343.000000,423.000000 -442.000000,309.000000 -442.000000C231.000000 -442.000000,188.000000 -395.000000,172.000000 -377.000000M175.000000 -114.000000L175.000000 -320.000000C175.000000 -339.000000,175.000000 -340.000000,186.000000 -356.000000C225.000000 -412.000000,280.000000 -420.000000,304.000000 -420.000000C349.000000 -420.000000,385.000000 -394.000000,409.000000 -356.000000C435.000000 -315.000000,438.000000 -258.000000,438.000000 -217.000000C438.000000 -180.000000,436.000000 -120.000000,407.000000 -75.000000C386.000000 -44.000000,348.000000 -11.000000,294.000000 -11.000000C249.000000 -11.000000,213.000000 -35.000000,189.000000 -72.000000C175.000000 -93.000000,175.000000 -96.000000,175.000000 -114.000000"></path>
    </g>
    <g transform="scale(0.009963,0.009963)" id="GLYPHcmr10_99">
      <path style="fill-rule: evenodd;" d="M117.000000 -218.000000C117.000000 -381.000000,199.000000 -423.000000,252.000000 -423.000000C261.000000 -423.000000,324.000000 -422.000000,359.000000 -386.000000C318.000000 -383.000000,312.000000 -353.000000,312.000000 -340.000000C312.000000 -314.000000,330.000000 -294.000000,358.000000 -294.000000C384.000000 -294.000000,404.000000 -311.000000,404.000000 -341.000000C404.000000 -409.000000,328.000000 -448.000000,251.000000 -448.000000C126.000000 -448.000000,34.000000 -340.000000,34.000000 -216.000000C34.000000 -88.000000,133.000000 11.000000,249.000000 11.000000C383.000000 11.000000,415.000000 -109.000000,415.000000 -119.000000C415.000000 -129.000000,405.000000 -129.000000,402.000000 -129.000000C393.000000 -129.000000,391.000000 -125.000000,389.000000 -119.000000C360.000000 -26.000000,295.000000 -14.000000,258.000000 -14.000000C205.000000 -14.000000,117.000000 -57.000000,117.000000 -218.000000"></path>
    </g>
    <g transform="scale(0.009963,0.009963)" id="GLYPHcmr10_100">
      <path style="fill-rule: evenodd;" d="M380.000000 -55.000000L380.000000 11.000000L527.000000 -0.000000L527.000000 -31.000000C457.000000 -31.000000,449.000000 -38.000000,449.000000 -87.000000L449.000000 -694.000000L305.000000 -683.000000L305.000000 -652.000000C375.000000 -652.000000,383.000000 -645.000000,383.000000 -596.000000L383.000000 -380.000000C354.000000 -416.000000,311.000000 -442.000000,257.000000 -442.000000C139.000000 -442.000000,34.000000 -344.000000,34.000000 -215.000000C34.000000 -88.000000,132.000000 11.000000,246.000000 11.000000C310.000000 11.000000,355.000000 -23.000000,380.000000 -55.000000M380.000000 -323.000000L380.000000 -118.000000C380.000000 -100.000000,380.000000 -98.000000,369.000000 -81.000000C339.000000 -33.000000,294.000000 -11.000000,251.000000 -11.000000C206.000000 -11.000000,170.000000 -37.000000,146.000000 -75.000000C120.000000 -116.000000,117.000000 -173.000000,117.000000 -214.000000C117.000000 -251.000000,119.000000 -311.000000,148.000000 -356.000000C169.000000 -387.000000,207.000000 -420.000000,261.000000 -420.000000C296.000000 -420.000000,338.000000 -405.000000,369.000000 -360.000000C380.000000 -343.000000,380.000000 -341.000000,380.000000 -323.000000"></path>
    </g>
    <g transform="scale(0.009963,0.009963)" id="GLYPHcmr10_101">
      <path style="fill-rule: evenodd;" d="M112.000000 -252.000000C118.000000 -401.000000,202.000000 -426.000000,236.000000 -426.000000C339.000000 -426.000000,349.000000 -291.000000,349.000000 -252.000000M111.000000 -231.000000L390.000000 -231.000000C412.000000 -231.000000,415.000000 -231.000000,415.000000 -252.000000C415.000000 -351.000000,361.000000 -448.000000,236.000000 -448.000000C120.000000 -448.000000,28.000000 -345.000000,28.000000 -220.000000C28.000000 -86.000000,133.000000 11.000000,248.000000 11.000000C370.000000 11.000000,415.000000 -100.000000,415.000000 -119.000000C415.000000 -129.000000,407.000000 -131.000000,402.000000 -131.000000C393.000000 -131.000000,391.000000 -125.000000,389.000000 -117.000000C354.000000 -14.000000,264.000000 -14.000000,254.000000 -14.000000C204.000000 -14.000000,164.000000 -44.000000,141.000000 -81.000000C111.000000 -129.000000,111.000000 -195.000000,111.000000 -231.000000"></path>
    </g>
  </defs>
  <path d="M5.307098 15.000000L5.307098 241.771606L16.645691 241.771606L16.645691 151.064362L107.354309 151.064362L107.354309 241.771606L118.692902 241.771606L118.692902 15.000000Z" style="stroke:rgb(0.000000%,0.000000%,0.000000%); stroke-width: 0.500000;stroke-linecap: round;stroke-linejoin: round;stroke-miterlimit: 10.000000;fill: none;"></path>
  <path d="M16.645691 151.064362L16.645691 15.000000" style="stroke:rgb(0.000000%,0.000000%,0.000000%); stroke-width: 0.500000;stroke-linecap: round;stroke-dasharray: 3.000000 3.000000 ;stroke-linejoin: round;stroke-miterlimit: 10.000000;fill: none;"></path>
  <path d="M107.354309 151.064362L107.354309 15.000000" style="stroke:rgb(0.000000%,0.000000%,0.000000%); stroke-width: 0.500000;stroke-linecap: round;stroke-dasharray: 3.000000 3.000000 ;stroke-linejoin: round;stroke-miterlimit: 10.000000;fill: none;"></path>
  <path d="M62.000000 15.000000L62.000000 0.826797" style="stroke:rgb(0.000000%,0.000000%,0.000000%); stroke-width: 2.000000;stroke-linecap: round;stroke-linejoin: round;stroke-miterlimit: 10.000000;fill: none;"></path>
  <path d="M63.530777 4.522324L62.000000 0.826797L60.469223 4.522324Z" style="stroke:rgb(0.000000%,0.000000%,0.000000%); stroke-width: 2.000000;fill: rgb(0.000000%,0.000000%,0.000000%);"></path>
  <path d="M62.000000 15.000000L76.173203 15.000000" style="stroke:rgb(0.000000%,0.000000%,0.000000%); stroke-width: 2.000000;stroke-linecap: round;stroke-linejoin: round;stroke-miterlimit: 10.000000;fill: none;"></path>
  <path d="M72.477676 16.530777L76.173203 15.000000L72.477676 13.469223Z" style="stroke:rgb(0.000000%,0.000000%,0.000000%); stroke-width: 2.000000;fill: rgb(0.000000%,0.000000%,0.000000%);"></path>
  <path d="M62.000000 15.000000L62.000000 128.385803" style="stroke:rgb(0.000000%,0.000000%,100.000000%); stroke-width: 0.500000;stroke-linecap: round;stroke-linejoin: round;stroke-miterlimit: 10.000000;fill: none;"></path>
  <path d="M60.469208 124.690231L62.000000 128.385803L63.530792 124.690231Z" style="stroke:rgb(0.000000%,0.000000%,100.000000%); stroke-width: 0.500000;fill: rgb(0.000000%,0.000000%,100.000000%);"></path>
  <path d="M10.976379 15.000000C10.976379 13.496353,10.378967 12.054459,9.315796 10.991302C8.252640 9.928131,6.810745 9.330719,5.307098 9.330719C3.803452 9.330719,2.361557 9.928131,1.298401 10.991302C0.235229 12.054459,-0.362183 13.496353,-0.362183 15.000000C-0.362183 16.503647,0.235229 17.945541,1.298401 19.008698C2.361557 20.071869,3.803452 20.669281,5.307098 20.669281C6.810745 20.669281,8.252640 20.071869,9.315796 19.008698C10.378967 17.945541,10.976379 16.503647,10.976379 15.000000Z" style="fill: rgb(100.000000%,100.000000%,100.000000%);stroke: none;"></path>
  <path d="M10.976379 15.000000C10.976379 13.496353,10.378967 12.054459,9.315796 10.991302C8.252640 9.928131,6.810745 9.330719,5.307098 9.330719C3.803452 9.330719,2.361557 9.928131,1.298401 10.991302C0.235229 12.054459,-0.362183 13.496353,-0.362183 15.000000C-0.362183 16.503647,0.235229 17.945541,1.298401 19.008698C2.361557 20.071869,3.803452 20.669281,5.307098 20.669281C6.810745 20.669281,8.252640 20.071869,9.315796 19.008698C10.378967 17.945541,10.976379 16.503647,10.976379 15.000000Z" style="stroke:rgb(0.000000%,0.000000%,0.000000%); stroke-width: 0.500000;stroke-linecap: round;stroke-linejoin: round;stroke-miterlimit: 10.000000;fill: none;"></path>
  <g transform="translate(2.816422 17.144745)" style="fill: rgb(0.000000%,0.000000%,0.000000%);">
    <use xlink:href="#GLYPHcmr10_97"></use>
  </g>
  <path d="M10.976379 241.771606C10.976379 240.267960,10.378967 238.826065,9.315796 237.762909C8.252640 236.699738,6.810745 236.102325,5.307098 236.102325C3.803452 236.102325,2.361557 236.699738,1.298401 237.762909C0.235229 238.826065,-0.362183 240.267960,-0.362183 241.771606C-0.362183 243.275253,0.235229 244.717148,1.298401 245.780304C2.361557 246.843475,3.803452 247.440887,5.307098 247.440887C6.810745 247.440887,8.252640 246.843475,9.315796 245.780304C10.378967 244.717148,10.976379 243.275253,10.976379 241.771606Z" style="fill: rgb(100.000000%,100.000000%,100.000000%);stroke: none;"></path>
  <path d="M10.976379 241.771606C10.976379 240.267960,10.378967 238.826065,9.315796 237.762909C8.252640 236.699738,6.810745 236.102325,5.307098 236.102325C3.803452 236.102325,2.361557 236.699738,1.298401 237.762909C0.235229 238.826065,-0.362183 240.267960,-0.362183 241.771606C-0.362183 243.275253,0.235229 244.717148,1.298401 245.780304C2.361557 246.843475,3.803452 247.440887,5.307098 247.440887C6.810745 247.440887,8.252640 246.843475,9.315796 245.780304C10.378967 244.717148,10.976379 243.275253,10.976379 241.771606Z" style="stroke:rgb(0.000000%,0.000000%,0.000000%); stroke-width: 0.500000;stroke-linecap: round;stroke-linejoin: round;stroke-miterlimit: 10.000000;fill: none;"></path>
  <g transform="translate(2.539688 245.230865)" style="fill: rgb(0.000000%,0.000000%,0.000000%);">
    <use xlink:href="#GLYPHcmr10_98"></use>
  </g>
  <path d="M22.314972 241.771606C22.314972 240.267960,21.717560 238.826065,20.654388 237.762909C19.591232 236.699738,18.149338 236.102325,16.645691 236.102325C15.142044 236.102325,13.700150 236.699738,12.636993 237.762909C11.573822 238.826065,10.976410 240.267960,10.976410 241.771606C10.976410 243.275253,11.573822 244.717148,12.636993 245.780304C13.700150 246.843475,15.142044 247.440887,16.645691 247.440887C18.149338 247.440887,19.591232 246.843475,20.654388 245.780304C21.717560 244.717148,22.314972 243.275253,22.314972 241.771606Z" style="fill: rgb(100.000000%,100.000000%,100.000000%);stroke: none;"></path>
  <path d="M22.314972 241.771606C22.314972 240.267960,21.717560 238.826065,20.654388 237.762909C19.591232 236.699738,18.149338 236.102325,16.645691 236.102325C15.142044 236.102325,13.700150 236.699738,12.636993 237.762909C11.573822 238.826065,10.976410 240.267960,10.976410 241.771606C10.976410 243.275253,11.573822 244.717148,12.636993 245.780304C13.700150 246.843475,15.142044 247.440887,16.645691 247.440887C18.149338 247.440887,19.591232 246.843475,20.654388 245.780304C21.717560 244.717148,22.314972 243.275253,22.314972 241.771606Z" style="stroke:rgb(0.000000%,0.000000%,0.000000%); stroke-width: 0.500000;stroke-linecap: round;stroke-linejoin: round;stroke-miterlimit: 10.000000;fill: none;"></path>
  <g transform="translate(14.431763 243.916351)" style="fill: rgb(0.000000%,0.000000%,0.000000%);">
    <use xlink:href="#GLYPHcmr10_99"></use>
  </g>
  <path d="M22.314972 151.064362C22.314972 149.560715,21.717560 148.118820,20.654388 147.055664C19.591232 145.992493,18.149338 145.395081,16.645691 145.395081C15.142044 145.395081,13.700150 145.992493,12.636993 147.055664C11.573822 148.118820,10.976410 149.560715,10.976410 151.064362C10.976410 152.568008,11.573822 154.009903,12.636993 155.073059C13.700150 156.136230,15.142044 156.733643,16.645691 156.733643C18.149338 156.733643,19.591232 156.136230,20.654388 155.073059C21.717560 154.009903,22.314972 152.568008,22.314972 151.064362Z" style="fill: rgb(100.000000%,100.000000%,100.000000%);stroke: none;"></path>
  <path d="M22.314972 151.064362C22.314972 149.560715,21.717560 148.118820,20.654388 147.055664C19.591232 145.992493,18.149338 145.395081,16.645691 145.395081C15.142044 145.395081,13.700150 145.992493,12.636993 147.055664C11.573822 148.118820,10.976410 149.560715,10.976410 151.064362C10.976410 152.568008,11.573822 154.009903,12.636993 155.073059C13.700150 156.136230,15.142044 156.733643,16.645691 156.733643C18.149338 156.733643,19.591232 156.136230,20.654388 155.073059C21.717560 154.009903,22.314972 152.568008,22.314972 151.064362Z" style="stroke:rgb(0.000000%,0.000000%,0.000000%); stroke-width: 0.500000;stroke-linecap: round;stroke-linejoin: round;stroke-miterlimit: 10.000000;fill: none;"></path>
  <g transform="translate(13.878281 154.523621)" style="fill: rgb(0.000000%,0.000000%,0.000000%);">
    <use xlink:href="#GLYPHcmr10_100"></use>
  </g>
  <path d="M22.314972 15.000000C22.314972 13.496353,21.717560 12.054459,20.654388 10.991302C19.591232 9.928131,18.149338 9.330719,16.645691 9.330719C15.142044 9.330719,13.700150 9.928131,12.636993 10.991302C11.573822 12.054459,10.976410 13.496353,10.976410 15.000000C10.976410 16.503647,11.573822 17.945541,12.636993 19.008698C13.700150 20.071869,15.142044 20.669281,16.645691 20.669281C18.149338 20.669281,19.591232 20.071869,20.654388 19.008698C21.717560 17.945541,22.314972 16.503647,22.314972 15.000000Z" style="fill: rgb(100.000000%,100.000000%,100.000000%);stroke: none;"></path>
  <path d="M22.314972 15.000000C22.314972 13.496353,21.717560 12.054459,20.654388 10.991302C19.591232 9.928131,18.149338 9.330719,16.645691 9.330719C15.142044 9.330719,13.700150 9.928131,12.636993 10.991302C11.573822 12.054459,10.976410 13.496353,10.976410 15.000000C10.976410 16.503647,11.573822 17.945541,12.636993 19.008698C13.700150 20.071869,15.142044 20.669281,16.645691 20.669281C18.149338 20.669281,19.591232 20.071869,20.654388 19.008698C21.717560 17.945541,22.314972 16.503647,22.314972 15.000000Z" style="stroke:rgb(0.000000%,0.000000%,0.000000%); stroke-width: 0.500000;stroke-linecap: round;stroke-linejoin: round;stroke-miterlimit: 10.000000;fill: none;"></path>
  <g transform="translate(14.431763 17.144745)" style="fill: rgb(0.000000%,0.000000%,0.000000%);">
    <use xlink:href="#GLYPHcmr10_101"></use>
  </g>
  <path d="M124.362183 15.000000C124.362183 13.496353,123.764771 12.054459,122.701599 10.991302C121.638443 9.928131,120.196548 9.330719,118.692902 9.330719C117.189255 9.330719,115.747360 9.928131,114.684204 10.991302C113.621033 12.054459,113.023621 13.496353,113.023621 15.000000C113.023621 16.503647,113.621033 17.945541,114.684204 19.008698C115.747360 20.071869,117.189255 20.669281,118.692902 20.669281C120.196548 20.669281,121.638443 20.071869,122.701599 19.008698C123.764771 17.945541,124.362183 16.503647,124.362183 15.000000Z" style="fill: rgb(100.000000%,100.000000%,100.000000%);stroke: none;"></path>
  <path d="M124.362183 15.000000C124.362183 13.496353,123.764771 12.054459,122.701599 10.991302C121.638443 9.928131,120.196548 9.330719,118.692902 9.330719C117.189255 9.330719,115.747360 9.928131,114.684204 10.991302C113.621033 12.054459,113.023621 13.496353,113.023621 15.000000C113.023621 16.503647,113.621033 17.945541,114.684204 19.008698C115.747360 20.071869,117.189255 20.669281,118.692902 20.669281C120.196548 20.669281,121.638443 20.071869,122.701599 19.008698C123.764771 17.945541,124.362183 16.503647,124.362183 15.000000Z" style="stroke:rgb(0.000000%,0.000000%,0.000000%); stroke-width: 0.500000;stroke-linecap: round;stroke-linejoin: round;stroke-miterlimit: 10.000000;fill: none;"></path>
  <g transform="translate(114.818527 18.459259)" style="fill: rgb(0.000000%,0.000000%,0.000000%);">
    <use xlink:href="#GLYPHcmr10_97"></use>
    <use xlink:href="#GLYPHcmr10_39" x="5.000095"></use>
  </g>
  <path d="M124.362183 241.771606C124.362183 240.267960,123.764771 238.826065,122.701599 237.762909C121.638443 236.699738,120.196548 236.102325,118.692902 236.102325C117.189255 236.102325,115.747360 236.699738,114.684204 237.762909C113.621033 238.826065,113.023621 240.267960,113.023621 241.771606C113.023621 243.275253,113.621033 244.717148,114.684204 245.780304C115.747360 246.843475,117.189255 247.440887,118.692902 247.440887C120.196548 247.440887,121.638443 246.843475,122.701599 245.780304C123.764771 244.717148,124.362183 243.275253,124.362183 241.771606Z" style="fill: rgb(100.000000%,100.000000%,100.000000%);stroke: none;"></path>
  <path d="M124.362183 241.771606C124.362183 240.267960,123.764771 238.826065,122.701599 237.762909C121.638443 236.699738,120.196548 236.102325,118.692902 236.102325C117.189255 236.102325,115.747360 236.699738,114.684204 237.762909C113.621033 238.826065,113.023621 240.267960,113.023621 241.771606C113.023621 243.275253,113.621033 244.717148,114.684204 245.780304C115.747360 246.843475,117.189255 247.440887,118.692902 247.440887C120.196548 247.440887,121.638443 246.843475,122.701599 245.780304C123.764771 244.717148,124.362183 243.275253,124.362183 241.771606Z" style="stroke:rgb(0.000000%,0.000000%,0.000000%); stroke-width: 0.500000;stroke-linecap: round;stroke-linejoin: round;stroke-miterlimit: 10.000000;fill: none;"></path>
  <g transform="translate(114.541779 245.230865)" style="fill: rgb(0.000000%,0.000000%,0.000000%);">
    <use xlink:href="#GLYPHcmr10_98"></use>
    <use xlink:href="#GLYPHcmr10_39" x="5.555661"></use>
  </g>
  <path d="M113.023590 241.771606C113.023590 240.267960,112.426178 238.826065,111.363007 237.762909C110.299850 236.699738,108.857956 236.102325,107.354309 236.102325C105.850662 236.102325,104.408768 236.699738,103.345612 237.762909C102.282440 238.826065,101.685028 240.267960,101.685028 241.771606C101.685028 243.275253,102.282440 244.717148,103.345612 245.780304C104.408768 246.843475,105.850662 247.440887,107.354309 247.440887C108.857956 247.440887,110.299850 246.843475,111.363007 245.780304C112.426178 244.717148,113.023590 243.275253,113.023590 241.771606Z" style="fill: rgb(100.000000%,100.000000%,100.000000%);stroke: none;"></path>
  <path d="M113.023590 241.771606C113.023590 240.267960,112.426178 238.826065,111.363007 237.762909C110.299850 236.699738,108.857956 236.102325,107.354309 236.102325C105.850662 236.102325,104.408768 236.699738,103.345612 237.762909C102.282440 238.826065,101.685028 240.267960,101.685028 241.771606C101.685028 243.275253,102.282440 244.717148,103.345612 245.780304C104.408768 246.843475,105.850662 247.440887,107.354309 247.440887C108.857956 247.440887,110.299850 246.843475,111.363007 245.780304C112.426178 244.717148,113.023590 243.275253,113.023590 241.771606Z" style="stroke:rgb(0.000000%,0.000000%,0.000000%); stroke-width: 0.500000;stroke-linecap: round;stroke-linejoin: round;stroke-miterlimit: 10.000000;fill: none;"></path>
  <g transform="translate(103.756668 245.230865)" style="fill: rgb(0.000000%,0.000000%,0.000000%);">
    <use xlink:href="#GLYPHcmr10_99"></use>
    <use xlink:href="#GLYPHcmr10_39" x="4.444529"></use>
  </g>
  <path d="M113.023590 151.064362C113.023590 149.560715,112.426178 148.118820,111.363007 147.055664C110.299850 145.992493,108.857956 145.395081,107.354309 145.395081C105.850662 145.395081,104.408768 145.992493,103.345612 147.055664C102.282440 148.118820,101.685028 149.560715,101.685028 151.064362C101.685028 152.568008,102.282440 154.009903,103.345612 155.073059C104.408768 156.136230,105.850662 156.733643,107.354309 156.733643C108.857956 156.733643,110.299850 156.136230,111.363007 155.073059C112.426178 154.009903,113.023590 152.568008,113.023590 151.064362Z" style="fill: rgb(100.000000%,100.000000%,100.000000%);stroke: none;"></path>
  <path d="M113.023590 151.064362C113.023590 149.560715,112.426178 148.118820,111.363007 147.055664C110.299850 145.992493,108.857956 145.395081,107.354309 145.395081C105.850662 145.395081,104.408768 145.992493,103.345612 147.055664C102.282440 148.118820,101.685028 149.560715,101.685028 151.064362C101.685028 152.568008,102.282440 154.009903,103.345612 155.073059C104.408768 156.136230,105.850662 156.733643,107.354309 156.733643C108.857956 156.733643,110.299850 156.136230,111.363007 155.073059C112.426178 154.009903,113.023590 152.568008,113.023590 151.064362Z" style="stroke:rgb(0.000000%,0.000000%,0.000000%); stroke-width: 0.500000;stroke-linecap: round;stroke-linejoin: round;stroke-miterlimit: 10.000000;fill: none;"></path>
  <g transform="translate(103.203186 154.523621)" style="fill: rgb(0.000000%,0.000000%,0.000000%);">
    <use xlink:href="#GLYPHcmr10_100"></use>
    <use xlink:href="#GLYPHcmr10_39" x="5.555661"></use>
  </g>
  <path d="M113.023590 15.000000C113.023590 13.496353,112.426178 12.054459,111.363007 10.991302C110.299850 9.928131,108.857956 9.330719,107.354309 9.330719C105.850662 9.330719,104.408768 9.928131,103.345612 10.991302C102.282440 12.054459,101.685028 13.496353,101.685028 15.000000C101.685028 16.503647,102.282440 17.945541,103.345612 19.008698C104.408768 20.071869,105.850662 20.669281,107.354309 20.669281C108.857956 20.669281,110.299850 20.071869,111.363007 19.008698C112.426178 17.945541,113.023590 16.503647,113.023590 15.000000Z" style="fill: rgb(100.000000%,100.000000%,100.000000%);stroke: none;"></path>
  <path d="M113.023590 15.000000C113.023590 13.496353,112.426178 12.054459,111.363007 10.991302C110.299850 9.928131,108.857956 9.330719,107.354309 9.330719C105.850662 9.330719,104.408768 9.928131,103.345612 10.991302C102.282440 12.054459,101.685028 13.496353,101.685028 15.000000C101.685028 16.503647,102.282440 17.945541,103.345612 19.008698C104.408768 20.071869,105.850662 20.669281,107.354309 20.669281C108.857956 20.669281,110.299850 20.071869,111.363007 19.008698C112.426178 17.945541,113.023590 16.503647,113.023590 15.000000Z" style="stroke:rgb(0.000000%,0.000000%,0.000000%); stroke-width: 0.500000;stroke-linecap: round;stroke-linejoin: round;stroke-miterlimit: 10.000000;fill: none;"></path>
  <g transform="translate(103.756668 18.459259)" style="fill: rgb(0.000000%,0.000000%,0.000000%);">
    <use xlink:href="#GLYPHcmr10_101"></use>
    <use xlink:href="#GLYPHcmr10_39" x="4.444529"></use>
  </g>
</svg>
