<?xml version="1.0"?>
<!-- Created by MetaPost 1.803 on 2016.06.02:2102 -->
<svg version="1.1" xmlns="http://www.w3.org/2000/svg" xmlns:xlink="http://www.w3.org/1999/xlink" width="437.835388" height="690.895111" viewBox="0 0 437.835388 690.895111">
<!-- Original BoundingBox: -218.917694 -364.660904 218.917694 326.234207 -->
  <path d="M218.000000 85.055161l0 0" style="stroke:rgb(100.000000%,0.000000%,0.000000%); stroke-width: 5.669281;stroke-linecap: round;stroke-linejoin: round;stroke-miterlimit: 10.000000;fill: none;"></path>
  <path d="M218.000000 184.267731l0 0" style="stroke:rgb(100.000000%,0.000000%,0.000000%); stroke-width: 5.669281;stroke-linecap: round;stroke-linejoin: round;stroke-miterlimit: 10.000000;fill: none;"></path>
  <path d="M218.000000 42.535477l0 0" style="stroke:rgb(100.000000%,0.000000%,0.000000%); stroke-width: 5.669281;stroke-linecap: round;stroke-linejoin: round;stroke-miterlimit: 10.000000;fill: none;"></path>
  <path d="M218.000000 290.566925l0 0" style="stroke:rgb(100.000000%,0.000000%,0.000000%); stroke-width: 5.669281;stroke-linecap: round;stroke-linejoin: round;stroke-miterlimit: 10.000000;fill: none;"></path>
  <path d="M97.527573 148.834686l0 0" style="stroke:rgb(100.000000%,0.000000%,0.000000%); stroke-width: 5.669281;stroke-linecap: round;stroke-linejoin: round;stroke-miterlimit: 10.000000;fill: none;"></path>
  <path d="M338.472427 148.834686l0 0" style="stroke:rgb(100.000000%,0.000000%,0.000000%); stroke-width: 5.669281;stroke-linecap: round;stroke-linejoin: round;stroke-miterlimit: 10.000000;fill: none;"></path>
  <path d="M81.530350 239.560562l0 0" style="stroke:rgb(100.000000%,0.000000%,0.000000%); stroke-width: 5.669281;stroke-linecap: round;stroke-linejoin: round;stroke-miterlimit: 10.000000;fill: none;"></path>
  <path d="M354.469650 239.560562l0 0" style="stroke:rgb(100.000000%,0.000000%,0.000000%); stroke-width: 5.669281;stroke-linecap: round;stroke-linejoin: round;stroke-miterlimit: 10.000000;fill: none;"></path>
  <path d="M56.919250 379.138809l0 0" style="stroke:rgb(100.000000%,0.000000%,0.000000%); stroke-width: 5.669281;stroke-linecap: round;stroke-linejoin: round;stroke-miterlimit: 10.000000;fill: none;"></path>
  <path d="M379.080750 379.138809l0 0" style="stroke:rgb(100.000000%,0.000000%,0.000000%); stroke-width: 5.669281;stroke-linecap: round;stroke-linejoin: round;stroke-miterlimit: 10.000000;fill: none;"></path>
  <path d="M69.224792 309.349686l0 0" style="stroke:rgb(100.000000%,0.000000%,0.000000%); stroke-width: 5.669281;stroke-linecap: round;stroke-linejoin: round;stroke-miterlimit: 10.000000;fill: none;"></path>
  <path d="M366.775208 309.349686l0 0" style="stroke:rgb(100.000000%,0.000000%,0.000000%); stroke-width: 5.669281;stroke-linecap: round;stroke-linejoin: round;stroke-miterlimit: 10.000000;fill: none;"></path>
  <path d="M149.001541 395.789124l0 0" style="stroke:rgb(100.000000%,0.000000%,0.000000%); stroke-width: 5.669281;stroke-linecap: round;stroke-linejoin: round;stroke-miterlimit: 10.000000;fill: none;"></path>
  <path d="M286.998459 395.789124l0 0" style="stroke:rgb(100.000000%,0.000000%,0.000000%); stroke-width: 5.669281;stroke-linecap: round;stroke-linejoin: round;stroke-miterlimit: 10.000000;fill: none;"></path>
  <path d="M114.546005 591.198669l0 0" style="stroke:rgb(100.000000%,0.000000%,0.000000%); stroke-width: 5.669281;stroke-linecap: round;stroke-linejoin: round;stroke-miterlimit: 10.000000;fill: none;"></path>
  <path d="M321.453995 591.198669l0 0" style="stroke:rgb(100.000000%,0.000000%,0.000000%); stroke-width: 5.669281;stroke-linecap: round;stroke-linejoin: round;stroke-miterlimit: 10.000000;fill: none;"></path>
  <path d="M134.234894 479.536072l0 0" style="stroke:rgb(100.000000%,0.000000%,0.000000%); stroke-width: 5.669281;stroke-linecap: round;stroke-linejoin: round;stroke-miterlimit: 10.000000;fill: none;"></path>
  <path d="M301.765106 479.536072l0 0" style="stroke:rgb(100.000000%,0.000000%,0.000000%); stroke-width: 5.669281;stroke-linecap: round;stroke-linejoin: round;stroke-miterlimit: 10.000000;fill: none;"></path>
  <path d="M218.000000 113.401611L218.000000 99.228409" style="stroke:rgb(0.000000%,0.000000%,0.000000%); stroke-width: 2.000000;stroke-linecap: round;stroke-linejoin: round;stroke-miterlimit: 10.000000;fill: none;"></path>
  <path d="M219.530777 102.923935L218.000000 99.228409L216.469223 102.923935Z" style="stroke:rgb(0.000000%,0.000000%,0.000000%); stroke-width: 2.000000;fill: rgb(0.000000%,0.000000%,0.000000%);"></path>
  <path d="M218.000000 113.401611L232.173203 113.401611" style="stroke:rgb(0.000000%,0.000000%,0.000000%); stroke-width: 2.000000;stroke-linecap: round;stroke-linejoin: round;stroke-miterlimit: 10.000000;fill: none;"></path>
  <path d="M228.477676 114.932388L232.173203 113.401611L228.477676 111.870834Z" style="stroke:rgb(0.000000%,0.000000%,0.000000%); stroke-width: 2.000000;fill: rgb(0.000000%,0.000000%,0.000000%);"></path>
  <path d="M218.000000 255.133865L218.000000 240.960663" style="stroke:rgb(0.000000%,0.000000%,0.000000%); stroke-width: 2.000000;stroke-linecap: round;stroke-linejoin: round;stroke-miterlimit: 10.000000;fill: none;"></path>
  <path d="M219.530777 244.656189L218.000000 240.960663L216.469223 244.656189Z" style="stroke:rgb(0.000000%,0.000000%,0.000000%); stroke-width: 2.000000;fill: rgb(0.000000%,0.000000%,0.000000%);"></path>
  <path d="M218.000000 255.133865L232.173203 255.133865" style="stroke:rgb(0.000000%,0.000000%,0.000000%); stroke-width: 2.000000;stroke-linecap: round;stroke-linejoin: round;stroke-miterlimit: 10.000000;fill: none;"></path>
  <path d="M228.477676 256.664642L232.173203 255.133865L228.477676 253.603088Z" style="stroke:rgb(0.000000%,0.000000%,0.000000%); stroke-width: 2.000000;fill: rgb(0.000000%,0.000000%,0.000000%);"></path>
  <path d="M218.000000 42.535477L218.000000 28.362274" style="stroke:rgb(0.000000%,0.000000%,0.000000%); stroke-width: 2.000000;stroke-linecap: round;stroke-linejoin: round;stroke-miterlimit: 10.000000;fill: none;"></path>
  <path d="M219.530777 32.057800L218.000000 28.362274L216.469223 32.057800Z" style="stroke:rgb(0.000000%,0.000000%,0.000000%); stroke-width: 2.000000;fill: rgb(0.000000%,0.000000%,0.000000%);"></path>
  <path d="M218.000000 42.535477L232.173203 42.535477" style="stroke:rgb(0.000000%,0.000000%,0.000000%); stroke-width: 2.000000;stroke-linecap: round;stroke-linejoin: round;stroke-miterlimit: 10.000000;fill: none;"></path>
  <path d="M228.477676 44.066254L232.173203 42.535477L228.477676 41.004700Z" style="stroke:rgb(0.000000%,0.000000%,0.000000%); stroke-width: 2.000000;fill: rgb(0.000000%,0.000000%,0.000000%);"></path>
  <path d="M218.000000 255.133850L218.000000 240.960648" style="stroke:rgb(0.000000%,0.000000%,0.000000%); stroke-width: 2.000000;stroke-linecap: round;stroke-linejoin: round;stroke-miterlimit: 10.000000;fill: none;"></path>
  <path d="M219.530777 244.656174L218.000000 240.960648L216.469223 244.656174Z" style="stroke:rgb(0.000000%,0.000000%,0.000000%); stroke-width: 2.000000;fill: rgb(0.000000%,0.000000%,0.000000%);"></path>
  <path d="M218.000000 255.133850L232.173203 255.133850" style="stroke:rgb(0.000000%,0.000000%,0.000000%); stroke-width: 2.000000;stroke-linecap: round;stroke-linejoin: round;stroke-miterlimit: 10.000000;fill: none;"></path>
  <path d="M228.477676 256.664627L232.173203 255.133850L228.477676 253.603073Z" style="stroke:rgb(0.000000%,0.000000%,0.000000%); stroke-width: 2.000000;fill: rgb(0.000000%,0.000000%,0.000000%);"></path>
  <path d="M132.960648 113.401611L132.960648 99.228409" style="stroke:rgb(0.000000%,0.000000%,0.000000%); stroke-width: 2.000000;stroke-linecap: round;stroke-linejoin: round;stroke-miterlimit: 10.000000;fill: none;"></path>
  <path d="M134.491425 102.923935L132.960648 99.228409L131.429871 102.923935Z" style="stroke:rgb(0.000000%,0.000000%,0.000000%); stroke-width: 2.000000;fill: rgb(0.000000%,0.000000%,0.000000%);"></path>
  <path d="M132.960648 113.401611L147.133850 113.401611" style="stroke:rgb(0.000000%,0.000000%,0.000000%); stroke-width: 2.000000;stroke-linecap: round;stroke-linejoin: round;stroke-miterlimit: 10.000000;fill: none;"></path>
  <path d="M143.438324 114.932388L147.133850 113.401611L143.438324 111.870834Z" style="stroke:rgb(0.000000%,0.000000%,0.000000%); stroke-width: 2.000000;fill: rgb(0.000000%,0.000000%,0.000000%);"></path>
  <path d="M303.039352 113.401611L303.039352 99.228409" style="stroke:rgb(0.000000%,0.000000%,0.000000%); stroke-width: 2.000000;stroke-linecap: round;stroke-linejoin: round;stroke-miterlimit: 10.000000;fill: none;"></path>
  <path d="M304.570129 102.923935L303.039352 99.228409L301.508575 102.923935Z" style="stroke:rgb(0.000000%,0.000000%,0.000000%); stroke-width: 2.000000;fill: rgb(0.000000%,0.000000%,0.000000%);"></path>
  <path d="M303.039352 113.401611L317.212555 113.401611" style="stroke:rgb(0.000000%,0.000000%,0.000000%); stroke-width: 2.000000;stroke-linecap: round;stroke-linejoin: round;stroke-miterlimit: 10.000000;fill: none;"></path>
  <path d="M313.517029 114.932388L317.212555 113.401611L313.517029 111.870834Z" style="stroke:rgb(0.000000%,0.000000%,0.000000%); stroke-width: 2.000000;fill: rgb(0.000000%,0.000000%,0.000000%);"></path>
  <path d="M91.374786 183.729263L93.835892 169.771469" style="stroke:rgb(0.000000%,0.000000%,0.000000%); stroke-width: 2.000000;stroke-linecap: round;stroke-linejoin: round;stroke-miterlimit: 10.000000;fill: none;"></path>
  <path d="M94.701675 173.676636L93.835892 169.771469L91.686661 173.145020Z" style="stroke:rgb(0.000000%,0.000000%,0.000000%); stroke-width: 2.000000;fill: rgb(0.000000%,0.000000%,0.000000%);"></path>
  <path d="M91.374786 183.729263L105.332581 186.190369" style="stroke:rgb(0.000000%,0.000000%,0.000000%); stroke-width: 2.000000;stroke-linecap: round;stroke-linejoin: round;stroke-miterlimit: 10.000000;fill: none;"></path>
  <path d="M101.427414 187.056152L105.332581 186.190369L101.959030 184.041138Z" style="stroke:rgb(0.000000%,0.000000%,0.000000%); stroke-width: 2.000000;fill: rgb(0.000000%,0.000000%,0.000000%);"></path>
  <path d="M344.625214 183.729263L342.164108 169.771469" style="stroke:rgb(0.000000%,0.000000%,0.000000%); stroke-width: 2.000000;stroke-linecap: round;stroke-linejoin: round;stroke-miterlimit: 10.000000;fill: none;"></path>
  <path d="M344.313339 173.145020L342.164108 169.771469L341.298325 173.676636Z" style="stroke:rgb(0.000000%,0.000000%,0.000000%); stroke-width: 2.000000;fill: rgb(0.000000%,0.000000%,0.000000%);"></path>
  <path d="M344.625214 183.729263L358.583008 181.268158" style="stroke:rgb(0.000000%,0.000000%,0.000000%); stroke-width: 2.000000;stroke-linecap: round;stroke-linejoin: round;stroke-miterlimit: 10.000000;fill: none;"></path>
  <path d="M355.209457 183.417389L358.583008 181.268158L354.677841 180.402374Z" style="stroke:rgb(0.000000%,0.000000%,0.000000%); stroke-width: 2.000000;fill: rgb(0.000000%,0.000000%,0.000000%);"></path>
  <path d="M66.763687 323.307510L69.224792 309.349716" style="stroke:rgb(0.000000%,0.000000%,0.000000%); stroke-width: 2.000000;stroke-linecap: round;stroke-linejoin: round;stroke-miterlimit: 10.000000;fill: none;"></path>
  <path d="M70.090576 313.254883L69.224792 309.349716L67.075562 312.723267Z" style="stroke:rgb(0.000000%,0.000000%,0.000000%); stroke-width: 2.000000;fill: rgb(0.000000%,0.000000%,0.000000%);"></path>
  <path d="M66.763687 323.307510L80.721481 325.768616" style="stroke:rgb(0.000000%,0.000000%,0.000000%); stroke-width: 2.000000;stroke-linecap: round;stroke-linejoin: round;stroke-miterlimit: 10.000000;fill: none;"></path>
  <path d="M76.816315 326.634399L80.721481 325.768616L77.347931 323.619385Z" style="stroke:rgb(0.000000%,0.000000%,0.000000%); stroke-width: 2.000000;fill: rgb(0.000000%,0.000000%,0.000000%);"></path>
  <path d="M369.236313 323.307510L366.775208 309.349716" style="stroke:rgb(0.000000%,0.000000%,0.000000%); stroke-width: 2.000000;stroke-linecap: round;stroke-linejoin: round;stroke-miterlimit: 10.000000;fill: none;"></path>
  <path d="M368.924438 312.723267L366.775208 309.349716L365.909424 313.254883Z" style="stroke:rgb(0.000000%,0.000000%,0.000000%); stroke-width: 2.000000;fill: rgb(0.000000%,0.000000%,0.000000%);"></path>
  <path d="M369.236313 323.307510L383.194107 320.846405" style="stroke:rgb(0.000000%,0.000000%,0.000000%); stroke-width: 2.000000;stroke-linecap: round;stroke-linejoin: round;stroke-miterlimit: 10.000000;fill: none;"></path>
  <path d="M379.820557 322.995636L383.194107 320.846405L379.288940 319.980621Z" style="stroke:rgb(0.000000%,0.000000%,0.000000%); stroke-width: 2.000000;fill: rgb(0.000000%,0.000000%,0.000000%);"></path>
  <path d="M69.224792 309.349686L71.685898 295.391891" style="stroke:rgb(0.000000%,0.000000%,0.000000%); stroke-width: 2.000000;stroke-linecap: round;stroke-linejoin: round;stroke-miterlimit: 10.000000;fill: none;"></path>
  <path d="M72.551682 299.297058L71.685898 295.391891L69.536667 298.765442Z" style="stroke:rgb(0.000000%,0.000000%,0.000000%); stroke-width: 2.000000;fill: rgb(0.000000%,0.000000%,0.000000%);"></path>
  <path d="M69.224792 309.349686L83.182587 311.810791" style="stroke:rgb(0.000000%,0.000000%,0.000000%); stroke-width: 2.000000;stroke-linecap: round;stroke-linejoin: round;stroke-miterlimit: 10.000000;fill: none;"></path>
  <path d="M79.277420 312.676575L83.182587 311.810791L79.809036 309.661560Z" style="stroke:rgb(0.000000%,0.000000%,0.000000%); stroke-width: 2.000000;fill: rgb(0.000000%,0.000000%,0.000000%);"></path>
  <path d="M366.775208 309.349686L364.314102 295.391891" style="stroke:rgb(0.000000%,0.000000%,0.000000%); stroke-width: 2.000000;stroke-linecap: round;stroke-linejoin: round;stroke-miterlimit: 10.000000;fill: none;"></path>
  <path d="M366.463333 298.765442L364.314102 295.391891L363.448318 299.297058Z" style="stroke:rgb(0.000000%,0.000000%,0.000000%); stroke-width: 2.000000;fill: rgb(0.000000%,0.000000%,0.000000%);"></path>
  <path d="M366.775208 309.349686L380.733002 306.888580" style="stroke:rgb(0.000000%,0.000000%,0.000000%); stroke-width: 2.000000;stroke-linecap: round;stroke-linejoin: round;stroke-miterlimit: 10.000000;fill: none;"></path>
  <path d="M377.359451 309.037811L380.733002 306.888580L376.827835 306.022797Z" style="stroke:rgb(0.000000%,0.000000%,0.000000%); stroke-width: 2.000000;fill: rgb(0.000000%,0.000000%,0.000000%);"></path>
  <path d="M161.307098 326.000000L163.768204 312.042206" style="stroke:rgb(0.000000%,0.000000%,0.000000%); stroke-width: 2.000000;stroke-linecap: round;stroke-linejoin: round;stroke-miterlimit: 10.000000;fill: none;"></path>
  <path d="M164.633987 315.947372L163.768204 312.042206L161.618973 315.415756Z" style="stroke:rgb(0.000000%,0.000000%,0.000000%); stroke-width: 2.000000;fill: rgb(0.000000%,0.000000%,0.000000%);"></path>
  <path d="M161.307098 326.000000L175.264893 328.461105" style="stroke:rgb(0.000000%,0.000000%,0.000000%); stroke-width: 2.000000;stroke-linecap: round;stroke-linejoin: round;stroke-miterlimit: 10.000000;fill: none;"></path>
  <path d="M171.359726 329.326889L175.264893 328.461105L171.891342 326.311874Z" style="stroke:rgb(0.000000%,0.000000%,0.000000%); stroke-width: 2.000000;fill: rgb(0.000000%,0.000000%,0.000000%);"></path>
  <path d="M274.692902 326.000000L272.231796 312.042206" style="stroke:rgb(0.000000%,0.000000%,0.000000%); stroke-width: 2.000000;stroke-linecap: round;stroke-linejoin: round;stroke-miterlimit: 10.000000;fill: none;"></path>
  <path d="M274.381027 315.415756L272.231796 312.042206L271.366013 315.947372Z" style="stroke:rgb(0.000000%,0.000000%,0.000000%); stroke-width: 2.000000;fill: rgb(0.000000%,0.000000%,0.000000%);"></path>
  <path d="M274.692902 326.000000L288.650696 323.538895" style="stroke:rgb(0.000000%,0.000000%,0.000000%); stroke-width: 2.000000;stroke-linecap: round;stroke-linejoin: round;stroke-miterlimit: 10.000000;fill: none;"></path>
  <path d="M285.277145 325.688126L288.650696 323.538895L284.745529 322.673111Z" style="stroke:rgb(0.000000%,0.000000%,0.000000%); stroke-width: 2.000000;fill: rgb(0.000000%,0.000000%,0.000000%);"></path>
  <path d="M131.773773 493.493896L134.234879 479.536102" style="stroke:rgb(0.000000%,0.000000%,0.000000%); stroke-width: 2.000000;stroke-linecap: round;stroke-linejoin: round;stroke-miterlimit: 10.000000;fill: none;"></path>
  <path d="M135.100662 483.441269L134.234879 479.536102L132.085648 482.909653Z" style="stroke:rgb(0.000000%,0.000000%,0.000000%); stroke-width: 2.000000;fill: rgb(0.000000%,0.000000%,0.000000%);"></path>
  <path d="M131.773773 493.493896L145.731567 495.955002" style="stroke:rgb(0.000000%,0.000000%,0.000000%); stroke-width: 2.000000;stroke-linecap: round;stroke-linejoin: round;stroke-miterlimit: 10.000000;fill: none;"></path>
  <path d="M141.826401 496.820786L145.731567 495.955002L142.358017 493.805771Z" style="stroke:rgb(0.000000%,0.000000%,0.000000%); stroke-width: 2.000000;fill: rgb(0.000000%,0.000000%,0.000000%);"></path>
  <path d="M304.226227 493.493896L301.765121 479.536102" style="stroke:rgb(0.000000%,0.000000%,0.000000%); stroke-width: 2.000000;stroke-linecap: round;stroke-linejoin: round;stroke-miterlimit: 10.000000;fill: none;"></path>
  <path d="M303.914352 482.909653L301.765121 479.536102L300.899338 483.441269Z" style="stroke:rgb(0.000000%,0.000000%,0.000000%); stroke-width: 2.000000;fill: rgb(0.000000%,0.000000%,0.000000%);"></path>
  <path d="M304.226227 493.493896L318.184021 491.032791" style="stroke:rgb(0.000000%,0.000000%,0.000000%); stroke-width: 2.000000;stroke-linecap: round;stroke-linejoin: round;stroke-miterlimit: 10.000000;fill: none;"></path>
  <path d="M314.810471 493.182022L318.184021 491.032791L314.278854 490.167007Z" style="stroke:rgb(0.000000%,0.000000%,0.000000%); stroke-width: 2.000000;fill: rgb(0.000000%,0.000000%,0.000000%);"></path>
  <path d="M134.234894 479.536072L136.695999 465.578278" style="stroke:rgb(0.000000%,0.000000%,0.000000%); stroke-width: 2.000000;stroke-linecap: round;stroke-linejoin: round;stroke-miterlimit: 10.000000;fill: none;"></path>
  <path d="M137.561783 469.483444L136.695999 465.578278L134.546768 468.951828Z" style="stroke:rgb(0.000000%,0.000000%,0.000000%); stroke-width: 2.000000;fill: rgb(0.000000%,0.000000%,0.000000%);"></path>
  <path d="M134.234894 479.536072L148.192688 481.997177" style="stroke:rgb(0.000000%,0.000000%,0.000000%); stroke-width: 2.000000;stroke-linecap: round;stroke-linejoin: round;stroke-miterlimit: 10.000000;fill: none;"></path>
  <path d="M144.287521 482.862961L148.192688 481.997177L144.819138 479.847946Z" style="stroke:rgb(0.000000%,0.000000%,0.000000%); stroke-width: 2.000000;fill: rgb(0.000000%,0.000000%,0.000000%);"></path>
  <path d="M301.765106 479.536072L299.304001 465.578278" style="stroke:rgb(0.000000%,0.000000%,0.000000%); stroke-width: 2.000000;stroke-linecap: round;stroke-linejoin: round;stroke-miterlimit: 10.000000;fill: none;"></path>
  <path d="M301.453232 468.951828L299.304001 465.578278L298.438217 469.483444Z" style="stroke:rgb(0.000000%,0.000000%,0.000000%); stroke-width: 2.000000;fill: rgb(0.000000%,0.000000%,0.000000%);"></path>
  <path d="M301.765106 479.536072L315.722900 477.074966" style="stroke:rgb(0.000000%,0.000000%,0.000000%); stroke-width: 2.000000;stroke-linecap: round;stroke-linejoin: round;stroke-miterlimit: 10.000000;fill: none;"></path>
  <path d="M312.349350 479.224197L315.722900 477.074966L311.817734 476.209183Z" style="stroke:rgb(0.000000%,0.000000%,0.000000%); stroke-width: 2.000000;fill: rgb(0.000000%,0.000000%,0.000000%);"></path>
  <path d="M132.960648 326.000000C189.652679 326.000000,246.347321 326.000000,303.039352 326.000000L303.039352 255.133850C246.347321 255.133850,189.652679 255.133850,132.960648 255.133850Z" style="stroke:rgb(0.000000%,0.000000%,0.000000%); stroke-width: 0.500000;stroke-linecap: round;stroke-dasharray: 3.000000 3.000000 ;stroke-linejoin: round;stroke-miterlimit: 10.000000;fill: none;"></path>
  <path d="M246.346451 85.055161C246.346451 77.536880,243.359375 70.327423,238.043564 65.011597C232.727737 59.695786,225.518280 56.708710,218.000000 56.708710C210.481720 56.708710,203.272263 59.695786,197.956436 65.011597C192.640625 70.327423,189.653549 77.536880,189.653549 85.055161C189.653549 92.573441,192.640625 99.782898,197.956436 105.098724C203.272263 110.414536,210.481720 113.401611,218.000000 113.401611C225.518280 113.401611,232.727737 110.414536,238.043564 105.098724C243.359375 99.782898,246.346451 92.573441,246.346451 85.055161Z" style="stroke:rgb(0.000000%,0.000000%,0.000000%); stroke-width: 0.500000;stroke-linecap: round;stroke-dasharray: 3.000000 3.000000 ;stroke-linejoin: round;stroke-miterlimit: 10.000000;fill: none;"></path>
  <path d="M288.866135 184.267731C288.866135 165.472031,281.398453 147.448395,268.108887 134.158844C254.819336 120.869278,236.795700 113.401596,218.000000 113.401596C199.204300 113.401596,181.180664 120.869278,167.891113 134.158844C154.601547 147.448395,147.133865 165.472031,147.133865 184.267731C147.133865 203.063431,154.601547 221.087067,167.891113 234.376617C181.180664 247.666183,199.204300 255.133865,218.000000 255.133865C236.795700 255.133865,254.819336 247.666183,268.108887 234.376617C281.398453 221.087067,288.866135 203.063431,288.866135 184.267731Z" style="stroke:rgb(0.000000%,0.000000%,0.000000%); stroke-width: 0.500000;stroke-linecap: round;stroke-dasharray: 3.000000 3.000000 ;stroke-linejoin: round;stroke-miterlimit: 10.000000;fill: none;"></path>
  <path d="M232.173233 42.535477C232.173233 38.776337,230.679688 35.171616,228.021774 32.513702C225.363861 29.855789,221.759140 28.362244,218.000000 28.362244C214.240860 28.362244,210.636139 29.855789,207.978226 32.513702C205.320312 35.171616,203.826767 38.776337,203.826767 42.535477C203.826767 46.294617,205.320312 49.899338,207.978226 52.557251C210.636139 55.215164,214.240860 56.708710,218.000000 56.708710C221.759140 56.708710,225.363861 55.215164,228.021774 52.557251C230.679688 49.899338,232.173233 46.294617,232.173233 42.535477Z" style="stroke:rgb(0.000000%,0.000000%,0.000000%); stroke-width: 0.500000;stroke-linecap: round;stroke-dasharray: 3.000000 3.000000 ;stroke-linejoin: round;stroke-miterlimit: 10.000000;fill: none;"></path>
  <path d="M253.433075 290.566925C253.433075 281.169067,249.699234 272.157257,243.054443 265.512482C236.409668 258.867691,227.397858 255.133850,218.000000 255.133850C208.602142 255.133850,199.590332 258.867691,192.945557 265.512482C186.300766 272.157257,182.566925 281.169067,182.566925 290.566925C182.566925 299.964783,186.300766 308.976593,192.945557 315.621368C199.590332 322.266159,208.602142 326.000000,218.000000 326.000000C227.397858 326.000000,236.409668 322.266159,243.054443 315.621368C249.699234 308.976593,253.433075 299.964783,253.433075 290.566925Z" style="stroke:rgb(0.000000%,0.000000%,0.000000%); stroke-width: 0.500000;stroke-linecap: round;stroke-dasharray: 3.000000 3.000000 ;stroke-linejoin: round;stroke-miterlimit: 10.000000;fill: none;"></path>
  <path d="M132.960648 148.834686C132.960648 139.436829,129.226807 130.425018,122.582016 123.780243C115.937241 117.135452,106.925430 113.401611,97.527573 113.401611C88.129715 113.401611,79.117905 117.135452,72.473129 123.780243C65.828339 130.425018,62.094498 139.436829,62.094498 148.834686C62.094498 158.232544,65.828339 167.244354,72.473129 173.889130C79.117905 180.533920,88.129715 184.267761,97.527573 184.267761C106.925430 184.267761,115.937241 180.533920,122.582016 173.889130C129.226807 167.244354,132.960648 158.232544,132.960648 148.834686Z" style="stroke:rgb(0.000000%,0.000000%,0.000000%); stroke-width: 0.500000;stroke-linecap: round;stroke-dasharray: 3.000000 3.000000 ;stroke-linejoin: round;stroke-miterlimit: 10.000000;fill: none;"></path>
  <path d="M373.905502 148.834686C373.905502 139.436829,370.171661 130.425018,363.526871 123.780243C356.882095 117.135452,347.870285 113.401611,338.472427 113.401611C329.074570 113.401611,320.062759 117.135452,313.417984 123.780243C306.773193 130.425018,303.039352 139.436829,303.039352 148.834686C303.039352 158.232544,306.773193 167.244354,313.417984 173.889130C320.062759 180.533920,329.074570 184.267761,338.472427 184.267761C347.870285 184.267761,356.882095 180.533920,363.526871 173.889130C370.171661 167.244354,373.905502 158.232544,373.905502 148.834686Z" style="stroke:rgb(0.000000%,0.000000%,0.000000%); stroke-width: 0.500000;stroke-linecap: round;stroke-dasharray: 3.000000 3.000000 ;stroke-linejoin: round;stroke-miterlimit: 10.000000;fill: none;"></path>
  <path d="M137.361649 249.404999C139.972672 234.596954,136.593094 219.359833,127.969147 207.043610C119.345200 194.727402,106.182831 186.340286,91.374786 183.729263C76.566742 181.118240,61.329605 184.497818,49.013397 193.121765C36.697189 201.745697,28.310074 214.908081,25.699051 229.716125C23.088028 244.524155,26.467606 259.761292,35.091537 272.077515C43.715485 284.393723,56.877869 292.780838,71.685913 295.391861C86.493958 298.002884,101.731079 294.623306,114.047287 285.999359C126.363510 277.375427,134.750626 264.213028,137.361649 249.404999Z" style="stroke:rgb(0.000000%,0.000000%,0.000000%); stroke-width: 0.500000;stroke-linecap: round;stroke-dasharray: 3.000000 3.000000 ;stroke-linejoin: round;stroke-miterlimit: 10.000000;fill: none;"></path>
  <path d="M410.300949 229.716125C407.689926 214.908081,399.302811 201.745697,386.986603 193.121765C374.670395 184.497818,359.433258 181.118240,344.625214 183.729263C329.817169 186.340286,316.654800 194.727402,308.030853 207.043610C299.406906 219.359833,296.027328 234.596954,298.638351 249.404999C301.249374 264.213028,309.636490 277.375427,321.952713 285.999359C334.268921 294.623306,349.506042 298.002884,364.314087 295.391861C379.122131 292.780838,392.284515 284.393723,400.908463 272.077515C409.532394 259.761292,412.911972 244.524155,410.300949 229.716125Z" style="stroke:rgb(0.000000%,0.000000%,0.000000%); stroke-width: 0.500000;stroke-linecap: round;stroke-dasharray: 3.000000 3.000000 ;stroke-linejoin: round;stroke-miterlimit: 10.000000;fill: none;"></path>
  <path d="M112.750549 388.983246C115.361572 374.175201,111.981995 358.938080,103.358047 346.621857C94.734100 334.305649,81.571732 325.918533,66.763687 323.307510C51.955643 320.696487,36.718506 324.076065,24.402298 332.700012C12.086090 341.323944,3.698975 354.486328,1.087952 369.294373C-1.523071 384.102402,1.856506 399.339539,10.480438 411.655762C19.104385 423.971970,32.266769 432.359085,47.074814 434.970108C61.882858 437.581131,77.119980 434.201553,89.436188 425.577606C101.752411 416.953674,110.139526 403.791275,112.750549 388.983246Z" style="stroke:rgb(0.000000%,0.000000%,0.000000%); stroke-width: 0.500000;stroke-linecap: round;stroke-dasharray: 3.000000 3.000000 ;stroke-linejoin: round;stroke-miterlimit: 10.000000;fill: none;"></path>
  <path d="M434.912048 369.294373C432.301025 354.486328,423.913910 341.323944,411.597702 332.700012C399.281494 324.076065,384.044357 320.696487,369.236313 323.307510C354.428268 325.918533,341.265900 334.305649,332.641953 346.621857C324.018005 358.938080,320.638428 374.175201,323.249451 388.983246C325.860474 403.791275,334.247589 416.953674,346.563812 425.577606C358.880020 434.201553,374.117142 437.581131,388.925186 434.970108C403.733231 432.359085,416.895615 423.971970,425.519562 411.655762C434.143494 399.339539,437.523071 384.102402,434.912048 369.294373Z" style="stroke:rgb(0.000000%,0.000000%,0.000000%); stroke-width: 0.500000;stroke-linecap: round;stroke-dasharray: 3.000000 3.000000 ;stroke-linejoin: round;stroke-miterlimit: 10.000000;fill: none;"></path>
  <path d="M218.790665 408.094681C222.054443 389.584641,217.829971 370.538177,207.050064 355.142944C196.270142 339.747681,179.817139 329.263779,161.307098 326.000000C142.797058 322.736221,123.750610 326.960693,108.355362 337.740631C92.960098 348.520538,82.476196 364.973526,79.212418 383.483566C75.948639 401.993622,80.173111 421.040070,90.953033 436.435318C101.732956 451.830566,118.185959 462.314484,136.695999 465.578262C155.206039 468.842041,174.252487 464.617554,189.647736 453.837631C205.042984 443.057709,215.526886 426.604736,218.790665 408.094681Z" style="stroke:rgb(0.000000%,0.000000%,0.000000%); stroke-width: 0.500000;stroke-linecap: round;stroke-dasharray: 3.000000 3.000000 ;stroke-linejoin: round;stroke-miterlimit: 10.000000;fill: none;"></path>
  <path d="M356.787582 383.483566C353.523804 364.973526,343.039902 348.520538,327.644638 337.740631C312.249390 326.960693,293.202942 322.736221,274.692902 326.000000C256.182861 329.263779,239.729858 339.747681,228.949936 355.142944C218.170029 370.538177,213.945557 389.584641,217.209335 408.094681C220.473114 426.604736,230.957016 443.057709,246.352264 453.837631C261.747513 464.617554,280.793961 468.842041,299.304001 465.578262C317.814041 462.314484,334.267044 451.830566,345.046967 436.435318C355.826889 421.040070,360.051361 401.993622,356.787582 383.483566Z" style="stroke:rgb(0.000000%,0.000000%,0.000000%); stroke-width: 0.500000;stroke-linecap: round;stroke-dasharray: 3.000000 3.000000 ;stroke-linejoin: round;stroke-miterlimit: 10.000000;fill: none;"></path>
  <path d="M212.250778 608.426437C216.820068 582.512375,210.905792 555.847366,195.813919 534.294006C180.722015 512.740662,157.687836 498.063187,131.773773 493.493896C105.859711 488.924606,79.194702 494.838867,57.641342 509.930756C36.087982 525.022659,21.410522 548.056839,16.841232 573.970901C12.271942 599.884979,18.186203 626.549973,33.278091 648.103333C48.369995 669.656677,71.404175 684.334167,97.318237 688.903458C123.232300 693.472748,149.897308 687.558472,171.450668 672.466583C193.004013 657.374680,207.681488 634.340515,212.250778 608.426437Z" style="stroke:rgb(0.000000%,0.000000%,0.000000%); stroke-width: 0.500000;stroke-linecap: round;stroke-dasharray: 3.000000 3.000000 ;stroke-linejoin: round;stroke-miterlimit: 10.000000;fill: none;"></path>
  <path d="M419.158768 573.970901C414.589478 548.056839,399.912018 525.022659,378.358658 509.930756C356.805298 494.838867,330.140289 488.924606,304.226227 493.493896C278.312164 498.063187,255.277985 512.740662,240.186081 534.294006C225.094208 555.847366,219.179932 582.512375,223.749222 608.426437C228.318512 634.340515,242.995987 657.374680,264.549332 672.466583C286.102692 687.558472,312.767700 693.472748,338.681763 688.903458C364.595825 684.334167,387.630005 669.656677,402.721909 648.103333C417.813797 626.549973,423.728058 599.884979,419.158768 573.970901Z" style="stroke:rgb(0.000000%,0.000000%,0.000000%); stroke-width: 0.500000;stroke-linecap: round;stroke-dasharray: 3.000000 3.000000 ;stroke-linejoin: round;stroke-miterlimit: 10.000000;fill: none;"></path>
  <path d="M144.353561 42.535477L218.000000 85.055161" style="stroke:rgb(0.000000%,0.000000%,0.000000%); stroke-width: 0.500000;stroke-linecap: round;stroke-linejoin: round;stroke-miterlimit: 10.000000;fill: none;"></path>
  <path d="M214.033737 84.533035L218.000000 85.055161L215.564682 81.881332Z" style="stroke:rgb(0.000000%,0.000000%,0.000000%); stroke-width: 0.500000;fill: rgb(0.000000%,0.000000%,0.000000%);"></path>
  <path d="M108.674805 53.981155L218.000000 184.267731" style="stroke:rgb(0.000000%,0.000000%,0.000000%); stroke-width: 0.500000;stroke-linecap: round;stroke-linejoin: round;stroke-miterlimit: 10.000000;fill: none;"></path>
  <path d="M214.452637 182.421173L218.000000 184.267731L216.797424 180.453644Z" style="stroke:rgb(0.000000%,0.000000%,0.000000%); stroke-width: 0.500000;fill: rgb(0.000000%,0.000000%,0.000000%);"></path>
  <path d="M144.353561 0.015793L218.000000 42.535477" style="stroke:rgb(0.000000%,0.000000%,0.000000%); stroke-width: 0.500000;stroke-linecap: round;stroke-linejoin: round;stroke-miterlimit: 10.000000;fill: none;"></path>
  <path d="M214.033737 42.013351L218.000000 42.535477L215.564682 39.361649Z" style="stroke:rgb(0.000000%,0.000000%,0.000000%); stroke-width: 0.500000;fill: rgb(0.000000%,0.000000%,0.000000%);"></path>
  <path d="M-0.667694 92.141785L97.527573 148.834686" style="stroke:rgb(0.000000%,0.000000%,0.000000%); stroke-width: 0.500000;stroke-linecap: round;stroke-linejoin: round;stroke-miterlimit: 10.000000;fill: none;"></path>
  <path d="M93.561737 148.312622L97.527573 148.834686L95.092499 145.661224Z" style="stroke:rgb(0.000000%,0.000000%,0.000000%); stroke-width: 0.500000;fill: rgb(0.000000%,0.000000%,0.000000%);"></path>
  <path d="M436.667694 92.141785L338.472427 148.834686" style="stroke:rgb(0.000000%,0.000000%,0.000000%); stroke-width: 0.500000;stroke-linecap: round;stroke-linejoin: round;stroke-miterlimit: 10.000000;fill: none;"></path>
  <path d="M340.907501 145.661224L338.472427 148.834686L342.438263 148.312622Z" style="stroke:rgb(0.000000%,0.000000%,0.000000%); stroke-width: 0.500000;fill: rgb(0.000000%,0.000000%,0.000000%);"></path>
  <path d="M218.000000 113.401611L218.000000 85.055161" style="stroke:rgb(0.000000%,0.000000%,100.000000%); stroke-width: 0.500000;stroke-linecap: round;stroke-linejoin: round;stroke-miterlimit: 10.000000;fill: none;"></path>
  <path d="M219.530792 88.750732L218.000000 85.055161L216.469208 88.750732Z" style="stroke:rgb(0.000000%,0.000000%,100.000000%); stroke-width: 0.500000;fill: rgb(0.000000%,0.000000%,100.000000%);"></path>
  <path d="M218.000000 255.133865L218.000000 184.267731" style="stroke:rgb(0.000000%,0.000000%,100.000000%); stroke-width: 0.500000;stroke-linecap: round;stroke-linejoin: round;stroke-miterlimit: 10.000000;fill: none;"></path>
  <path d="M219.530701 187.963089L218.000000 184.267731L216.469299 187.963089Z" style="stroke:rgb(0.000000%,0.000000%,100.000000%); stroke-width: 0.500000;fill: rgb(0.000000%,0.000000%,100.000000%);"></path>
  <path d="M218.000000 42.535477L218.000000 42.535477" style="stroke:rgb(0.000000%,0.000000%,100.000000%); stroke-width: 0.500000;stroke-linecap: round;stroke-linejoin: round;stroke-miterlimit: 10.000000;fill: none;"></path>
  <path d="M218.000000 42.535477Z" style="stroke:rgb(0.000000%,0.000000%,100.000000%); stroke-width: 0.500000;fill: rgb(0.000000%,0.000000%,100.000000%);"></path>
  <path d="M218.000000 255.133850L218.000000 290.566925" style="stroke:rgb(0.000000%,0.000000%,100.000000%); stroke-width: 0.500000;stroke-linecap: round;stroke-linejoin: round;stroke-miterlimit: 10.000000;fill: none;"></path>
  <path d="M216.469299 286.871567L218.000000 290.566925L219.530701 286.871567Z" style="stroke:rgb(0.000000%,0.000000%,100.000000%); stroke-width: 0.500000;fill: rgb(0.000000%,0.000000%,100.000000%);"></path>
  <path d="M132.960648 113.401611L97.527573 148.834686" style="stroke:rgb(0.000000%,0.000000%,100.000000%); stroke-width: 0.500000;stroke-linecap: round;stroke-linejoin: round;stroke-miterlimit: 10.000000;fill: none;"></path>
  <path d="M99.058151 145.139435L97.527573 148.834686L101.222824 147.304108Z" style="stroke:rgb(0.000000%,0.000000%,100.000000%); stroke-width: 0.500000;fill: rgb(0.000000%,0.000000%,100.000000%);"></path>
  <path d="M303.039352 113.401611L338.472427 148.834686" style="stroke:rgb(0.000000%,0.000000%,100.000000%); stroke-width: 0.500000;stroke-linecap: round;stroke-linejoin: round;stroke-miterlimit: 10.000000;fill: none;"></path>
  <path d="M334.777176 147.304108L338.472427 148.834686L336.941849 145.139435Z" style="stroke:rgb(0.000000%,0.000000%,100.000000%); stroke-width: 0.500000;fill: rgb(0.000000%,0.000000%,100.000000%);"></path>
  <path d="M91.374786 183.729263L81.530350 239.560562" style="stroke:rgb(0.000000%,0.000000%,100.000000%); stroke-width: 0.500000;stroke-linecap: round;stroke-linejoin: round;stroke-miterlimit: 10.000000;fill: none;"></path>
  <path d="M80.664566 235.655334L81.530350 239.560562L83.679611 236.186981Z" style="stroke:rgb(0.000000%,0.000000%,100.000000%); stroke-width: 0.500000;fill: rgb(0.000000%,0.000000%,100.000000%);"></path>
  <path d="M344.625214 183.729263L354.469650 239.560562" style="stroke:rgb(0.000000%,0.000000%,100.000000%); stroke-width: 0.500000;stroke-linecap: round;stroke-linejoin: round;stroke-miterlimit: 10.000000;fill: none;"></path>
  <path d="M352.320389 236.186981L354.469650 239.560562L355.335434 235.655334Z" style="stroke:rgb(0.000000%,0.000000%,100.000000%); stroke-width: 0.500000;fill: rgb(0.000000%,0.000000%,100.000000%);"></path>
  <path d="M66.763687 323.307510L56.919250 379.138809" style="stroke:rgb(0.000000%,0.000000%,100.000000%); stroke-width: 0.500000;stroke-linecap: round;stroke-linejoin: round;stroke-miterlimit: 10.000000;fill: none;"></path>
  <path d="M56.053467 375.233582L56.919250 379.138809L59.068512 375.765228Z" style="stroke:rgb(0.000000%,0.000000%,100.000000%); stroke-width: 0.500000;fill: rgb(0.000000%,0.000000%,100.000000%);"></path>
  <path d="M369.236313 323.307510L379.080750 379.138809" style="stroke:rgb(0.000000%,0.000000%,100.000000%); stroke-width: 0.500000;stroke-linecap: round;stroke-linejoin: round;stroke-miterlimit: 10.000000;fill: none;"></path>
  <path d="M376.931488 375.765228L379.080750 379.138809L379.946533 375.233582Z" style="stroke:rgb(0.000000%,0.000000%,100.000000%); stroke-width: 0.500000;fill: rgb(0.000000%,0.000000%,100.000000%);"></path>
  <path d="M69.224792 309.349686L69.224792 309.349686" style="stroke:rgb(0.000000%,0.000000%,100.000000%); stroke-width: 0.500000;stroke-linecap: round;stroke-linejoin: round;stroke-miterlimit: 10.000000;fill: none;"></path>
  <path d="M69.224792 309.349686Z" style="stroke:rgb(0.000000%,0.000000%,100.000000%); stroke-width: 0.500000;fill: rgb(0.000000%,0.000000%,100.000000%);"></path>
  <path d="M366.775208 309.349686L366.775208 309.349686" style="stroke:rgb(0.000000%,0.000000%,100.000000%); stroke-width: 0.500000;stroke-linecap: round;stroke-linejoin: round;stroke-miterlimit: 10.000000;fill: none;"></path>
  <path d="M366.775208 309.349686Z" style="stroke:rgb(0.000000%,0.000000%,100.000000%); stroke-width: 0.500000;fill: rgb(0.000000%,0.000000%,100.000000%);"></path>
  <path d="M161.307098 326.000000L149.001541 395.789124" style="stroke:rgb(0.000000%,0.000000%,100.000000%); stroke-width: 0.500000;stroke-linecap: round;stroke-linejoin: round;stroke-miterlimit: 10.000000;fill: none;"></path>
  <path d="M148.135788 391.884125L149.001541 395.789124L151.150681 392.415741Z" style="stroke:rgb(0.000000%,0.000000%,100.000000%); stroke-width: 0.500000;fill: rgb(0.000000%,0.000000%,100.000000%);"></path>
  <path d="M274.692902 326.000000L286.998459 395.789124" style="stroke:rgb(0.000000%,0.000000%,100.000000%); stroke-width: 0.500000;stroke-linecap: round;stroke-linejoin: round;stroke-miterlimit: 10.000000;fill: none;"></path>
  <path d="M284.849319 392.415741L286.998459 395.789124L287.864212 391.884125Z" style="stroke:rgb(0.000000%,0.000000%,100.000000%); stroke-width: 0.500000;fill: rgb(0.000000%,0.000000%,100.000000%);"></path>
  <path d="M131.773773 493.493896L114.546005 591.198669" style="stroke:rgb(0.000000%,0.000000%,100.000000%); stroke-width: 0.500000;stroke-linecap: round;stroke-linejoin: round;stroke-miterlimit: 10.000000;fill: none;"></path>
  <path d="M113.680298 587.293900L114.546005 591.198669L116.695007 587.825485Z" style="stroke:rgb(0.000000%,0.000000%,100.000000%); stroke-width: 0.500000;fill: rgb(0.000000%,0.000000%,100.000000%);"></path>
  <path d="M304.226227 493.493896L321.453995 591.198669" style="stroke:rgb(0.000000%,0.000000%,100.000000%); stroke-width: 0.500000;stroke-linecap: round;stroke-linejoin: round;stroke-miterlimit: 10.000000;fill: none;"></path>
  <path d="M319.304993 587.825485L321.453995 591.198669L322.319702 587.293900Z" style="stroke:rgb(0.000000%,0.000000%,100.000000%); stroke-width: 0.500000;fill: rgb(0.000000%,0.000000%,100.000000%);"></path>
  <path d="M134.234894 479.536072L134.234894 479.536072" style="stroke:rgb(0.000000%,0.000000%,100.000000%); stroke-width: 0.500000;stroke-linecap: round;stroke-linejoin: round;stroke-miterlimit: 10.000000;fill: none;"></path>
  <path d="M134.234894 479.536072Z" style="stroke:rgb(0.000000%,0.000000%,100.000000%); stroke-width: 0.500000;fill: rgb(0.000000%,0.000000%,100.000000%);"></path>
  <path d="M301.765106 479.536072L301.765106 479.536072" style="stroke:rgb(0.000000%,0.000000%,100.000000%); stroke-width: 0.500000;stroke-linecap: round;stroke-linejoin: round;stroke-miterlimit: 10.000000;fill: none;"></path>
  <path d="M301.765106 479.536072Z" style="stroke:rgb(0.000000%,0.000000%,100.000000%); stroke-width: 0.500000;fill: rgb(0.000000%,0.000000%,100.000000%);"></path>
</svg>
