<?xml version="1.0"?>
<!-- Created by MetaPost 1.803 on 2016.06.02:2102 -->
<svg version="1.1" xmlns="http://www.w3.org/2000/svg" xmlns:xlink="http://www.w3.org/1999/xlink" width="351.995972" height="295.303070" viewBox="0 0 351.995972 295.303070">
<!-- Original BoundingBox: -175.997986 -5.919281 175.997986 289.383789 -->
  <defs>
    <g transform="scale(0.009963,0.009963)" id="GLYPHcmr10_39">
      <path style="fill-rule: evenodd;" d="M206.000000 -589.000000C206.000000 -649.000000,182.000000 -694.000000,139.000000 -694.000000C104.000000 -694.000000,86.000000 -667.000000,86.000000 -641.000000C86.000000 -615.000000,103.000000 -588.000000,139.000000 -588.000000C159.000000 -588.000000,173.000000 -598.000000,179.000000 -604.000000C180.000000 -606.000000,181.000000 -607.000000,182.000000 -607.000000C184.000000 -607.000000,184.000000 -593.000000,184.000000 -589.000000C184.000000 -557.000000,177.000000 -485.000000,114.000000 -423.000000C102.000000 -411.000000,102.000000 -409.000000,102.000000 -406.000000C102.000000 -399.000000,107.000000 -395.000000,112.000000 -395.000000C123.000000 -395.000000,206.000000 -471.000000,206.000000 -589.000000"></path>
    </g>
    <g transform="scale(0.009963,0.009963)" id="GLYPHcmr10_97">
      <path style="fill-rule: evenodd;" d="M333.000000 -76.000000C337.000000 -36.000000,364.000000 6.000000,411.000000 6.000000C432.000000 6.000000,493.000000 -8.000000,493.000000 -89.000000L493.000000 -145.000000L468.000000 -145.000000L468.000000 -89.000000C468.000000 -31.000000,443.000000 -25.000000,432.000000 -25.000000C399.000000 -25.000000,395.000000 -70.000000,395.000000 -75.000000L395.000000 -275.000000C395.000000 -317.000000,395.000000 -356.000000,359.000000 -393.000000C320.000000 -432.000000,270.000000 -448.000000,222.000000 -448.000000C140.000000 -448.000000,71.000000 -401.000000,71.000000 -335.000000C71.000000 -305.000000,91.000000 -288.000000,117.000000 -288.000000C145.000000 -288.000000,163.000000 -308.000000,163.000000 -334.000000C163.000000 -346.000000,158.000000 -379.000000,112.000000 -380.000000C139.000000 -415.000000,188.000000 -426.000000,220.000000 -426.000000C269.000000 -426.000000,326.000000 -387.000000,326.000000 -298.000000L326.000000 -261.000000C275.000000 -258.000000,205.000000 -255.000000,142.000000 -225.000000C67.000000 -191.000000,42.000000 -139.000000,42.000000 -95.000000C42.000000 -14.000000,139.000000 11.000000,202.000000 11.000000C268.000000 11.000000,314.000000 -29.000000,333.000000 -76.000000M326.000000 -240.000000L326.000000 -140.000000C326.000000 -45.000000,254.000000 -11.000000,209.000000 -11.000000C160.000000 -11.000000,119.000000 -46.000000,119.000000 -96.000000C119.000000 -151.000000,161.000000 -234.000000,326.000000 -240.000000"></path>
    </g>
    <g transform="scale(0.009963,0.009963)" id="GLYPHcmr10_98">
      <path style="fill-rule: evenodd;" d="M172.000000 -377.000000L172.000000 -694.000000L28.000000 -683.000000L28.000000 -652.000000C98.000000 -652.000000,106.000000 -645.000000,106.000000 -596.000000L106.000000 -0.000000L131.000000 -0.000000C132.000000 -1.000000,140.000000 -15.000000,167.000000 -62.000000C182.000000 -39.000000,224.000000 11.000000,298.000000 11.000000C417.000000 11.000000,521.000000 -87.000000,521.000000 -216.000000C521.000000 -343.000000,423.000000 -442.000000,309.000000 -442.000000C231.000000 -442.000000,188.000000 -395.000000,172.000000 -377.000000M175.000000 -114.000000L175.000000 -320.000000C175.000000 -339.000000,175.000000 -340.000000,186.000000 -356.000000C225.000000 -412.000000,280.000000 -420.000000,304.000000 -420.000000C349.000000 -420.000000,385.000000 -394.000000,409.000000 -356.000000C435.000000 -315.000000,438.000000 -258.000000,438.000000 -217.000000C438.000000 -180.000000,436.000000 -120.000000,407.000000 -75.000000C386.000000 -44.000000,348.000000 -11.000000,294.000000 -11.000000C249.000000 -11.000000,213.000000 -35.000000,189.000000 -72.000000C175.000000 -93.000000,175.000000 -96.000000,175.000000 -114.000000"></path>
    </g>
    <g transform="scale(0.009963,0.009963)" id="GLYPHcmr10_99">
      <path style="fill-rule: evenodd;" d="M117.000000 -218.000000C117.000000 -381.000000,199.000000 -423.000000,252.000000 -423.000000C261.000000 -423.000000,324.000000 -422.000000,359.000000 -386.000000C318.000000 -383.000000,312.000000 -353.000000,312.000000 -340.000000C312.000000 -314.000000,330.000000 -294.000000,358.000000 -294.000000C384.000000 -294.000000,404.000000 -311.000000,404.000000 -341.000000C404.000000 -409.000000,328.000000 -448.000000,251.000000 -448.000000C126.000000 -448.000000,34.000000 -340.000000,34.000000 -216.000000C34.000000 -88.000000,133.000000 11.000000,249.000000 11.000000C383.000000 11.000000,415.000000 -109.000000,415.000000 -119.000000C415.000000 -129.000000,405.000000 -129.000000,402.000000 -129.000000C393.000000 -129.000000,391.000000 -125.000000,389.000000 -119.000000C360.000000 -26.000000,295.000000 -14.000000,258.000000 -14.000000C205.000000 -14.000000,117.000000 -57.000000,117.000000 -218.000000"></path>
    </g>
    <g transform="scale(0.009963,0.009963)" id="GLYPHcmr10_100">
      <path style="fill-rule: evenodd;" d="M380.000000 -55.000000L380.000000 11.000000L527.000000 -0.000000L527.000000 -31.000000C457.000000 -31.000000,449.000000 -38.000000,449.000000 -87.000000L449.000000 -694.000000L305.000000 -683.000000L305.000000 -652.000000C375.000000 -652.000000,383.000000 -645.000000,383.000000 -596.000000L383.000000 -380.000000C354.000000 -416.000000,311.000000 -442.000000,257.000000 -442.000000C139.000000 -442.000000,34.000000 -344.000000,34.000000 -215.000000C34.000000 -88.000000,132.000000 11.000000,246.000000 11.000000C310.000000 11.000000,355.000000 -23.000000,380.000000 -55.000000M380.000000 -323.000000L380.000000 -118.000000C380.000000 -100.000000,380.000000 -98.000000,369.000000 -81.000000C339.000000 -33.000000,294.000000 -11.000000,251.000000 -11.000000C206.000000 -11.000000,170.000000 -37.000000,146.000000 -75.000000C120.000000 -116.000000,117.000000 -173.000000,117.000000 -214.000000C117.000000 -251.000000,119.000000 -311.000000,148.000000 -356.000000C169.000000 -387.000000,207.000000 -420.000000,261.000000 -420.000000C296.000000 -420.000000,338.000000 -405.000000,369.000000 -360.000000C380.000000 -343.000000,380.000000 -341.000000,380.000000 -323.000000"></path>
    </g>
    <g transform="scale(0.009963,0.009963)" id="GLYPHcmr10_101">
      <path style="fill-rule: evenodd;" d="M112.000000 -252.000000C118.000000 -401.000000,202.000000 -426.000000,236.000000 -426.000000C339.000000 -426.000000,349.000000 -291.000000,349.000000 -252.000000M111.000000 -231.000000L390.000000 -231.000000C412.000000 -231.000000,415.000000 -231.000000,415.000000 -252.000000C415.000000 -351.000000,361.000000 -448.000000,236.000000 -448.000000C120.000000 -448.000000,28.000000 -345.000000,28.000000 -220.000000C28.000000 -86.000000,133.000000 11.000000,248.000000 11.000000C370.000000 11.000000,415.000000 -100.000000,415.000000 -119.000000C415.000000 -129.000000,407.000000 -131.000000,402.000000 -131.000000C393.000000 -131.000000,391.000000 -125.000000,389.000000 -117.000000C354.000000 -14.000000,264.000000 -14.000000,254.000000 -14.000000C204.000000 -14.000000,164.000000 -44.000000,141.000000 -81.000000C111.000000 -129.000000,111.000000 -195.000000,111.000000 -231.000000"></path>
    </g>
    <g transform="scale(0.009963,0.009963)" id="GLYPHcmr10_102">
      <path style="fill-rule: evenodd;" d="M175.000000 -431.000000L175.000000 -547.000000C175.000000 -635.000000,223.000000 -683.000000,267.000000 -683.000000C270.000000 -683.000000,285.000000 -683.000000,300.000000 -676.000000C288.000000 -672.000000,270.000000 -659.000000,270.000000 -634.000000C270.000000 -611.000000,286.000000 -591.000000,313.000000 -591.000000C342.000000 -591.000000,357.000000 -611.000000,357.000000 -635.000000C357.000000 -672.000000,320.000000 -705.000000,267.000000 -705.000000C197.000000 -705.000000,112.000000 -652.000000,112.000000 -546.000000L112.000000 -431.000000L33.000000 -431.000000L33.000000 -400.000000L112.000000 -400.000000L112.000000 -76.000000C112.000000 -31.000000,101.000000 -31.000000,34.000000 -31.000000L34.000000 -0.000000L148.000000 -0.000000L73.000000 -1.000000L120.000000 -3.000000L148.000000 -3.000000L188.000000 -3.000000L235.000000 -3.000000L275.000000 -0.000000L275.000000 -31.000000L254.000000 -31.000000C180.000000 -31.000000,178.000000 -42.000000,178.000000 -78.000000L178.000000 -400.000000L292.000000 -400.000000L292.000000 -431.000000"></path>
    </g>
    <g transform="scale(0.009963,0.009963)" id="GLYPHcmr10_103">
      <path style="fill-rule: evenodd;" d="M222.000000 -172.000000C135.000000 -172.000000,135.000000 -272.000000,135.000000 -295.000000C135.000000 -322.000000,136.000000 -354.000000,151.000000 -379.000000C159.000000 -391.000000,182.000000 -419.000000,222.000000 -419.000000C309.000000 -419.000000,309.000000 -319.000000,309.000000 -296.000000C309.000000 -269.000000,308.000000 -237.000000,293.000000 -212.000000C285.000000 -200.000000,262.000000 -172.000000,222.000000 -172.000000M106.000000 -133.000000C106.000000 -137.000000,106.000000 -160.000000,123.000000 -180.000000C162.000000 -152.000000,203.000000 -149.000000,222.000000 -149.000000C315.000000 -149.000000,384.000000 -218.000000,384.000000 -295.000000C384.000000 -332.000000,368.000000 -369.000000,343.000000 -392.000000C379.000000 -426.000000,415.000000 -431.000000,433.000000 -431.000000C435.000000 -431.000000,440.000000 -431.000000,443.000000 -430.000000C432.000000 -426.000000,427.000000 -415.000000,427.000000 -403.000000C427.000000 -386.000000,440.000000 -374.000000,456.000000 -374.000000C466.000000 -374.000000,485.000000 -381.000000,485.000000 -404.000000C485.000000 -421.000000,473.000000 -453.000000,434.000000 -453.000000C414.000000 -453.000000,370.000000 -447.000000,328.000000 -406.000000C286.000000 -439.000000,244.000000 -442.000000,222.000000 -442.000000C129.000000 -442.000000,60.000000 -373.000000,60.000000 -296.000000C60.000000 -252.000000,82.000000 -214.000000,107.000000 -193.000000C94.000000 -178.000000,76.000000 -145.000000,76.000000 -110.000000C76.000000 -79.000000,89.000000 -41.000000,120.000000 -21.000000C60.000000 -4.000000,28.000000 39.000000,28.000000 79.000000C28.000000 151.000000,127.000000 206.000000,249.000000 206.000000C367.000000 206.000000,471.000000 155.000000,471.000000 77.000000C471.000000 42.000000,457.000000 -9.000000,406.000000 -37.000000C353.000000 -65.000000,295.000000 -65.000000,234.000000 -65.000000C209.000000 -65.000000,166.000000 -65.000000,159.000000 -66.000000C127.000000 -70.000000,106.000000 -101.000000,106.000000 -133.000000M250.000000 183.000000C149.000000 183.000000,80.000000 132.000000,80.000000 79.000000C80.000000 33.000000,118.000000 -4.000000,162.000000 -7.000000L221.000000 -7.000000C307.000000 -7.000000,419.000000 -7.000000,419.000000 79.000000C419.000000 133.000000,348.000000 183.000000,250.000000 183.000000"></path>
    </g>
  </defs>
  <path d="M4.921295 5.535492L4.921295 90.574860L4.921295 175.614197L345.078705 175.614197L345.078705 90.574860L345.078705 5.535492Z" style="stroke:rgb(0.000000%,0.000000%,0.000000%); stroke-width: 0.500000;stroke-linecap: round;stroke-linejoin: round;stroke-miterlimit: 10.000000;fill: none;"></path>
  <path d="M38.936523 175.614197L55.945435 232.307098L294.054565 232.307098L311.063477 175.614197" style="stroke:rgb(0.000000%,0.000000%,0.000000%); stroke-width: 0.500000;stroke-linecap: round;stroke-linejoin: round;stroke-miterlimit: 10.000000;fill: none;"></path>
  <path d="M72.951752 232.307098L64.449890 289.000000L285.550110 289.000000L277.048248 232.307098" style="stroke:rgb(0.000000%,0.000000%,0.000000%); stroke-width: 0.500000;stroke-linecap: round;stroke-linejoin: round;stroke-miterlimit: 10.000000;fill: none;"></path>
  <path d="M175.000000 289.000000L61.614197 289.000000L4.921295 5.535492L345.078705 5.535492L288.385803 289.000000Z" style="stroke:rgb(0.000000%,0.000000%,0.000000%); stroke-width: 0.500000;stroke-linecap: round;stroke-dasharray: 3.000000 3.000000 ;stroke-linejoin: round;stroke-miterlimit: 10.000000;fill: none;"></path>
  <path d="M175.000000 289.000000L175.000000 274.826797" style="stroke:rgb(0.000000%,0.000000%,0.000000%); stroke-width: 2.000000;stroke-linecap: round;stroke-linejoin: round;stroke-miterlimit: 10.000000;fill: none;"></path>
  <path d="M176.530777 278.522324L175.000000 274.826797L173.469223 278.522324Z" style="stroke:rgb(0.000000%,0.000000%,0.000000%); stroke-width: 2.000000;fill: rgb(0.000000%,0.000000%,0.000000%);"></path>
  <path d="M175.000000 289.000000L189.173203 289.000000" style="stroke:rgb(0.000000%,0.000000%,0.000000%); stroke-width: 2.000000;stroke-linecap: round;stroke-linejoin: round;stroke-miterlimit: 10.000000;fill: none;"></path>
  <path d="M185.477676 290.530777L189.173203 289.000000L185.477676 287.469223Z" style="stroke:rgb(0.000000%,0.000000%,0.000000%); stroke-width: 2.000000;fill: rgb(0.000000%,0.000000%,0.000000%);"></path>
  <path d="M175.000000 289.000000L175.000000 147.267731" style="stroke:rgb(0.000000%,0.000000%,100.000000%); stroke-width: 0.500000;stroke-linecap: round;stroke-linejoin: round;stroke-miterlimit: 10.000000;fill: none;"></path>
  <path d="M176.531128 150.964096L175.000000 147.267731L173.468872 150.964096Z" style="stroke:rgb(0.000000%,0.000000%,100.000000%); stroke-width: 0.500000;fill: rgb(0.000000%,0.000000%,100.000000%);"></path>
  <path d="M10.590576 5.535492C10.590576 4.031845,9.993164 2.589951,8.929993 1.526794C7.866837 0.463623,6.424942 -0.133789,4.921295 -0.133789C3.417648 -0.133789,1.975754 0.463623,0.912598 1.526794C-0.150574 2.589951,-0.747986 4.031845,-0.747986 5.535492C-0.747986 7.039139,-0.150574 8.481033,0.912598 9.544189C1.975754 10.607361,3.417648 11.204773,4.921295 11.204773C6.424942 11.204773,7.866837 10.607361,8.929993 9.544189C9.993164 8.481033,10.590576 7.039139,10.590576 5.535492Z" style="fill: rgb(100.000000%,100.000000%,100.000000%);stroke: none;"></path>
  <path d="M10.590576 5.535492C10.590576 4.031845,9.993164 2.589951,8.929993 1.526794C7.866837 0.463623,6.424942 -0.133789,4.921295 -0.133789C3.417648 -0.133789,1.975754 0.463623,0.912598 1.526794C-0.150574 2.589951,-0.747986 4.031845,-0.747986 5.535492C-0.747986 7.039139,-0.150574 8.481033,0.912598 9.544189C1.975754 10.607361,3.417648 11.204773,4.921295 11.204773C6.424942 11.204773,7.866837 10.607361,8.929993 9.544189C9.993164 8.481033,10.590576 7.039139,10.590576 5.535492Z" style="stroke:rgb(0.000000%,0.000000%,0.000000%); stroke-width: 0.500000;stroke-linecap: round;stroke-linejoin: round;stroke-miterlimit: 10.000000;fill: none;"></path>
  <g transform="translate(2.430618 7.680237)" style="fill: rgb(0.000000%,0.000000%,0.000000%);">
    <use xlink:href="#GLYPHcmr10_97"></use>
  </g>
  <path d="M10.590576 90.574860C10.590576 89.071213,9.993164 87.629318,8.929993 86.566162C7.866837 85.502991,6.424942 84.905579,4.921295 84.905579C3.417648 84.905579,1.975754 85.502991,0.912598 86.566162C-0.150574 87.629318,-0.747986 89.071213,-0.747986 90.574860C-0.747986 92.078506,-0.150574 93.520401,0.912598 94.583557C1.975754 95.646729,3.417648 96.244141,4.921295 96.244141C6.424942 96.244141,7.866837 95.646729,8.929993 94.583557C9.993164 93.520401,10.590576 92.078506,10.590576 90.574860Z" style="fill: rgb(100.000000%,100.000000%,100.000000%);stroke: none;"></path>
  <path d="M10.590576 90.574860C10.590576 89.071213,9.993164 87.629318,8.929993 86.566162C7.866837 85.502991,6.424942 84.905579,4.921295 84.905579C3.417648 84.905579,1.975754 85.502991,0.912598 86.566162C-0.150574 87.629318,-0.747986 89.071213,-0.747986 90.574860C-0.747986 92.078506,-0.150574 93.520401,0.912598 94.583557C1.975754 95.646729,3.417648 96.244141,4.921295 96.244141C6.424942 96.244141,7.866837 95.646729,8.929993 94.583557C9.993164 93.520401,10.590576 92.078506,10.590576 90.574860Z" style="stroke:rgb(0.000000%,0.000000%,0.000000%); stroke-width: 0.500000;stroke-linecap: round;stroke-linejoin: round;stroke-miterlimit: 10.000000;fill: none;"></path>
  <g transform="translate(2.153885 94.034119)" style="fill: rgb(0.000000%,0.000000%,0.000000%);">
    <use xlink:href="#GLYPHcmr10_98"></use>
  </g>
  <path d="M10.590576 175.614197C10.590576 174.110550,9.993164 172.668655,8.929993 171.605499C7.866837 170.542328,6.424942 169.944916,4.921295 169.944916C3.417648 169.944916,1.975754 170.542328,0.912598 171.605499C-0.150574 172.668655,-0.747986 174.110550,-0.747986 175.614197C-0.747986 177.117844,-0.150574 178.559738,0.912598 179.622894C1.975754 180.686066,3.417648 181.283478,4.921295 181.283478C6.424942 181.283478,7.866837 180.686066,8.929993 179.622894C9.993164 178.559738,10.590576 177.117844,10.590576 175.614197Z" style="fill: rgb(100.000000%,100.000000%,100.000000%);stroke: none;"></path>
  <path d="M10.590576 175.614197C10.590576 174.110550,9.993164 172.668655,8.929993 171.605499C7.866837 170.542328,6.424942 169.944916,4.921295 169.944916C3.417648 169.944916,1.975754 170.542328,0.912598 171.605499C-0.150574 172.668655,-0.747986 174.110550,-0.747986 175.614197C-0.747986 177.117844,-0.150574 178.559738,0.912598 179.622894C1.975754 180.686066,3.417648 181.283478,4.921295 181.283478C6.424942 181.283478,7.866837 180.686066,8.929993 179.622894C9.993164 178.559738,10.590576 177.117844,10.590576 175.614197Z" style="stroke:rgb(0.000000%,0.000000%,0.000000%); stroke-width: 0.500000;stroke-linecap: round;stroke-linejoin: round;stroke-miterlimit: 10.000000;fill: none;"></path>
  <g transform="translate(2.707367 177.758942)" style="fill: rgb(0.000000%,0.000000%,0.000000%);">
    <use xlink:href="#GLYPHcmr10_99"></use>
  </g>
  <path d="M44.605804 175.614197C44.605804 174.110550,44.008392 172.668655,42.945221 171.605499C41.882065 170.542328,40.440170 169.944916,38.936523 169.944916C37.432877 169.944916,35.990982 170.542328,34.927826 171.605499C33.864655 172.668655,33.267242 174.110550,33.267242 175.614197C33.267242 177.117844,33.864655 178.559738,34.927826 179.622894C35.990982 180.686066,37.432877 181.283478,38.936523 181.283478C40.440170 181.283478,41.882065 180.686066,42.945221 179.622894C44.008392 178.559738,44.605804 177.117844,44.605804 175.614197Z" style="fill: rgb(100.000000%,100.000000%,100.000000%);stroke: none;"></path>
  <path d="M44.605804 175.614197C44.605804 174.110550,44.008392 172.668655,42.945221 171.605499C41.882065 170.542328,40.440170 169.944916,38.936523 169.944916C37.432877 169.944916,35.990982 170.542328,34.927826 171.605499C33.864655 172.668655,33.267242 174.110550,33.267242 175.614197C33.267242 177.117844,33.864655 178.559738,34.927826 179.622894C35.990982 180.686066,37.432877 181.283478,38.936523 181.283478C40.440170 181.283478,41.882065 180.686066,42.945221 179.622894C44.008392 178.559738,44.605804 177.117844,44.605804 175.614197Z" style="stroke:rgb(0.000000%,0.000000%,0.000000%); stroke-width: 0.500000;stroke-linecap: round;stroke-linejoin: round;stroke-miterlimit: 10.000000;fill: none;"></path>
  <g transform="translate(36.169113 179.073456)" style="fill: rgb(0.000000%,0.000000%,0.000000%);">
    <use xlink:href="#GLYPHcmr10_100"></use>
  </g>
  <path d="M61.614716 232.307098C61.614716 230.803452,61.017303 229.361557,59.954132 228.298401C58.890976 227.235229,57.449081 226.637817,55.945435 226.637817C54.441788 226.637817,52.999893 227.235229,51.936737 228.298401C50.873566 229.361557,50.276154 230.803452,50.276154 232.307098C50.276154 233.810745,50.873566 235.252640,51.936737 236.315796C52.999893 237.378967,54.441788 237.976379,55.945435 237.976379C57.449081 237.976379,58.890976 237.378967,59.954132 236.315796C61.017303 235.252640,61.614716 233.810745,61.614716 232.307098Z" style="fill: rgb(100.000000%,100.000000%,100.000000%);stroke: none;"></path>
  <path d="M61.614716 232.307098C61.614716 230.803452,61.017303 229.361557,59.954132 228.298401C58.890976 227.235229,57.449081 226.637817,55.945435 226.637817C54.441788 226.637817,52.999893 227.235229,51.936737 228.298401C50.873566 229.361557,50.276154 230.803452,50.276154 232.307098C50.276154 233.810745,50.873566 235.252640,51.936737 236.315796C52.999893 237.378967,54.441788 237.976379,55.945435 237.976379C57.449081 237.976379,58.890976 237.378967,59.954132 236.315796C61.017303 235.252640,61.614716 233.810745,61.614716 232.307098Z" style="stroke:rgb(0.000000%,0.000000%,0.000000%); stroke-width: 0.500000;stroke-linecap: round;stroke-linejoin: round;stroke-miterlimit: 10.000000;fill: none;"></path>
  <g transform="translate(53.731506 234.451843)" style="fill: rgb(0.000000%,0.000000%,0.000000%);">
    <use xlink:href="#GLYPHcmr10_101"></use>
  </g>
  <path d="M78.621033 232.307098C78.621033 230.803452,78.023621 229.361557,76.960449 228.298401C75.897293 227.235229,74.455399 226.637817,72.951752 226.637817C71.448105 226.637817,70.006210 227.235229,68.943054 228.298401C67.879883 229.361557,67.282471 230.803452,67.282471 232.307098C67.282471 233.810745,67.879883 235.252640,68.943054 236.315796C70.006210 237.378967,71.448105 237.976379,72.951752 237.976379C74.455399 237.976379,75.897293 237.378967,76.960449 236.315796C78.023621 235.252640,78.621033 233.810745,78.621033 232.307098Z" style="fill: rgb(100.000000%,100.000000%,100.000000%);stroke: none;"></path>
  <path d="M78.621033 232.307098C78.621033 230.803452,78.023621 229.361557,76.960449 228.298401C75.897293 227.235229,74.455399 226.637817,72.951752 226.637817C71.448105 226.637817,70.006210 227.235229,68.943054 228.298401C67.879883 229.361557,67.282471 230.803452,67.282471 232.307098C67.282471 233.810745,67.879883 235.252640,68.943054 236.315796C70.006210 237.378967,71.448105 237.976379,72.951752 237.976379C74.455399 237.976379,75.897293 237.378967,76.960449 236.315796C78.023621 235.252640,78.621033 233.810745,78.621033 232.307098Z" style="stroke:rgb(0.000000%,0.000000%,0.000000%); stroke-width: 0.500000;stroke-linecap: round;stroke-linejoin: round;stroke-miterlimit: 10.000000;fill: none;"></path>
  <g transform="translate(71.429672 235.766357)" style="fill: rgb(0.000000%,0.000000%,0.000000%);">
    <use xlink:href="#GLYPHcmr10_102"></use>
  </g>
  <path d="M70.119171 289.000000C70.119171 287.496353,69.521759 286.054459,68.458588 284.991302C67.395432 283.928131,65.953537 283.330719,64.449890 283.330719C62.946243 283.330719,61.504349 283.928131,60.441193 284.991302C59.378021 286.054459,58.780609 287.496353,58.780609 289.000000C58.780609 290.503647,59.378021 291.945541,60.441193 293.008698C61.504349 294.071869,62.946243 294.669281,64.449890 294.669281C65.953537 294.669281,67.395432 294.071869,68.458588 293.008698C69.521759 291.945541,70.119171 290.503647,70.119171 289.000000Z" style="fill: rgb(100.000000%,100.000000%,100.000000%);stroke: none;"></path>
  <path d="M70.119171 289.000000C70.119171 287.496353,69.521759 286.054459,68.458588 284.991302C67.395432 283.928131,65.953537 283.330719,64.449890 283.330719C62.946243 283.330719,61.504349 283.928131,60.441193 284.991302C59.378021 286.054459,58.780609 287.496353,58.780609 289.000000C58.780609 290.503647,59.378021 291.945541,60.441193 293.008698C61.504349 294.071869,62.946243 294.669281,64.449890 294.669281C65.953537 294.669281,67.395432 294.071869,68.458588 293.008698C69.521759 291.945541,70.119171 290.503647,70.119171 289.000000Z" style="stroke:rgb(0.000000%,0.000000%,0.000000%); stroke-width: 0.500000;stroke-linecap: round;stroke-linejoin: round;stroke-miterlimit: 10.000000;fill: none;"></path>
  <g transform="translate(61.959213 290.176147)" style="fill: rgb(0.000000%,0.000000%,0.000000%);">
    <use xlink:href="#GLYPHcmr10_103"></use>
  </g>
  <path d="M350.747986 5.535492C350.747986 4.031845,350.150574 2.589951,349.087402 1.526794C348.024246 0.463623,346.582352 -0.133789,345.078705 -0.133789C343.575058 -0.133789,342.133163 0.463623,341.070007 1.526794C340.006836 2.589951,339.409424 4.031845,339.409424 5.535492C339.409424 7.039139,340.006836 8.481033,341.070007 9.544189C342.133163 10.607361,343.575058 11.204773,345.078705 11.204773C346.582352 11.204773,348.024246 10.607361,349.087402 9.544189C350.150574 8.481033,350.747986 7.039139,350.747986 5.535492Z" style="fill: rgb(100.000000%,100.000000%,100.000000%);stroke: none;"></path>
  <path d="M350.747986 5.535492C350.747986 4.031845,350.150574 2.589951,349.087402 1.526794C348.024246 0.463623,346.582352 -0.133789,345.078705 -0.133789C343.575058 -0.133789,342.133163 0.463623,341.070007 1.526794C340.006836 2.589951,339.409424 4.031845,339.409424 5.535492C339.409424 7.039139,340.006836 8.481033,341.070007 9.544189C342.133163 10.607361,343.575058 11.204773,345.078705 11.204773C346.582352 11.204773,348.024246 10.607361,349.087402 9.544189C350.150574 8.481033,350.747986 7.039139,350.747986 5.535492Z" style="stroke:rgb(0.000000%,0.000000%,0.000000%); stroke-width: 0.500000;stroke-linecap: round;stroke-linejoin: round;stroke-miterlimit: 10.000000;fill: none;"></path>
  <g transform="translate(341.204330 8.994751)" style="fill: rgb(0.000000%,0.000000%,0.000000%);">
    <use xlink:href="#GLYPHcmr10_97"></use>
    <use xlink:href="#GLYPHcmr10_39" x="5.000095"></use>
  </g>
  <path d="M350.747986 90.574860C350.747986 89.071213,350.150574 87.629318,349.087402 86.566162C348.024246 85.502991,346.582352 84.905579,345.078705 84.905579C343.575058 84.905579,342.133163 85.502991,341.070007 86.566162C340.006836 87.629318,339.409424 89.071213,339.409424 90.574860C339.409424 92.078506,340.006836 93.520401,341.070007 94.583557C342.133163 95.646729,343.575058 96.244141,345.078705 96.244141C346.582352 96.244141,348.024246 95.646729,349.087402 94.583557C350.150574 93.520401,350.747986 92.078506,350.747986 90.574860Z" style="fill: rgb(100.000000%,100.000000%,100.000000%);stroke: none;"></path>
  <path d="M350.747986 90.574860C350.747986 89.071213,350.150574 87.629318,349.087402 86.566162C348.024246 85.502991,346.582352 84.905579,345.078705 84.905579C343.575058 84.905579,342.133163 85.502991,341.070007 86.566162C340.006836 87.629318,339.409424 89.071213,339.409424 90.574860C339.409424 92.078506,340.006836 93.520401,341.070007 94.583557C342.133163 95.646729,343.575058 96.244141,345.078705 96.244141C346.582352 96.244141,348.024246 95.646729,349.087402 94.583557C350.150574 93.520401,350.747986 92.078506,350.747986 90.574860Z" style="stroke:rgb(0.000000%,0.000000%,0.000000%); stroke-width: 0.500000;stroke-linecap: round;stroke-linejoin: round;stroke-miterlimit: 10.000000;fill: none;"></path>
  <g transform="translate(340.927582 94.034119)" style="fill: rgb(0.000000%,0.000000%,0.000000%);">
    <use xlink:href="#GLYPHcmr10_98"></use>
    <use xlink:href="#GLYPHcmr10_39" x="5.555661"></use>
  </g>
  <path d="M350.747986 175.614197C350.747986 174.110550,350.150574 172.668655,349.087402 171.605499C348.024246 170.542328,346.582352 169.944916,345.078705 169.944916C343.575058 169.944916,342.133163 170.542328,341.070007 171.605499C340.006836 172.668655,339.409424 174.110550,339.409424 175.614197C339.409424 177.117844,340.006836 178.559738,341.070007 179.622894C342.133163 180.686066,343.575058 181.283478,345.078705 181.283478C346.582352 181.283478,348.024246 180.686066,349.087402 179.622894C350.150574 178.559738,350.747986 177.117844,350.747986 175.614197Z" style="fill: rgb(100.000000%,100.000000%,100.000000%);stroke: none;"></path>
  <path d="M350.747986 175.614197C350.747986 174.110550,350.150574 172.668655,349.087402 171.605499C348.024246 170.542328,346.582352 169.944916,345.078705 169.944916C343.575058 169.944916,342.133163 170.542328,341.070007 171.605499C340.006836 172.668655,339.409424 174.110550,339.409424 175.614197C339.409424 177.117844,340.006836 178.559738,341.070007 179.622894C342.133163 180.686066,343.575058 181.283478,345.078705 181.283478C346.582352 181.283478,348.024246 180.686066,349.087402 179.622894C350.150574 178.559738,350.747986 177.117844,350.747986 175.614197Z" style="stroke:rgb(0.000000%,0.000000%,0.000000%); stroke-width: 0.500000;stroke-linecap: round;stroke-linejoin: round;stroke-miterlimit: 10.000000;fill: none;"></path>
  <g transform="translate(341.481064 179.073456)" style="fill: rgb(0.000000%,0.000000%,0.000000%);">
    <use xlink:href="#GLYPHcmr10_99"></use>
    <use xlink:href="#GLYPHcmr10_39" x="4.444529"></use>
  </g>
  <path d="M316.732758 175.614197C316.732758 174.110550,316.135345 172.668655,315.072174 171.605499C314.009018 170.542328,312.567123 169.944916,311.063477 169.944916C309.559830 169.944916,308.117935 170.542328,307.054779 171.605499C305.991608 172.668655,305.394196 174.110550,305.394196 175.614197C305.394196 177.117844,305.991608 178.559738,307.054779 179.622894C308.117935 180.686066,309.559830 181.283478,311.063477 181.283478C312.567123 181.283478,314.009018 180.686066,315.072174 179.622894C316.135345 178.559738,316.732758 177.117844,316.732758 175.614197Z" style="fill: rgb(100.000000%,100.000000%,100.000000%);stroke: none;"></path>
  <path d="M316.732758 175.614197C316.732758 174.110550,316.135345 172.668655,315.072174 171.605499C314.009018 170.542328,312.567123 169.944916,311.063477 169.944916C309.559830 169.944916,308.117935 170.542328,307.054779 171.605499C305.991608 172.668655,305.394196 174.110550,305.394196 175.614197C305.394196 177.117844,305.991608 178.559738,307.054779 179.622894C308.117935 180.686066,309.559830 181.283478,311.063477 181.283478C312.567123 181.283478,314.009018 180.686066,315.072174 179.622894C316.135345 178.559738,316.732758 177.117844,316.732758 175.614197Z" style="stroke:rgb(0.000000%,0.000000%,0.000000%); stroke-width: 0.500000;stroke-linecap: round;stroke-linejoin: round;stroke-miterlimit: 10.000000;fill: none;"></path>
  <g transform="translate(306.912354 179.073456)" style="fill: rgb(0.000000%,0.000000%,0.000000%);">
    <use xlink:href="#GLYPHcmr10_100"></use>
    <use xlink:href="#GLYPHcmr10_39" x="5.555661"></use>
  </g>
  <path d="M299.723846 232.307098C299.723846 230.803452,299.126434 229.361557,298.063263 228.298401C297.000107 227.235229,295.558212 226.637817,294.054565 226.637817C292.550919 226.637817,291.109024 227.235229,290.045868 228.298401C288.982697 229.361557,288.385284 230.803452,288.385284 232.307098C288.385284 233.810745,288.982697 235.252640,290.045868 236.315796C291.109024 237.378967,292.550919 237.976379,294.054565 237.976379C295.558212 237.976379,297.000107 237.378967,298.063263 236.315796C299.126434 235.252640,299.723846 233.810745,299.723846 232.307098Z" style="fill: rgb(100.000000%,100.000000%,100.000000%);stroke: none;"></path>
  <path d="M299.723846 232.307098C299.723846 230.803452,299.126434 229.361557,298.063263 228.298401C297.000107 227.235229,295.558212 226.637817,294.054565 226.637817C292.550919 226.637817,291.109024 227.235229,290.045868 228.298401C288.982697 229.361557,288.385284 230.803452,288.385284 232.307098C288.385284 233.810745,288.982697 235.252640,290.045868 236.315796C291.109024 237.378967,292.550919 237.976379,294.054565 237.976379C295.558212 237.976379,297.000107 237.378967,298.063263 236.315796C299.126434 235.252640,299.723846 233.810745,299.723846 232.307098Z" style="stroke:rgb(0.000000%,0.000000%,0.000000%); stroke-width: 0.500000;stroke-linecap: round;stroke-linejoin: round;stroke-miterlimit: 10.000000;fill: none;"></path>
  <g transform="translate(290.456924 235.766357)" style="fill: rgb(0.000000%,0.000000%,0.000000%);">
    <use xlink:href="#GLYPHcmr10_101"></use>
    <use xlink:href="#GLYPHcmr10_39" x="4.444529"></use>
  </g>
  <path d="M282.717529 232.307098C282.717529 230.803452,282.120117 229.361557,281.056946 228.298401C279.993790 227.235229,278.551895 226.637817,277.048248 226.637817C275.544601 226.637817,274.102707 227.235229,273.039551 228.298401C271.976379 229.361557,271.378967 230.803452,271.378967 232.307098C271.378967 233.810745,271.976379 235.252640,273.039551 236.315796C274.102707 237.378967,275.544601 237.976379,277.048248 237.976379C278.551895 237.976379,279.993790 237.378967,281.056946 236.315796C282.120117 235.252640,282.717529 233.810745,282.717529 232.307098Z" style="fill: rgb(100.000000%,100.000000%,100.000000%);stroke: none;"></path>
  <path d="M282.717529 232.307098C282.717529 230.803452,282.120117 229.361557,281.056946 228.298401C279.993790 227.235229,278.551895 226.637817,277.048248 226.637817C275.544601 226.637817,274.102707 227.235229,273.039551 228.298401C271.976379 229.361557,271.378967 230.803452,271.378967 232.307098C271.378967 233.810745,271.976379 235.252640,273.039551 236.315796C274.102707 237.378967,275.544601 237.976379,277.048248 237.976379C278.551895 237.976379,279.993790 237.378967,281.056946 236.315796C282.120117 235.252640,282.717529 233.810745,282.717529 232.307098Z" style="stroke:rgb(0.000000%,0.000000%,0.000000%); stroke-width: 0.500000;stroke-linecap: round;stroke-linejoin: round;stroke-miterlimit: 10.000000;fill: none;"></path>
  <g transform="translate(274.142456 235.766357)" style="fill: rgb(0.000000%,0.000000%,0.000000%);">
    <use xlink:href="#GLYPHcmr10_102"></use>
    <use xlink:href="#GLYPHcmr10_39" x="3.055621"></use>
  </g>
  <path d="M291.219391 289.000000C291.219391 287.496353,290.621979 286.054459,289.558807 284.991302C288.495651 283.928131,287.053757 283.330719,285.550110 283.330719C284.046463 283.330719,282.604568 283.928131,281.541412 284.991302C280.478241 286.054459,279.880829 287.496353,279.880829 289.000000C279.880829 290.503647,280.478241 291.945541,281.541412 293.008698C282.604568 294.071869,284.046463 294.669281,285.550110 294.669281C287.053757 294.669281,288.495651 294.071869,289.558807 293.008698C290.621979 291.945541,291.219391 290.503647,291.219391 289.000000Z" style="fill: rgb(100.000000%,100.000000%,100.000000%);stroke: none;"></path>
  <path d="M291.219391 289.000000C291.219391 287.496353,290.621979 286.054459,289.558807 284.991302C288.495651 283.928131,287.053757 283.330719,285.550110 283.330719C284.046463 283.330719,282.604568 283.928131,281.541412 284.991302C280.478241 286.054459,279.880829 287.496353,279.880829 289.000000C279.880829 290.503647,280.478241 291.945541,281.541412 293.008698C282.604568 294.071869,284.046463 294.669281,285.550110 294.669281C287.053757 294.669281,288.495651 294.071869,289.558807 293.008698C290.621979 291.945541,291.219391 290.503647,291.219391 289.000000Z" style="stroke:rgb(0.000000%,0.000000%,0.000000%); stroke-width: 0.500000;stroke-linecap: round;stroke-linejoin: round;stroke-miterlimit: 10.000000;fill: none;"></path>
  <g transform="translate(281.675735 291.490662)" style="fill: rgb(0.000000%,0.000000%,0.000000%);">
    <use xlink:href="#GLYPHcmr10_103"></use>
    <use xlink:href="#GLYPHcmr10_39" x="5.000095"></use>
  </g>
</svg>
