<?xml version="1.0"?>
<!-- Created by MetaPost 1.803 on 2016.06.02:2102 -->
<svg version="1.1" xmlns="http://www.w3.org/2000/svg" xmlns:xlink="http://www.w3.org/1999/xlink" width="351.995972" height="162.824753" viewBox="0 0 351.995972 162.824753">
<!-- Original BoundingBox: -175.997986 -147.651550 175.997986 15.173203 -->
  <defs>
    <g transform="scale(0.009963,0.009963)" id="GLYPHcmr10_39">
      <path style="fill-rule: evenodd;" d="M206.000000 -589.000000C206.000000 -649.000000,182.000000 -694.000000,139.000000 -694.000000C104.000000 -694.000000,86.000000 -667.000000,86.000000 -641.000000C86.000000 -615.000000,103.000000 -588.000000,139.000000 -588.000000C159.000000 -588.000000,173.000000 -598.000000,179.000000 -604.000000C180.000000 -606.000000,181.000000 -607.000000,182.000000 -607.000000C184.000000 -607.000000,184.000000 -593.000000,184.000000 -589.000000C184.000000 -557.000000,177.000000 -485.000000,114.000000 -423.000000C102.000000 -411.000000,102.000000 -409.000000,102.000000 -406.000000C102.000000 -399.000000,107.000000 -395.000000,112.000000 -395.000000C123.000000 -395.000000,206.000000 -471.000000,206.000000 -589.000000"></path>
    </g>
    <g transform="scale(0.009963,0.009963)" id="GLYPHcmr10_97">
      <path style="fill-rule: evenodd;" d="M333.000000 -76.000000C337.000000 -36.000000,364.000000 6.000000,411.000000 6.000000C432.000000 6.000000,493.000000 -8.000000,493.000000 -89.000000L493.000000 -145.000000L468.000000 -145.000000L468.000000 -89.000000C468.000000 -31.000000,443.000000 -25.000000,432.000000 -25.000000C399.000000 -25.000000,395.000000 -70.000000,395.000000 -75.000000L395.000000 -275.000000C395.000000 -317.000000,395.000000 -356.000000,359.000000 -393.000000C320.000000 -432.000000,270.000000 -448.000000,222.000000 -448.000000C140.000000 -448.000000,71.000000 -401.000000,71.000000 -335.000000C71.000000 -305.000000,91.000000 -288.000000,117.000000 -288.000000C145.000000 -288.000000,163.000000 -308.000000,163.000000 -334.000000C163.000000 -346.000000,158.000000 -379.000000,112.000000 -380.000000C139.000000 -415.000000,188.000000 -426.000000,220.000000 -426.000000C269.000000 -426.000000,326.000000 -387.000000,326.000000 -298.000000L326.000000 -261.000000C275.000000 -258.000000,205.000000 -255.000000,142.000000 -225.000000C67.000000 -191.000000,42.000000 -139.000000,42.000000 -95.000000C42.000000 -14.000000,139.000000 11.000000,202.000000 11.000000C268.000000 11.000000,314.000000 -29.000000,333.000000 -76.000000M326.000000 -240.000000L326.000000 -140.000000C326.000000 -45.000000,254.000000 -11.000000,209.000000 -11.000000C160.000000 -11.000000,119.000000 -46.000000,119.000000 -96.000000C119.000000 -151.000000,161.000000 -234.000000,326.000000 -240.000000"></path>
    </g>
    <g transform="scale(0.009963,0.009963)" id="GLYPHcmr10_98">
      <path style="fill-rule: evenodd;" d="M172.000000 -377.000000L172.000000 -694.000000L28.000000 -683.000000L28.000000 -652.000000C98.000000 -652.000000,106.000000 -645.000000,106.000000 -596.000000L106.000000 -0.000000L131.000000 -0.000000C132.000000 -1.000000,140.000000 -15.000000,167.000000 -62.000000C182.000000 -39.000000,224.000000 11.000000,298.000000 11.000000C417.000000 11.000000,521.000000 -87.000000,521.000000 -216.000000C521.000000 -343.000000,423.000000 -442.000000,309.000000 -442.000000C231.000000 -442.000000,188.000000 -395.000000,172.000000 -377.000000M175.000000 -114.000000L175.000000 -320.000000C175.000000 -339.000000,175.000000 -340.000000,186.000000 -356.000000C225.000000 -412.000000,280.000000 -420.000000,304.000000 -420.000000C349.000000 -420.000000,385.000000 -394.000000,409.000000 -356.000000C435.000000 -315.000000,438.000000 -258.000000,438.000000 -217.000000C438.000000 -180.000000,436.000000 -120.000000,407.000000 -75.000000C386.000000 -44.000000,348.000000 -11.000000,294.000000 -11.000000C249.000000 -11.000000,213.000000 -35.000000,189.000000 -72.000000C175.000000 -93.000000,175.000000 -96.000000,175.000000 -114.000000"></path>
    </g>
    <g transform="scale(0.009963,0.009963)" id="GLYPHcmr10_99">
      <path style="fill-rule: evenodd;" d="M117.000000 -218.000000C117.000000 -381.000000,199.000000 -423.000000,252.000000 -423.000000C261.000000 -423.000000,324.000000 -422.000000,359.000000 -386.000000C318.000000 -383.000000,312.000000 -353.000000,312.000000 -340.000000C312.000000 -314.000000,330.000000 -294.000000,358.000000 -294.000000C384.000000 -294.000000,404.000000 -311.000000,404.000000 -341.000000C404.000000 -409.000000,328.000000 -448.000000,251.000000 -448.000000C126.000000 -448.000000,34.000000 -340.000000,34.000000 -216.000000C34.000000 -88.000000,133.000000 11.000000,249.000000 11.000000C383.000000 11.000000,415.000000 -109.000000,415.000000 -119.000000C415.000000 -129.000000,405.000000 -129.000000,402.000000 -129.000000C393.000000 -129.000000,391.000000 -125.000000,389.000000 -119.000000C360.000000 -26.000000,295.000000 -14.000000,258.000000 -14.000000C205.000000 -14.000000,117.000000 -57.000000,117.000000 -218.000000"></path>
    </g>
  </defs>
  <path d="M175.000000 15.000000L38.936523 15.000000L4.921295 128.385803L135.315125 156.732269L214.684875 156.732269L345.078705 128.385803L311.063477 15.000000Z" style="stroke:rgb(0.000000%,0.000000%,0.000000%); stroke-width: 0.500000;stroke-linecap: round;stroke-linejoin: round;stroke-miterlimit: 10.000000;fill: none;"></path>
  <path d="M175.000000 15.000000L175.000000 0.826797" style="stroke:rgb(0.000000%,0.000000%,0.000000%); stroke-width: 2.000000;stroke-linecap: round;stroke-linejoin: round;stroke-miterlimit: 10.000000;fill: none;"></path>
  <path d="M176.530777 4.522324L175.000000 0.826797L173.469223 4.522324Z" style="stroke:rgb(0.000000%,0.000000%,0.000000%); stroke-width: 2.000000;fill: rgb(0.000000%,0.000000%,0.000000%);"></path>
  <path d="M175.000000 15.000000L189.173203 15.000000" style="stroke:rgb(0.000000%,0.000000%,0.000000%); stroke-width: 2.000000;stroke-linecap: round;stroke-linejoin: round;stroke-miterlimit: 10.000000;fill: none;"></path>
  <path d="M185.477676 16.530777L189.173203 15.000000L185.477676 13.469223Z" style="stroke:rgb(0.000000%,0.000000%,0.000000%); stroke-width: 2.000000;fill: rgb(0.000000%,0.000000%,0.000000%);"></path>
  <path d="M175.000000 15.000000L175.000000 85.866150" style="stroke:rgb(0.000000%,0.000000%,100.000000%); stroke-width: 0.500000;stroke-linecap: round;stroke-linejoin: round;stroke-miterlimit: 10.000000;fill: none;"></path>
  <path d="M173.469299 82.170792L175.000000 85.866150L176.530701 82.170792Z" style="stroke:rgb(0.000000%,0.000000%,100.000000%); stroke-width: 0.500000;fill: rgb(0.000000%,0.000000%,100.000000%);"></path>
  <path d="M44.605804 15.000000C44.605804 13.496353,44.008392 12.054459,42.945221 10.991302C41.882065 9.928131,40.440170 9.330719,38.936523 9.330719C37.432877 9.330719,35.990982 9.928131,34.927826 10.991302C33.864655 12.054459,33.267242 13.496353,33.267242 15.000000C33.267242 16.503647,33.864655 17.945541,34.927826 19.008698C35.990982 20.071869,37.432877 20.669281,38.936523 20.669281C40.440170 20.669281,41.882065 20.071869,42.945221 19.008698C44.008392 17.945541,44.605804 16.503647,44.605804 15.000000Z" style="fill: rgb(100.000000%,100.000000%,100.000000%);stroke: none;"></path>
  <path d="M44.605804 15.000000C44.605804 13.496353,44.008392 12.054459,42.945221 10.991302C41.882065 9.928131,40.440170 9.330719,38.936523 9.330719C37.432877 9.330719,35.990982 9.928131,34.927826 10.991302C33.864655 12.054459,33.267242 13.496353,33.267242 15.000000C33.267242 16.503647,33.864655 17.945541,34.927826 19.008698C35.990982 20.071869,37.432877 20.669281,38.936523 20.669281C40.440170 20.669281,41.882065 20.071869,42.945221 19.008698C44.008392 17.945541,44.605804 16.503647,44.605804 15.000000Z" style="stroke:rgb(0.000000%,0.000000%,0.000000%); stroke-width: 0.500000;stroke-linecap: round;stroke-linejoin: round;stroke-miterlimit: 10.000000;fill: none;"></path>
  <g transform="translate(36.445847 17.144745)" style="fill: rgb(0.000000%,0.000000%,0.000000%);">
    <use xlink:href="#GLYPHcmr10_97"></use>
  </g>
  <path d="M10.590576 128.385803C10.590576 126.882156,9.993164 125.440262,8.929993 124.377106C7.866837 123.313934,6.424942 122.716522,4.921295 122.716522C3.417648 122.716522,1.975754 123.313934,0.912598 124.377106C-0.150574 125.440262,-0.747986 126.882156,-0.747986 128.385803C-0.747986 129.889450,-0.150574 131.331345,0.912598 132.394501C1.975754 133.457672,3.417648 134.055084,4.921295 134.055084C6.424942 134.055084,7.866837 133.457672,8.929993 132.394501C9.993164 131.331345,10.590576 129.889450,10.590576 128.385803Z" style="fill: rgb(100.000000%,100.000000%,100.000000%);stroke: none;"></path>
  <path d="M10.590576 128.385803C10.590576 126.882156,9.993164 125.440262,8.929993 124.377106C7.866837 123.313934,6.424942 122.716522,4.921295 122.716522C3.417648 122.716522,1.975754 123.313934,0.912598 124.377106C-0.150574 125.440262,-0.747986 126.882156,-0.747986 128.385803C-0.747986 129.889450,-0.150574 131.331345,0.912598 132.394501C1.975754 133.457672,3.417648 134.055084,4.921295 134.055084C6.424942 134.055084,7.866837 133.457672,8.929993 132.394501C9.993164 131.331345,10.590576 129.889450,10.590576 128.385803Z" style="stroke:rgb(0.000000%,0.000000%,0.000000%); stroke-width: 0.500000;stroke-linecap: round;stroke-linejoin: round;stroke-miterlimit: 10.000000;fill: none;"></path>
  <g transform="translate(2.153885 131.845062)" style="fill: rgb(0.000000%,0.000000%,0.000000%);">
    <use xlink:href="#GLYPHcmr10_98"></use>
  </g>
  <path d="M140.984406 156.732269C140.984406 155.228622,140.386993 153.786728,139.323822 152.723572C138.260666 151.660400,136.818771 151.062988,135.315125 151.062988C133.811478 151.062988,132.369583 151.660400,131.306427 152.723572C130.243256 153.786728,129.645844 155.228622,129.645844 156.732269C129.645844 158.235916,130.243256 159.677811,131.306427 160.740967C132.369583 161.804138,133.811478 162.401550,135.315125 162.401550C136.818771 162.401550,138.260666 161.804138,139.323822 160.740967C140.386993 159.677811,140.984406 158.235916,140.984406 156.732269Z" style="fill: rgb(100.000000%,100.000000%,100.000000%);stroke: none;"></path>
  <path d="M140.984406 156.732269C140.984406 155.228622,140.386993 153.786728,139.323822 152.723572C138.260666 151.660400,136.818771 151.062988,135.315125 151.062988C133.811478 151.062988,132.369583 151.660400,131.306427 152.723572C130.243256 153.786728,129.645844 155.228622,129.645844 156.732269C129.645844 158.235916,130.243256 159.677811,131.306427 160.740967C132.369583 161.804138,133.811478 162.401550,135.315125 162.401550C136.818771 162.401550,138.260666 161.804138,139.323822 160.740967C140.386993 159.677811,140.984406 158.235916,140.984406 156.732269Z" style="stroke:rgb(0.000000%,0.000000%,0.000000%); stroke-width: 0.500000;stroke-linecap: round;stroke-linejoin: round;stroke-miterlimit: 10.000000;fill: none;"></path>
  <g transform="translate(133.101196 158.877014)" style="fill: rgb(0.000000%,0.000000%,0.000000%);">
    <use xlink:href="#GLYPHcmr10_99"></use>
  </g>
  <path d="M316.732758 15.000000C316.732758 13.496353,316.135345 12.054459,315.072174 10.991302C314.009018 9.928131,312.567123 9.330719,311.063477 9.330719C309.559830 9.330719,308.117935 9.928131,307.054779 10.991302C305.991608 12.054459,305.394196 13.496353,305.394196 15.000000C305.394196 16.503647,305.991608 17.945541,307.054779 19.008698C308.117935 20.071869,309.559830 20.669281,311.063477 20.669281C312.567123 20.669281,314.009018 20.071869,315.072174 19.008698C316.135345 17.945541,316.732758 16.503647,316.732758 15.000000Z" style="fill: rgb(100.000000%,100.000000%,100.000000%);stroke: none;"></path>
  <path d="M316.732758 15.000000C316.732758 13.496353,316.135345 12.054459,315.072174 10.991302C314.009018 9.928131,312.567123 9.330719,311.063477 9.330719C309.559830 9.330719,308.117935 9.928131,307.054779 10.991302C305.991608 12.054459,305.394196 13.496353,305.394196 15.000000C305.394196 16.503647,305.991608 17.945541,307.054779 19.008698C308.117935 20.071869,309.559830 20.669281,311.063477 20.669281C312.567123 20.669281,314.009018 20.071869,315.072174 19.008698C316.135345 17.945541,316.732758 16.503647,316.732758 15.000000Z" style="stroke:rgb(0.000000%,0.000000%,0.000000%); stroke-width: 0.500000;stroke-linecap: round;stroke-linejoin: round;stroke-miterlimit: 10.000000;fill: none;"></path>
  <g transform="translate(307.189102 18.459259)" style="fill: rgb(0.000000%,0.000000%,0.000000%);">
    <use xlink:href="#GLYPHcmr10_97"></use>
    <use xlink:href="#GLYPHcmr10_39" x="5.000095"></use>
  </g>
  <path d="M350.747986 128.385803C350.747986 126.882156,350.150574 125.440262,349.087402 124.377106C348.024246 123.313934,346.582352 122.716522,345.078705 122.716522C343.575058 122.716522,342.133163 123.313934,341.070007 124.377106C340.006836 125.440262,339.409424 126.882156,339.409424 128.385803C339.409424 129.889450,340.006836 131.331345,341.070007 132.394501C342.133163 133.457672,343.575058 134.055084,345.078705 134.055084C346.582352 134.055084,348.024246 133.457672,349.087402 132.394501C350.150574 131.331345,350.747986 129.889450,350.747986 128.385803Z" style="fill: rgb(100.000000%,100.000000%,100.000000%);stroke: none;"></path>
  <path d="M350.747986 128.385803C350.747986 126.882156,350.150574 125.440262,349.087402 124.377106C348.024246 123.313934,346.582352 122.716522,345.078705 122.716522C343.575058 122.716522,342.133163 123.313934,341.070007 124.377106C340.006836 125.440262,339.409424 126.882156,339.409424 128.385803C339.409424 129.889450,340.006836 131.331345,341.070007 132.394501C342.133163 133.457672,343.575058 134.055084,345.078705 134.055084C346.582352 134.055084,348.024246 133.457672,349.087402 132.394501C350.150574 131.331345,350.747986 129.889450,350.747986 128.385803Z" style="stroke:rgb(0.000000%,0.000000%,0.000000%); stroke-width: 0.500000;stroke-linecap: round;stroke-linejoin: round;stroke-miterlimit: 10.000000;fill: none;"></path>
  <g transform="translate(340.927582 131.845062)" style="fill: rgb(0.000000%,0.000000%,0.000000%);">
    <use xlink:href="#GLYPHcmr10_98"></use>
    <use xlink:href="#GLYPHcmr10_39" x="5.555661"></use>
  </g>
  <path d="M220.354156 156.732269C220.354156 155.228622,219.756744 153.786728,218.693573 152.723572C217.630417 151.660400,216.188522 151.062988,214.684875 151.062988C213.181229 151.062988,211.739334 151.660400,210.676178 152.723572C209.613007 153.786728,209.015594 155.228622,209.015594 156.732269C209.015594 158.235916,209.613007 159.677811,210.676178 160.740967C211.739334 161.804138,213.181229 162.401550,214.684875 162.401550C216.188522 162.401550,217.630417 161.804138,218.693573 160.740967C219.756744 159.677811,220.354156 158.235916,220.354156 156.732269Z" style="fill: rgb(100.000000%,100.000000%,100.000000%);stroke: none;"></path>
  <path d="M220.354156 156.732269C220.354156 155.228622,219.756744 153.786728,218.693573 152.723572C217.630417 151.660400,216.188522 151.062988,214.684875 151.062988C213.181229 151.062988,211.739334 151.660400,210.676178 152.723572C209.613007 153.786728,209.015594 155.228622,209.015594 156.732269C209.015594 158.235916,209.613007 159.677811,210.676178 160.740967C211.739334 161.804138,213.181229 162.401550,214.684875 162.401550C216.188522 162.401550,217.630417 161.804138,218.693573 160.740967C219.756744 159.677811,220.354156 158.235916,220.354156 156.732269Z" style="stroke:rgb(0.000000%,0.000000%,0.000000%); stroke-width: 0.500000;stroke-linecap: round;stroke-linejoin: round;stroke-miterlimit: 10.000000;fill: none;"></path>
  <g transform="translate(211.087234 160.191528)" style="fill: rgb(0.000000%,0.000000%,0.000000%);">
    <use xlink:href="#GLYPHcmr10_99"></use>
    <use xlink:href="#GLYPHcmr10_39" x="4.444529"></use>
  </g>
</svg>
